<svg xmlns="http://www.w3.org/2000/svg" viewBox="-98.09 -24.00 801.34 354.30" width="801" height="354">
<polygon points="0.00,0.00 11.28,4.10 0.00,8.21 -11.28,4.10" fill="#161b22"/>
<polygon points="-13.16,4.79 -1.88,8.89 -13.16,13.00 -24.43,8.89" fill="#161b22"/>
<polygon points="13.16,4.79 24.43,8.89 13.16,13.00 1.88,8.89" fill="#161b22"/>
<polygon points="-26.31,9.58 -15.04,13.68 -26.31,17.79 -37.59,13.68" fill="#161b22"/>
<polygon points="0.00,9.58 11.28,13.68 0.00,17.79 -11.28,13.68" fill="#161b22"/>
<polygon points="26.31,9.58 37.59,13.68 26.31,17.79 15.04,13.68" fill="#161b22"/>
<polygon points="-39.47,14.36 -28.19,18.47 -39.47,22.57 -50.74,18.47" fill="#161b22"/>
<polygon points="-13.16,14.36 -1.88,18.47 -13.16,22.57 -24.43,18.47" fill="#161b22"/>
<polygon points="13.16,14.36 24.43,18.47 13.16,22.57 1.88,18.47" fill="#161b22"/>
<polygon points="39.47,14.36 50.74,18.47 39.47,22.57 28.19,18.47" fill="#161b22"/>
<polygon points="-26.31,19.15 -15.04,23.26 -26.31,27.36 -37.59,23.26" fill="#161b22"/>
<polygon points="0.00,19.15 11.28,23.26 0.00,27.36 -11.28,23.26" fill="#161b22"/>
<polygon points="26.31,19.15 37.59,23.26 26.31,27.36 15.04,23.26" fill="#161b22"/>
<polygon points="52.62,19.15 63.90,23.26 52.62,27.36 41.35,23.26" fill="#161b22"/>
<polygon points="-52.62,3.15 -41.35,7.26 -52.62,11.36 -63.90,7.26" fill="#0e4429"/>
<polygon points="-63.90,23.26 -63.90,7.26 -52.62,11.36 -52.62,27.36" fill="#0c3b24"/>
<polygon points="-52.62,27.36 -52.62,11.36 -41.35,7.26 -41.35,23.26" fill="#0a321e"/>
<polygon points="-65.78,23.94 -54.50,28.05 -65.78,32.15 -77.05,28.05" fill="#161b22"/>
<polygon points="-13.16,23.94 -1.88,28.05 -13.16,32.15 -24.43,28.05" fill="#161b22"/>
<polygon points="13.16,23.94 24.43,28.05 13.16,32.15 1.88,28.05" fill="#161b22"/>
<polygon points="39.47,23.94 50.74,28.05 39.47,32.15 28.19,28.05" fill="#161b22"/>
<polygon points="65.78,23.94 77.05,28.05 65.78,32.15 54.50,28.05" fill="#161b22"/>
<polygon points="-39.47,12.94 -28.19,17.05 -39.47,21.15 -50.74,17.05" fill="#0e4429"/>
<polygon points="-50.74,28.05 -50.74,17.05 -39.47,21.15 -39.47,32.15" fill="#0c3b24"/>
<polygon points="-39.47,32.15 -39.47,21.15 -28.19,17.05 -28.19,28.05" fill="#0a321e"/>
<polygon points="-78.93,28.73 -67.66,32.83 -78.93,36.94 -90.21,32.83" fill="#161b22"/>
<polygon points="-52.62,28.73 -41.35,32.83 -52.62,36.94 -63.90,32.83" fill="#161b22"/>
<polygon points="-26.31,28.73 -15.04,32.83 -26.31,36.94 -37.59,32.83" fill="#161b22"/>
<polygon points="0.00,28.73 11.28,32.83 0.00,36.94 -11.28,32.83" fill="#161b22"/>
<polygon points="78.93,28.73 90.21,32.83 78.93,36.94 67.66,32.83" fill="#161b22"/>
<polygon points="26.31,20.73 37.59,24.83 26.31,28.94 15.04,24.83" fill="#0e4429"/>
<polygon points="15.04,32.83 15.04,24.83 26.31,28.94 26.31,36.94" fill="#0c3b24"/>
<polygon points="26.31,36.94 26.31,28.94 37.59,24.83 37.59,32.83" fill="#0a321e"/>
<polygon points="52.62,17.73 63.90,21.83 52.62,25.94 41.35,21.83" fill="#0e4429"/>
<polygon points="41.35,32.83 41.35,21.83 52.62,25.94 52.62,36.94" fill="#0c3b24"/>
<polygon points="52.62,36.94 52.62,25.94 63.90,21.83 63.90,32.83" fill="#0a321e"/>
<polygon points="-65.78,33.52 -54.50,37.62 -65.78,41.73 -77.05,37.62" fill="#161b22"/>
<polygon points="-39.47,33.52 -28.19,37.62 -39.47,41.73 -50.74,37.62" fill="#161b22"/>
<polygon points="-13.16,33.52 -1.88,37.62 -13.16,41.73 -24.43,37.62" fill="#161b22"/>
<polygon points="13.16,33.52 24.43,37.62 13.16,41.73 1.88,37.62" fill="#161b22"/>
<polygon points="92.09,33.52 103.37,37.62 92.09,41.73 80.81,37.62" fill="#161b22"/>
<polygon points="39.47,25.52 50.74,29.62 39.47,33.73 28.19,29.62" fill="#0e4429"/>
<polygon points="28.19,37.62 28.19,29.62 39.47,33.73 39.47,41.73" fill="#0c3b24"/>
<polygon points="39.47,41.73 39.47,33.73 50.74,29.62 50.74,37.62" fill="#0a321e"/>
<polygon points="65.78,20.52 77.05,24.62 65.78,28.73 54.50,24.62" fill="#0e4429"/>
<polygon points="54.50,37.62 54.50,24.62 65.78,28.73 65.78,41.73" fill="#0c3b24"/>
<polygon points="65.78,41.73 65.78,28.73 77.05,24.62 77.05,37.62" fill="#0a321e"/>
<polygon points="-52.62,38.31 -41.35,42.41 -52.62,46.51 -63.90,42.41" fill="#161b22"/>
<polygon points="-26.31,38.31 -15.04,42.41 -26.31,46.51 -37.59,42.41" fill="#161b22"/>
<polygon points="0.00,38.31 11.28,42.41 0.00,46.51 -11.28,42.41" fill="#161b22"/>
<polygon points="26.31,30.31 37.59,34.41 26.31,38.51 15.04,34.41" fill="#0e4429"/>
<polygon points="15.04,42.41 15.04,34.41 26.31,38.51 26.31,46.51" fill="#0c3b24"/>
<polygon points="26.31,46.51 26.31,38.51 37.59,34.41 37.59,42.41" fill="#0a321e"/>
<polygon points="52.62,30.31 63.90,34.41 52.62,38.51 41.35,34.41" fill="#0e4429"/>
<polygon points="41.35,42.41 41.35,34.41 52.62,38.51 52.62,46.51" fill="#0c3b24"/>
<polygon points="52.62,46.51 52.62,38.51 63.90,34.41 63.90,42.41" fill="#0a321e"/>
<polygon points="78.93,27.31 90.21,31.41 78.93,35.51 67.66,31.41" fill="#0e4429"/>
<polygon points="67.66,42.41 67.66,31.41 78.93,35.51 78.93,46.51" fill="#0c3b24"/>
<polygon points="78.93,46.51 78.93,35.51 90.21,31.41 90.21,42.41" fill="#0a321e"/>
<polygon points="105.25,30.31 116.52,34.41 105.25,38.51 93.97,34.41" fill="#0e4429"/>
<polygon points="93.97,42.41 93.97,34.41 105.25,38.51 105.25,46.51" fill="#0c3b24"/>
<polygon points="105.25,46.51 105.25,38.51 116.52,34.41 116.52,42.41" fill="#0a321e"/>
<polygon points="-39.47,43.09 -28.19,47.20 -39.47,51.30 -50.74,47.20" fill="#161b22"/>
<polygon points="-13.16,43.09 -1.88,47.20 -13.16,51.30 -24.43,47.20" fill="#161b22"/>
<polygon points="13.16,43.09 24.43,47.20 13.16,51.30 1.88,47.20" fill="#161b22"/>
<polygon points="118.40,43.09 129.68,47.20 118.40,51.30 107.12,47.20" fill="#161b22"/>
<polygon points="39.47,35.09 50.74,39.20 39.47,43.30 28.19,39.20" fill="#0e4429"/>
<polygon points="28.19,47.20 28.19,39.20 39.47,43.30 39.47,51.30" fill="#0c3b24"/>
<polygon points="39.47,51.30 39.47,43.30 50.74,39.20 50.74,47.20" fill="#0a321e"/>
<polygon points="65.78,35.09 77.05,39.20 65.78,43.30 54.50,39.20" fill="#0e4429"/>
<polygon points="54.50,47.20 54.50,39.20 65.78,43.30 65.78,51.30" fill="#0c3b24"/>
<polygon points="65.78,51.30 65.78,43.30 77.05,39.20 77.05,47.20" fill="#0a321e"/>
<polygon points="92.09,35.09 103.37,39.20 92.09,43.30 80.81,39.20" fill="#0e4429"/>
<polygon points="80.81,47.20 80.81,39.20 92.09,43.30 92.09,51.30" fill="#0c3b24"/>
<polygon points="92.09,51.30 92.09,43.30 103.37,39.20 103.37,47.20" fill="#0a321e"/>
<polygon points="-26.31,47.88 -15.04,51.99 -26.31,56.09 -37.59,51.99" fill="#161b22"/>
<polygon points="0.00,47.88 11.28,51.99 0.00,56.09 -11.28,51.99" fill="#161b22"/>
<polygon points="105.25,47.88 116.52,51.99 105.25,56.09 93.97,51.99" fill="#161b22"/>
<polygon points="26.31,39.88 37.59,43.99 26.31,48.09 15.04,43.99" fill="#0e4429"/>
<polygon points="15.04,51.99 15.04,43.99 26.31,48.09 26.31,56.09" fill="#0c3b24"/>
<polygon points="26.31,56.09 26.31,48.09 37.59,43.99 37.59,51.99" fill="#0a321e"/>
<polygon points="52.62,39.88 63.90,43.99 52.62,48.09 41.35,43.99" fill="#0e4429"/>
<polygon points="41.35,51.99 41.35,43.99 52.62,48.09 52.62,56.09" fill="#0c3b24"/>
<polygon points="52.62,56.09 52.62,48.09 63.90,43.99 63.90,51.99" fill="#0a321e"/>
<polygon points="78.93,36.88 90.21,40.99 78.93,45.09 67.66,40.99" fill="#0e4429"/>
<polygon points="67.66,51.99 67.66,40.99 78.93,45.09 78.93,56.09" fill="#0c3b24"/>
<polygon points="78.93,56.09 78.93,45.09 90.21,40.99 90.21,51.99" fill="#0a321e"/>
<polygon points="131.56,39.88 142.83,43.99 131.56,48.09 120.28,43.99" fill="#0e4429"/>
<polygon points="120.28,51.99 120.28,43.99 131.56,48.09 131.56,56.09" fill="#0c3b24"/>
<polygon points="131.56,56.09 131.56,48.09 142.83,43.99 142.83,51.99" fill="#0a321e"/>
<polygon points="-13.16,52.67 -1.88,56.78 -13.16,60.88 -24.43,56.78" fill="#161b22"/>
<polygon points="39.47,52.67 50.74,56.78 39.47,60.88 28.19,56.78" fill="#161b22"/>
<polygon points="92.09,52.67 103.37,56.78 92.09,60.88 80.81,56.78" fill="#161b22"/>
<polygon points="13.16,44.67 24.43,48.78 13.16,52.88 1.88,48.78" fill="#0e4429"/>
<polygon points="1.88,56.78 1.88,48.78 13.16,52.88 13.16,60.88" fill="#0c3b24"/>
<polygon points="13.16,60.88 13.16,52.88 24.43,48.78 24.43,56.78" fill="#0a321e"/>
<polygon points="65.78,41.67 77.05,45.78 65.78,49.88 54.50,45.78" fill="#0e4429"/>
<polygon points="54.50,56.78 54.50,45.78 65.78,49.88 65.78,60.88" fill="#0c3b24"/>
<polygon points="65.78,60.88 65.78,49.88 77.05,45.78 77.05,56.78" fill="#0a321e"/>
<polygon points="118.40,44.67 129.68,48.78 118.40,52.88 107.12,48.78" fill="#0e4429"/>
<polygon points="107.12,56.78 107.12,48.78 118.40,52.88 118.40,60.88" fill="#0c3b24"/>
<polygon points="118.40,60.88 118.40,52.88 129.68,48.78 129.68,56.78" fill="#0a321e"/>
<polygon points="144.71,44.67 155.99,48.78 144.71,52.88 133.44,48.78" fill="#0e4429"/>
<polygon points="133.44,56.78 133.44,48.78 144.71,52.88 144.71,60.88" fill="#0c3b24"/>
<polygon points="144.71,60.88 144.71,52.88 155.99,48.78 155.99,56.78" fill="#0a321e"/>
<polygon points="0.00,57.46 11.28,61.56 0.00,65.67 -11.28,61.56" fill="#161b22"/>
<polygon points="52.62,57.46 63.90,61.56 52.62,65.67 41.35,61.56" fill="#161b22"/>
<polygon points="78.93,57.46 90.21,61.56 78.93,65.67 67.66,61.56" fill="#161b22"/>
<polygon points="157.87,57.46 169.14,61.56 157.87,65.67 146.59,61.56" fill="#161b22"/>
<polygon points="26.31,49.46 37.59,53.56 26.31,57.67 15.04,53.56" fill="#0e4429"/>
<polygon points="15.04,61.56 15.04,53.56 26.31,57.67 26.31,65.67" fill="#0c3b24"/>
<polygon points="26.31,65.67 26.31,57.67 37.59,53.56 37.59,61.56" fill="#0a321e"/>
<polygon points="105.25,49.46 116.52,53.56 105.25,57.67 93.97,53.56" fill="#0e4429"/>
<polygon points="93.97,61.56 93.97,53.56 105.25,57.67 105.25,65.67" fill="#0c3b24"/>
<polygon points="105.25,65.67 105.25,57.67 116.52,53.56 116.52,61.56" fill="#0a321e"/>
<polygon points="131.56,39.46 142.83,43.56 131.56,47.67 120.28,43.56" fill="#006d32"/>
<polygon points="120.28,61.56 120.28,43.56 131.56,47.67 131.56,65.67" fill="#005f2c"/>
<polygon points="131.56,65.67 131.56,47.67 142.83,43.56 142.83,61.56" fill="#005025"/>
<polygon points="39.47,62.25 50.74,66.35 39.47,70.46 28.19,66.35" fill="#161b22"/>
<polygon points="65.78,62.25 77.05,66.35 65.78,70.46 54.50,66.35" fill="#161b22"/>
<polygon points="171.02,62.25 182.30,66.35 171.02,70.46 159.75,66.35" fill="#161b22"/>
<polygon points="13.16,54.25 24.43,58.35 13.16,62.46 1.88,58.35" fill="#0e4429"/>
<polygon points="1.88,66.35 1.88,58.35 13.16,62.46 13.16,70.46" fill="#0c3b24"/>
<polygon points="13.16,70.46 13.16,62.46 24.43,58.35 24.43,66.35" fill="#0a321e"/>
<polygon points="92.09,54.25 103.37,58.35 92.09,62.46 80.81,58.35" fill="#0e4429"/>
<polygon points="80.81,66.35 80.81,58.35 92.09,62.46 92.09,70.46" fill="#0c3b24"/>
<polygon points="92.09,70.46 92.09,62.46 103.37,58.35 103.37,66.35" fill="#0a321e"/>
<polygon points="144.71,51.25 155.99,55.35 144.71,59.46 133.44,55.35" fill="#0e4429"/>
<polygon points="133.44,66.35 133.44,55.35 144.71,59.46 144.71,70.46" fill="#0c3b24"/>
<polygon points="144.71,70.46 144.71,59.46 155.99,55.35 155.99,66.35" fill="#0a321e"/>
<polygon points="118.40,44.25 129.68,48.35 118.40,52.46 107.12,48.35" fill="#006d32"/>
<polygon points="107.12,66.35 107.12,48.35 118.40,52.46 118.40,70.46" fill="#005f2c"/>
<polygon points="118.40,70.46 118.40,52.46 129.68,48.35 129.68,66.35" fill="#005025"/>
<polygon points="26.31,67.04 37.59,71.14 26.31,75.24 15.04,71.14" fill="#161b22"/>
<polygon points="52.62,67.04 63.90,71.14 52.62,75.24 41.35,71.14" fill="#161b22"/>
<polygon points="131.56,51.04 142.83,55.14 131.56,59.24 120.28,55.14" fill="#0e4429"/>
<polygon points="120.28,71.14 120.28,55.14 131.56,59.24 131.56,75.24" fill="#0c3b24"/>
<polygon points="131.56,75.24 131.56,59.24 142.83,55.14 142.83,71.14" fill="#0a321e"/>
<polygon points="157.87,59.04 169.14,63.14 157.87,67.24 146.59,63.14" fill="#0e4429"/>
<polygon points="146.59,71.14 146.59,63.14 157.87,67.24 157.87,75.24" fill="#0c3b24"/>
<polygon points="157.87,75.24 157.87,67.24 169.14,63.14 169.14,71.14" fill="#0a321e"/>
<polygon points="184.18,56.04 195.46,60.14 184.18,64.24 172.90,60.14" fill="#0e4429"/>
<polygon points="172.90,71.14 172.90,60.14 184.18,64.24 184.18,75.24" fill="#0c3b24"/>
<polygon points="184.18,75.24 184.18,64.24 195.46,60.14 195.46,71.14" fill="#0a321e"/>
<polygon points="105.25,49.04 116.52,53.14 105.25,57.24 93.97,53.14" fill="#006d32"/>
<polygon points="93.97,71.14 93.97,53.14 105.25,57.24 105.25,75.24" fill="#005f2c"/>
<polygon points="105.25,75.24 105.25,57.24 116.52,53.14 116.52,71.14" fill="#005025"/>
<polygon points="78.93,49.04 90.21,53.14 78.93,57.24 67.66,53.14" fill="#39d353"/>
<polygon points="67.66,71.14 67.66,53.14 78.93,57.24 78.93,75.24" fill="#32b949"/>
<polygon points="78.93,75.24 78.93,57.24 90.21,53.14 90.21,71.14" fill="#2a9c3d"/>
<polygon points="39.47,71.82 50.74,75.93 39.47,80.03 28.19,75.93" fill="#161b22"/>
<polygon points="197.34,71.82 208.61,75.93 197.34,80.03 186.06,75.93" fill="#161b22"/>
<polygon points="65.78,60.82 77.05,64.93 65.78,69.03 54.50,64.93" fill="#0e4429"/>
<polygon points="54.50,75.93 54.50,64.93 65.78,69.03 65.78,80.03" fill="#0c3b24"/>
<polygon points="65.78,80.03 65.78,69.03 77.05,64.93 77.05,75.93" fill="#0a321e"/>
<polygon points="92.09,63.82 103.37,67.93 92.09,72.03 80.81,67.93" fill="#0e4429"/>
<polygon points="80.81,75.93 80.81,67.93 92.09,72.03 92.09,80.03" fill="#0c3b24"/>
<polygon points="92.09,80.03 92.09,72.03 103.37,67.93 103.37,75.93" fill="#0a321e"/>
<polygon points="118.40,63.82 129.68,67.93 118.40,72.03 107.12,67.93" fill="#0e4429"/>
<polygon points="107.12,75.93 107.12,67.93 118.40,72.03 118.40,80.03" fill="#0c3b24"/>
<polygon points="118.40,80.03 118.40,72.03 129.68,67.93 129.68,75.93" fill="#0a321e"/>
<polygon points="144.71,60.82 155.99,64.93 144.71,69.03 133.44,64.93" fill="#0e4429"/>
<polygon points="133.44,75.93 133.44,64.93 144.71,69.03 144.71,80.03" fill="#0c3b24"/>
<polygon points="144.71,80.03 144.71,69.03 155.99,64.93 155.99,75.93" fill="#0a321e"/>
<polygon points="171.02,60.82 182.30,64.93 171.02,69.03 159.75,64.93" fill="#0e4429"/>
<polygon points="159.75,75.93 159.75,64.93 171.02,69.03 171.02,80.03" fill="#0c3b24"/>
<polygon points="171.02,80.03 171.02,69.03 182.30,64.93 182.30,75.93" fill="#0a321e"/>
<polygon points="78.93,76.61 90.21,80.72 78.93,84.82 67.66,80.72" fill="#161b22"/>
<polygon points="210.49,76.61 221.77,80.72 210.49,84.82 199.21,80.72" fill="#161b22"/>
<polygon points="52.62,68.61 63.90,72.72 52.62,76.82 41.35,72.72" fill="#0e4429"/>
<polygon points="41.35,80.72 41.35,72.72 52.62,76.82 52.62,84.82" fill="#0c3b24"/>
<polygon points="52.62,84.82 52.62,76.82 63.90,72.72 63.90,80.72" fill="#0a321e"/>
<polygon points="131.56,62.61 142.83,66.72 131.56,70.82 120.28,66.72" fill="#0e4429"/>
<polygon points="120.28,80.72 120.28,66.72 131.56,70.82 131.56,84.82" fill="#0c3b24"/>
<polygon points="131.56,84.82 131.56,70.82 142.83,66.72 142.83,80.72" fill="#0a321e"/>
<polygon points="157.87,60.61 169.14,64.72 157.87,68.82 146.59,64.72" fill="#0e4429"/>
<polygon points="146.59,80.72 146.59,64.72 157.87,68.82 157.87,84.82" fill="#0c3b24"/>
<polygon points="157.87,84.82 157.87,68.82 169.14,64.72 169.14,80.72" fill="#0a321e"/>
<polygon points="184.18,68.61 195.46,72.72 184.18,76.82 172.90,72.72" fill="#0e4429"/>
<polygon points="172.90,80.72 172.90,72.72 184.18,76.82 184.18,84.82" fill="#0c3b24"/>
<polygon points="184.18,84.82 184.18,76.82 195.46,72.72 195.46,80.72" fill="#0a321e"/>
<polygon points="105.25,58.61 116.52,62.72 105.25,66.82 93.97,62.72" fill="#39d353"/>
<polygon points="93.97,80.72 93.97,62.72 105.25,66.82 105.25,84.82" fill="#32b949"/>
<polygon points="105.25,84.82 105.25,66.82 116.52,62.72 116.52,80.72" fill="#2a9c3d"/>
<polygon points="65.78,81.40 77.05,85.51 65.78,89.61 54.50,85.51" fill="#161b22"/>
<polygon points="92.09,81.40 103.37,85.51 92.09,89.61 80.81,85.51" fill="#161b22"/>
<polygon points="223.65,81.40 234.92,85.51 223.65,89.61 212.37,85.51" fill="#161b22"/>
<polygon points="118.40,70.40 129.68,74.51 118.40,78.61 107.12,74.51" fill="#0e4429"/>
<polygon points="107.12,85.51 107.12,74.51 118.40,78.61 118.40,89.61" fill="#0c3b24"/>
<polygon points="118.40,89.61 118.40,78.61 129.68,74.51 129.68,85.51" fill="#0a321e"/>
<polygon points="144.71,73.40 155.99,77.51 144.71,81.61 133.44,77.51" fill="#0e4429"/>
<polygon points="133.44,85.51 133.44,77.51 144.71,81.61 144.71,89.61" fill="#0c3b24"/>
<polygon points="144.71,89.61 144.71,81.61 155.99,77.51 155.99,85.51" fill="#0a321e"/>
<polygon points="171.02,65.40 182.30,69.51 171.02,73.61 159.75,69.51" fill="#0e4429"/>
<polygon points="159.75,85.51 159.75,69.51 171.02,73.61 171.02,89.61" fill="#0c3b24"/>
<polygon points="171.02,89.61 171.02,73.61 182.30,69.51 182.30,85.51" fill="#0a321e"/>
<polygon points="197.34,70.40 208.61,74.51 197.34,78.61 186.06,74.51" fill="#0e4429"/>
<polygon points="186.06,85.51 186.06,74.51 197.34,78.61 197.34,89.61" fill="#0c3b24"/>
<polygon points="197.34,89.61 197.34,78.61 208.61,74.51 208.61,85.51" fill="#0a321e"/>
<polygon points="78.93,86.19 90.21,90.29 78.93,94.40 67.66,90.29" fill="#161b22"/>
<polygon points="184.18,86.19 195.46,90.29 184.18,94.40 172.90,90.29" fill="#161b22"/>
<polygon points="210.49,86.19 221.77,90.29 210.49,94.40 199.21,90.29" fill="#161b22"/>
<polygon points="236.80,86.19 248.08,90.29 236.80,94.40 225.53,90.29" fill="#161b22"/>
<polygon points="105.25,72.19 116.52,76.29 105.25,80.40 93.97,76.29" fill="#0e4429"/>
<polygon points="93.97,90.29 93.97,76.29 105.25,80.40 105.25,94.40" fill="#0c3b24"/>
<polygon points="105.25,94.40 105.25,80.40 116.52,76.29 116.52,90.29" fill="#0a321e"/>
<polygon points="131.56,78.19 142.83,82.29 131.56,86.40 120.28,82.29" fill="#0e4429"/>
<polygon points="120.28,90.29 120.28,82.29 131.56,86.40 131.56,94.40" fill="#0c3b24"/>
<polygon points="131.56,94.40 131.56,86.40 142.83,82.29 142.83,90.29" fill="#0a321e"/>
<polygon points="157.87,73.19 169.14,77.29 157.87,81.40 146.59,77.29" fill="#0e4429"/>
<polygon points="146.59,90.29 146.59,77.29 157.87,81.40 157.87,94.40" fill="#0c3b24"/>
<polygon points="157.87,94.40 157.87,81.40 169.14,77.29 169.14,90.29" fill="#0a321e"/>
<polygon points="92.09,90.98 103.37,95.08 92.09,99.19 80.81,95.08" fill="#161b22"/>
<polygon points="171.02,90.98 182.30,95.08 171.02,99.19 159.75,95.08" fill="#161b22"/>
<polygon points="223.65,90.98 234.92,95.08 223.65,99.19 212.37,95.08" fill="#161b22"/>
<polygon points="118.40,82.98 129.68,87.08 118.40,91.19 107.12,87.08" fill="#0e4429"/>
<polygon points="107.12,95.08 107.12,87.08 118.40,91.19 118.40,99.19" fill="#0c3b24"/>
<polygon points="118.40,99.19 118.40,91.19 129.68,87.08 129.68,95.08" fill="#0a321e"/>
<polygon points="144.71,82.98 155.99,87.08 144.71,91.19 133.44,87.08" fill="#0e4429"/>
<polygon points="133.44,95.08 133.44,87.08 144.71,91.19 144.71,99.19" fill="#0c3b24"/>
<polygon points="144.71,99.19 144.71,91.19 155.99,87.08 155.99,95.08" fill="#0a321e"/>
<polygon points="197.34,75.98 208.61,80.08 197.34,84.19 186.06,80.08" fill="#0e4429"/>
<polygon points="186.06,95.08 186.06,80.08 197.34,84.19 197.34,99.19" fill="#0c3b24"/>
<polygon points="197.34,99.19 197.34,84.19 208.61,80.08 208.61,95.08" fill="#0a321e"/>
<polygon points="249.96,82.98 261.23,87.08 249.96,91.19 238.68,87.08" fill="#0e4429"/>
<polygon points="238.68,95.08 238.68,87.08 249.96,91.19 249.96,99.19" fill="#0c3b24"/>
<polygon points="249.96,99.19 249.96,91.19 261.23,87.08 261.23,95.08" fill="#0a321e"/>
<polygon points="105.25,95.77 116.52,99.87 105.25,103.97 93.97,99.87" fill="#161b22"/>
<polygon points="157.87,95.77 169.14,99.87 157.87,103.97 146.59,99.87" fill="#161b22"/>
<polygon points="263.11,95.77 274.39,99.87 263.11,103.97 251.84,99.87" fill="#161b22"/>
<polygon points="131.56,87.77 142.83,91.87 131.56,95.97 120.28,91.87" fill="#0e4429"/>
<polygon points="120.28,99.87 120.28,91.87 131.56,95.97 131.56,103.97" fill="#0c3b24"/>
<polygon points="131.56,103.97 131.56,95.97 142.83,91.87 142.83,99.87" fill="#0a321e"/>
<polygon points="184.18,87.77 195.46,91.87 184.18,95.97 172.90,91.87" fill="#0e4429"/>
<polygon points="172.90,99.87 172.90,91.87 184.18,95.97 184.18,103.97" fill="#0c3b24"/>
<polygon points="184.18,103.97 184.18,95.97 195.46,91.87 195.46,99.87" fill="#0a321e"/>
<polygon points="210.49,87.77 221.77,91.87 210.49,95.97 199.21,91.87" fill="#0e4429"/>
<polygon points="199.21,99.87 199.21,91.87 210.49,95.97 210.49,103.97" fill="#0c3b24"/>
<polygon points="210.49,103.97 210.49,95.97 221.77,91.87 221.77,99.87" fill="#0a321e"/>
<polygon points="236.80,79.77 248.08,83.87 236.80,87.97 225.53,83.87" fill="#0e4429"/>
<polygon points="225.53,99.87 225.53,83.87 236.80,87.97 236.80,103.97" fill="#0c3b24"/>
<polygon points="236.80,103.97 236.80,87.97 248.08,83.87 248.08,99.87" fill="#0a321e"/>
<polygon points="118.40,100.55 129.68,104.66 118.40,108.76 107.12,104.66" fill="#161b22"/>
<polygon points="144.71,100.55 155.99,104.66 144.71,108.76 133.44,104.66" fill="#161b22"/>
<polygon points="171.02,100.55 182.30,104.66 171.02,108.76 159.75,104.66" fill="#161b22"/>
<polygon points="197.34,100.55 208.61,104.66 197.34,108.76 186.06,104.66" fill="#161b22"/>
<polygon points="276.27,100.55 287.55,104.66 276.27,108.76 264.99,104.66" fill="#161b22"/>
<polygon points="223.65,89.55 234.92,93.66 223.65,97.76 212.37,93.66" fill="#0e4429"/>
<polygon points="212.37,104.66 212.37,93.66 223.65,97.76 223.65,108.76" fill="#0c3b24"/>
<polygon points="223.65,108.76 223.65,97.76 234.92,93.66 234.92,104.66" fill="#0a321e"/>
<polygon points="249.96,92.55 261.23,96.66 249.96,100.76 238.68,96.66" fill="#0e4429"/>
<polygon points="238.68,104.66 238.68,96.66 249.96,100.76 249.96,108.76" fill="#0c3b24"/>
<polygon points="249.96,108.76 249.96,100.76 261.23,96.66 261.23,104.66" fill="#0a321e"/>
<polygon points="131.56,105.34 142.83,109.45 131.56,113.55 120.28,109.45" fill="#161b22"/>
<polygon points="236.80,105.34 248.08,109.45 236.80,113.55 225.53,109.45" fill="#161b22"/>
<polygon points="157.87,97.34 169.14,101.45 157.87,105.55 146.59,101.45" fill="#0e4429"/>
<polygon points="146.59,109.45 146.59,101.45 157.87,105.55 157.87,113.55" fill="#0c3b24"/>
<polygon points="157.87,113.55 157.87,105.55 169.14,101.45 169.14,109.45" fill="#0a321e"/>
<polygon points="184.18,94.34 195.46,98.45 184.18,102.55 172.90,98.45" fill="#0e4429"/>
<polygon points="172.90,109.45 172.90,98.45 184.18,102.55 184.18,113.55" fill="#0c3b24"/>
<polygon points="184.18,113.55 184.18,102.55 195.46,98.45 195.46,109.45" fill="#0a321e"/>
<polygon points="210.49,90.34 221.77,94.45 210.49,98.55 199.21,94.45" fill="#0e4429"/>
<polygon points="199.21,109.45 199.21,94.45 210.49,98.55 210.49,113.55" fill="#0c3b24"/>
<polygon points="210.49,113.55 210.49,98.55 221.77,94.45 221.77,109.45" fill="#0a321e"/>
<polygon points="263.11,97.34 274.39,101.45 263.11,105.55 251.84,101.45" fill="#0e4429"/>
<polygon points="251.84,109.45 251.84,101.45 263.11,105.55 263.11,113.55" fill="#0c3b24"/>
<polygon points="263.11,113.55 263.11,105.55 274.39,101.45 274.39,109.45" fill="#0a321e"/>
<polygon points="289.43,97.34 300.70,101.45 289.43,105.55 278.15,101.45" fill="#0e4429"/>
<polygon points="278.15,109.45 278.15,101.45 289.43,105.55 289.43,113.55" fill="#0c3b24"/>
<polygon points="289.43,113.55 289.43,105.55 300.70,101.45 300.70,109.45" fill="#0a321e"/>
<polygon points="144.71,110.13 155.99,114.23 144.71,118.34 133.44,114.23" fill="#161b22"/>
<polygon points="223.65,110.13 234.92,114.23 223.65,118.34 212.37,114.23" fill="#161b22"/>
<polygon points="249.96,110.13 261.23,114.23 249.96,118.34 238.68,114.23" fill="#161b22"/>
<polygon points="276.27,110.13 287.55,114.23 276.27,118.34 264.99,114.23" fill="#161b22"/>
<polygon points="302.58,110.13 313.86,114.23 302.58,118.34 291.30,114.23" fill="#161b22"/>
<polygon points="171.02,95.13 182.30,99.23 171.02,103.34 159.75,99.23" fill="#0e4429"/>
<polygon points="159.75,114.23 159.75,99.23 171.02,103.34 171.02,118.34" fill="#0c3b24"/>
<polygon points="171.02,118.34 171.02,103.34 182.30,99.23 182.30,114.23" fill="#0a321e"/>
<polygon points="197.34,97.13 208.61,101.23 197.34,105.34 186.06,101.23" fill="#0e4429"/>
<polygon points="186.06,114.23 186.06,101.23 197.34,105.34 197.34,118.34" fill="#0c3b24"/>
<polygon points="197.34,118.34 197.34,105.34 208.61,101.23 208.61,114.23" fill="#0a321e"/>
<polygon points="157.87,114.92 169.14,119.02 157.87,123.13 146.59,119.02" fill="#161b22"/>
<polygon points="184.18,114.92 195.46,119.02 184.18,123.13 172.90,119.02" fill="#161b22"/>
<polygon points="210.49,114.92 221.77,119.02 210.49,123.13 199.21,119.02" fill="#161b22"/>
<polygon points="236.80,114.92 248.08,119.02 236.80,123.13 225.53,119.02" fill="#161b22"/>
<polygon points="315.74,114.92 327.01,119.02 315.74,123.13 304.46,119.02" fill="#161b22"/>
<polygon points="263.11,103.92 274.39,108.02 263.11,112.13 251.84,108.02" fill="#0e4429"/>
<polygon points="251.84,119.02 251.84,108.02 263.11,112.13 263.11,123.13" fill="#0c3b24"/>
<polygon points="263.11,123.13 263.11,112.13 274.39,108.02 274.39,119.02" fill="#0a321e"/>
<polygon points="289.43,103.92 300.70,108.02 289.43,112.13 278.15,108.02" fill="#0e4429"/>
<polygon points="278.15,119.02 278.15,108.02 289.43,112.13 289.43,123.13" fill="#0c3b24"/>
<polygon points="289.43,123.13 289.43,112.13 300.70,108.02 300.70,119.02" fill="#0a321e"/>
<polygon points="171.02,119.71 182.30,123.81 171.02,127.92 159.75,123.81" fill="#161b22"/>
<polygon points="197.34,119.71 208.61,123.81 197.34,127.92 186.06,123.81" fill="#161b22"/>
<polygon points="223.65,119.71 234.92,123.81 223.65,127.92 212.37,123.81" fill="#161b22"/>
<polygon points="276.27,119.71 287.55,123.81 276.27,127.92 264.99,123.81" fill="#161b22"/>
<polygon points="328.89,119.71 340.17,123.81 328.89,127.92 317.62,123.81" fill="#161b22"/>
<polygon points="249.96,105.71 261.23,109.81 249.96,113.92 238.68,109.81" fill="#0e4429"/>
<polygon points="238.68,123.81 238.68,109.81 249.96,113.92 249.96,127.92" fill="#0c3b24"/>
<polygon points="249.96,127.92 249.96,113.92 261.23,109.81 261.23,123.81" fill="#0a321e"/>
<polygon points="302.58,111.71 313.86,115.81 302.58,119.92 291.30,115.81" fill="#0e4429"/>
<polygon points="291.30,123.81 291.30,115.81 302.58,119.92 302.58,127.92" fill="#0c3b24"/>
<polygon points="302.58,127.92 302.58,119.92 313.86,115.81 313.86,123.81" fill="#0a321e"/>
<polygon points="184.18,124.50 195.46,128.60 184.18,132.70 172.90,128.60" fill="#161b22"/>
<polygon points="289.43,124.50 300.70,128.60 289.43,132.70 278.15,128.60" fill="#161b22"/>
<polygon points="236.80,110.50 248.08,114.60 236.80,118.70 225.53,114.60" fill="#0e4429"/>
<polygon points="225.53,128.60 225.53,114.60 236.80,118.70 236.80,132.70" fill="#0c3b24"/>
<polygon points="236.80,132.70 236.80,118.70 248.08,114.60 248.08,128.60" fill="#0a321e"/>
<polygon points="263.11,111.50 274.39,115.60 263.11,119.70 251.84,115.60" fill="#0e4429"/>
<polygon points="251.84,128.60 251.84,115.60 263.11,119.70 263.11,132.70" fill="#0c3b24"/>
<polygon points="263.11,132.70 263.11,119.70 274.39,115.60 274.39,128.60" fill="#0a321e"/>
<polygon points="315.74,116.50 327.01,120.60 315.74,124.70 304.46,120.60" fill="#0e4429"/>
<polygon points="304.46,128.60 304.46,120.60 315.74,124.70 315.74,132.70" fill="#0c3b24"/>
<polygon points="315.74,132.70 315.74,124.70 327.01,120.60 327.01,128.60" fill="#0a321e"/>
<polygon points="342.05,113.50 353.32,117.60 342.05,121.70 330.77,117.60" fill="#0e4429"/>
<polygon points="330.77,128.60 330.77,117.60 342.05,121.70 342.05,132.70" fill="#0c3b24"/>
<polygon points="342.05,132.70 342.05,121.70 353.32,117.60 353.32,128.60" fill="#0a321e"/>
<polygon points="210.49,106.50 221.77,110.60 210.49,114.70 199.21,110.60" fill="#006d32"/>
<polygon points="199.21,128.60 199.21,110.60 210.49,114.70 210.49,132.70" fill="#005f2c"/>
<polygon points="210.49,132.70 210.49,114.70 221.77,110.60 221.77,128.60" fill="#005025"/>
<polygon points="223.65,129.28 234.92,133.39 223.65,137.49 212.37,133.39" fill="#161b22"/>
<polygon points="328.89,129.28 340.17,133.39 328.89,137.49 317.62,133.39" fill="#161b22"/>
<polygon points="355.20,129.28 366.48,133.39 355.20,137.49 343.93,133.39" fill="#161b22"/>
<polygon points="197.34,118.28 208.61,122.39 197.34,126.49 186.06,122.39" fill="#0e4429"/>
<polygon points="186.06,133.39 186.06,122.39 197.34,126.49 197.34,137.49" fill="#0c3b24"/>
<polygon points="197.34,137.49 197.34,126.49 208.61,122.39 208.61,133.39" fill="#0a321e"/>
<polygon points="249.96,121.28 261.23,125.39 249.96,129.49 238.68,125.39" fill="#0e4429"/>
<polygon points="238.68,133.39 238.68,125.39 249.96,129.49 249.96,137.49" fill="#0c3b24"/>
<polygon points="249.96,137.49 249.96,129.49 261.23,125.39 261.23,133.39" fill="#0a321e"/>
<polygon points="276.27,114.28 287.55,118.39 276.27,122.49 264.99,118.39" fill="#0e4429"/>
<polygon points="264.99,133.39 264.99,118.39 276.27,122.49 276.27,137.49" fill="#0c3b24"/>
<polygon points="276.27,137.49 276.27,122.49 287.55,118.39 287.55,133.39" fill="#0a321e"/>
<polygon points="302.58,121.28 313.86,125.39 302.58,129.49 291.30,125.39" fill="#0e4429"/>
<polygon points="291.30,133.39 291.30,125.39 302.58,129.49 302.58,137.49" fill="#0c3b24"/>
<polygon points="302.58,137.49 302.58,129.49 313.86,125.39 313.86,133.39" fill="#0a321e"/>
<polygon points="236.80,134.07 248.08,138.18 236.80,142.28 225.53,138.18" fill="#161b22"/>
<polygon points="342.05,134.07 353.32,138.18 342.05,142.28 330.77,138.18" fill="#161b22"/>
<polygon points="210.49,123.07 221.77,127.18 210.49,131.28 199.21,127.18" fill="#0e4429"/>
<polygon points="199.21,138.18 199.21,127.18 210.49,131.28 210.49,142.28" fill="#0c3b24"/>
<polygon points="210.49,142.28 210.49,131.28 221.77,127.18 221.77,138.18" fill="#0a321e"/>
<polygon points="289.43,123.07 300.70,127.18 289.43,131.28 278.15,127.18" fill="#0e4429"/>
<polygon points="278.15,138.18 278.15,127.18 289.43,131.28 289.43,142.28" fill="#0c3b24"/>
<polygon points="289.43,142.28 289.43,131.28 300.70,127.18 300.70,138.18" fill="#0a321e"/>
<polygon points="315.74,119.07 327.01,123.18 315.74,127.28 304.46,123.18" fill="#0e4429"/>
<polygon points="304.46,138.18 304.46,123.18 315.74,127.28 315.74,142.28" fill="#0c3b24"/>
<polygon points="315.74,142.28 315.74,127.28 327.01,123.18 327.01,138.18" fill="#0a321e"/>
<polygon points="368.36,116.07 379.64,120.18 368.36,124.28 357.08,120.18" fill="#006d32"/>
<polygon points="357.08,138.18 357.08,120.18 368.36,124.28 368.36,142.28" fill="#005f2c"/>
<polygon points="368.36,142.28 368.36,124.28 379.64,120.18 379.64,138.18" fill="#005025"/>
<polygon points="263.11,116.07 274.39,120.18 263.11,124.28 251.84,120.18" fill="#26a641"/>
<polygon points="251.84,138.18 251.84,120.18 263.11,124.28 263.11,142.28" fill="#219239"/>
<polygon points="263.11,142.28 263.11,124.28 274.39,120.18 274.39,138.18" fill="#1c7a30"/>
<polygon points="223.65,138.86 234.92,142.96 223.65,147.07 212.37,142.96" fill="#161b22"/>
<polygon points="276.27,138.86 287.55,142.96 276.27,147.07 264.99,142.96" fill="#161b22"/>
<polygon points="302.58,138.86 313.86,142.96 302.58,147.07 291.30,142.96" fill="#161b22"/>
<polygon points="249.96,122.86 261.23,126.96 249.96,131.07 238.68,126.96" fill="#0e4429"/>
<polygon points="238.68,142.96 238.68,126.96 249.96,131.07 249.96,147.07" fill="#0c3b24"/>
<polygon points="249.96,147.07 249.96,131.07 261.23,126.96 261.23,142.96" fill="#0a321e"/>
<polygon points="328.89,125.86 340.17,129.96 328.89,134.07 317.62,129.96" fill="#0e4429"/>
<polygon points="317.62,142.96 317.62,129.96 328.89,134.07 328.89,147.07" fill="#0c3b24"/>
<polygon points="328.89,147.07 328.89,134.07 340.17,129.96 340.17,142.96" fill="#0a321e"/>
<polygon points="355.20,122.86 366.48,126.96 355.20,131.07 343.93,126.96" fill="#0e4429"/>
<polygon points="343.93,142.96 343.93,126.96 355.20,131.07 355.20,147.07" fill="#0c3b24"/>
<polygon points="355.20,147.07 355.20,131.07 366.48,126.96 366.48,142.96" fill="#0a321e"/>
<polygon points="381.52,125.86 392.79,129.96 381.52,134.07 370.24,129.96" fill="#0e4429"/>
<polygon points="370.24,142.96 370.24,129.96 381.52,134.07 381.52,147.07" fill="#0c3b24"/>
<polygon points="381.52,147.07 381.52,134.07 392.79,129.96 392.79,142.96" fill="#0a321e"/>
<polygon points="394.67,143.65 405.95,147.75 394.67,151.86 383.39,147.75" fill="#161b22"/>
<polygon points="236.80,132.65 248.08,136.75 236.80,140.86 225.53,136.75" fill="#0e4429"/>
<polygon points="225.53,147.75 225.53,136.75 236.80,140.86 236.80,151.86" fill="#0c3b24"/>
<polygon points="236.80,151.86 236.80,140.86 248.08,136.75 248.08,147.75" fill="#0a321e"/>
<polygon points="263.11,135.65 274.39,139.75 263.11,143.86 251.84,139.75" fill="#0e4429"/>
<polygon points="251.84,147.75 251.84,139.75 263.11,143.86 263.11,151.86" fill="#0c3b24"/>
<polygon points="263.11,151.86 263.11,143.86 274.39,139.75 274.39,147.75" fill="#0a321e"/>
<polygon points="289.43,135.65 300.70,139.75 289.43,143.86 278.15,139.75" fill="#0e4429"/>
<polygon points="278.15,147.75 278.15,139.75 289.43,143.86 289.43,151.86" fill="#0c3b24"/>
<polygon points="289.43,151.86 289.43,143.86 300.70,139.75 300.70,147.75" fill="#0a321e"/>
<polygon points="315.74,130.65 327.01,134.75 315.74,138.86 304.46,134.75" fill="#0e4429"/>
<polygon points="304.46,147.75 304.46,134.75 315.74,138.86 315.74,151.86" fill="#0c3b24"/>
<polygon points="315.74,151.86 315.74,138.86 327.01,134.75 327.01,147.75" fill="#0a321e"/>
<polygon points="342.05,127.65 353.32,131.75 342.05,135.86 330.77,131.75" fill="#0e4429"/>
<polygon points="330.77,147.75 330.77,131.75 342.05,135.86 342.05,151.86" fill="#0c3b24"/>
<polygon points="342.05,151.86 342.05,135.86 353.32,131.75 353.32,147.75" fill="#0a321e"/>
<polygon points="368.36,127.65 379.64,131.75 368.36,135.86 357.08,131.75" fill="#0e4429"/>
<polygon points="357.08,147.75 357.08,131.75 368.36,135.86 368.36,151.86" fill="#0c3b24"/>
<polygon points="368.36,151.86 368.36,135.86 379.64,131.75 379.64,147.75" fill="#0a321e"/>
<polygon points="249.96,148.44 261.23,152.54 249.96,156.65 238.68,152.54" fill="#161b22"/>
<polygon points="276.27,148.44 287.55,152.54 276.27,156.65 264.99,152.54" fill="#161b22"/>
<polygon points="302.58,135.44 313.86,139.54 302.58,143.65 291.30,139.54" fill="#0e4429"/>
<polygon points="291.30,152.54 291.30,139.54 302.58,143.65 302.58,156.65" fill="#0c3b24"/>
<polygon points="302.58,156.65 302.58,143.65 313.86,139.54 313.86,152.54" fill="#0a321e"/>
<polygon points="381.52,133.44 392.79,137.54 381.52,141.65 370.24,137.54" fill="#0e4429"/>
<polygon points="370.24,152.54 370.24,137.54 381.52,141.65 381.52,156.65" fill="#0c3b24"/>
<polygon points="381.52,156.65 381.52,141.65 392.79,137.54 392.79,152.54" fill="#0a321e"/>
<polygon points="407.83,134.44 419.10,138.54 407.83,142.65 396.55,138.54" fill="#0e4429"/>
<polygon points="396.55,152.54 396.55,138.54 407.83,142.65 407.83,156.65" fill="#0c3b24"/>
<polygon points="407.83,156.65 407.83,142.65 419.10,138.54 419.10,152.54" fill="#0a321e"/>
<polygon points="328.89,130.44 340.17,134.54 328.89,138.65 317.62,134.54" fill="#006d32"/>
<polygon points="317.62,152.54 317.62,134.54 328.89,138.65 328.89,156.65" fill="#005f2c"/>
<polygon points="328.89,156.65 328.89,138.65 340.17,134.54 340.17,152.54" fill="#005025"/>
<polygon points="355.20,130.44 366.48,134.54 355.20,138.65 343.93,134.54" fill="#006d32"/>
<polygon points="343.93,152.54 343.93,134.54 355.20,138.65 355.20,156.65" fill="#005f2c"/>
<polygon points="355.20,156.65 355.20,138.65 366.48,134.54 366.48,152.54" fill="#005025"/>
<polygon points="263.11,153.23 274.39,157.33 263.11,161.43 251.84,157.33" fill="#161b22"/>
<polygon points="315.74,138.23 327.01,142.33 315.74,146.43 304.46,142.33" fill="#0e4429"/>
<polygon points="304.46,157.33 304.46,142.33 315.74,146.43 315.74,161.43" fill="#0c3b24"/>
<polygon points="315.74,161.43 315.74,146.43 327.01,142.33 327.01,157.33" fill="#0a321e"/>
<polygon points="368.36,137.23 379.64,141.33 368.36,145.43 357.08,141.33" fill="#0e4429"/>
<polygon points="357.08,157.33 357.08,141.33 368.36,145.43 368.36,161.43" fill="#0c3b24"/>
<polygon points="368.36,161.43 368.36,145.43 379.64,141.33 379.64,157.33" fill="#0a321e"/>
<polygon points="394.67,137.23 405.95,141.33 394.67,145.43 383.39,141.33" fill="#0e4429"/>
<polygon points="383.39,157.33 383.39,141.33 394.67,145.43 394.67,161.43" fill="#0c3b24"/>
<polygon points="394.67,161.43 394.67,145.43 405.95,141.33 405.95,157.33" fill="#0a321e"/>
<polygon points="420.98,142.23 432.26,146.33 420.98,150.43 409.71,146.33" fill="#0e4429"/>
<polygon points="409.71,157.33 409.71,146.33 420.98,150.43 420.98,161.43" fill="#0c3b24"/>
<polygon points="420.98,161.43 420.98,150.43 432.26,146.33 432.26,157.33" fill="#0a321e"/>
<polygon points="342.05,135.23 353.32,139.33 342.05,143.43 330.77,139.33" fill="#006d32"/>
<polygon points="330.77,157.33 330.77,139.33 342.05,143.43 342.05,161.43" fill="#005f2c"/>
<polygon points="342.05,161.43 342.05,143.43 353.32,139.33 353.32,157.33" fill="#005025"/>
<polygon points="289.43,135.23 300.70,139.33 289.43,143.43 278.15,139.33" fill="#26a641"/>
<polygon points="278.15,157.33 278.15,139.33 289.43,143.43 289.43,161.43" fill="#219239"/>
<polygon points="289.43,161.43 289.43,143.43 300.70,139.33 300.70,157.33" fill="#1c7a30"/>
<polygon points="302.58,158.01 313.86,162.12 302.58,166.22 291.30,162.12" fill="#161b22"/>
<polygon points="276.27,147.01 287.55,151.12 276.27,155.22 264.99,151.12" fill="#0e4429"/>
<polygon points="264.99,162.12 264.99,151.12 276.27,155.22 276.27,166.22" fill="#0c3b24"/>
<polygon points="276.27,166.22 276.27,155.22 287.55,151.12 287.55,162.12" fill="#0a321e"/>
<polygon points="328.89,150.01 340.17,154.12 328.89,158.22 317.62,154.12" fill="#0e4429"/>
<polygon points="317.62,162.12 317.62,154.12 328.89,158.22 328.89,166.22" fill="#0c3b24"/>
<polygon points="328.89,166.22 328.89,158.22 340.17,154.12 340.17,162.12" fill="#0a321e"/>
<polygon points="355.20,144.01 366.48,148.12 355.20,152.22 343.93,148.12" fill="#0e4429"/>
<polygon points="343.93,162.12 343.93,148.12 355.20,152.22 355.20,166.22" fill="#0c3b24"/>
<polygon points="355.20,166.22 355.20,152.22 366.48,148.12 366.48,162.12" fill="#0a321e"/>
<polygon points="381.52,147.01 392.79,151.12 381.52,155.22 370.24,151.12" fill="#0e4429"/>
<polygon points="370.24,162.12 370.24,151.12 381.52,155.22 381.52,166.22" fill="#0c3b24"/>
<polygon points="381.52,166.22 381.52,155.22 392.79,151.12 392.79,162.12" fill="#0a321e"/>
<polygon points="407.83,145.01 419.10,149.12 407.83,153.22 396.55,149.12" fill="#0e4429"/>
<polygon points="396.55,162.12 396.55,149.12 407.83,153.22 407.83,166.22" fill="#0c3b24"/>
<polygon points="407.83,166.22 407.83,153.22 419.10,149.12 419.10,162.12" fill="#0a321e"/>
<polygon points="434.14,142.01 445.41,146.12 434.14,150.22 422.86,146.12" fill="#0e4429"/>
<polygon points="422.86,162.12 422.86,146.12 434.14,150.22 434.14,166.22" fill="#0c3b24"/>
<polygon points="434.14,166.22 434.14,150.22 445.41,146.12 445.41,162.12" fill="#0a321e"/>
<polygon points="447.29,162.80 458.57,166.91 447.29,171.01 436.02,166.91" fill="#161b22"/>
<polygon points="289.43,151.80 300.70,155.91 289.43,160.01 278.15,155.91" fill="#0e4429"/>
<polygon points="278.15,166.91 278.15,155.91 289.43,160.01 289.43,171.01" fill="#0c3b24"/>
<polygon points="289.43,171.01 289.43,160.01 300.70,155.91 300.70,166.91" fill="#0a321e"/>
<polygon points="315.74,148.80 327.01,152.91 315.74,157.01 304.46,152.91" fill="#0e4429"/>
<polygon points="304.46,166.91 304.46,152.91 315.74,157.01 315.74,171.01" fill="#0c3b24"/>
<polygon points="315.74,171.01 315.74,157.01 327.01,152.91 327.01,166.91" fill="#0a321e"/>
<polygon points="342.05,148.80 353.32,152.91 342.05,157.01 330.77,152.91" fill="#0e4429"/>
<polygon points="330.77,166.91 330.77,152.91 342.05,157.01 342.05,171.01" fill="#0c3b24"/>
<polygon points="342.05,171.01 342.05,157.01 353.32,152.91 353.32,166.91" fill="#0a321e"/>
<polygon points="368.36,149.80 379.64,153.91 368.36,158.01 357.08,153.91" fill="#0e4429"/>
<polygon points="357.08,166.91 357.08,153.91 368.36,158.01 368.36,171.01" fill="#0c3b24"/>
<polygon points="368.36,171.01 368.36,158.01 379.64,153.91 379.64,166.91" fill="#0a321e"/>
<polygon points="394.67,148.80 405.95,152.91 394.67,157.01 383.39,152.91" fill="#0e4429"/>
<polygon points="383.39,166.91 383.39,152.91 394.67,157.01 394.67,171.01" fill="#0c3b24"/>
<polygon points="394.67,171.01 394.67,157.01 405.95,152.91 405.95,166.91" fill="#0a321e"/>
<polygon points="420.98,154.80 432.26,158.91 420.98,163.01 409.71,158.91" fill="#0e4429"/>
<polygon points="409.71,166.91 409.71,158.91 420.98,163.01 420.98,171.01" fill="#0c3b24"/>
<polygon points="420.98,171.01 420.98,163.01 432.26,158.91 432.26,166.91" fill="#0a321e"/>
<polygon points="302.58,167.59 313.86,171.69 302.58,175.80 291.30,171.69" fill="#161b22"/>
<polygon points="355.20,167.59 366.48,171.69 355.20,175.80 343.93,171.69" fill="#161b22"/>
<polygon points="460.45,167.59 471.73,171.69 460.45,175.80 449.17,171.69" fill="#161b22"/>
<polygon points="328.89,153.59 340.17,157.69 328.89,161.80 317.62,157.69" fill="#0e4429"/>
<polygon points="317.62,171.69 317.62,157.69 328.89,161.80 328.89,175.80" fill="#0c3b24"/>
<polygon points="328.89,175.80 328.89,161.80 340.17,157.69 340.17,171.69" fill="#0a321e"/>
<polygon points="381.52,152.59 392.79,156.69 381.52,160.80 370.24,156.69" fill="#0e4429"/>
<polygon points="370.24,171.69 370.24,156.69 381.52,160.80 381.52,175.80" fill="#0c3b24"/>
<polygon points="381.52,175.80 381.52,160.80 392.79,156.69 392.79,171.69" fill="#0a321e"/>
<polygon points="407.83,153.59 419.10,157.69 407.83,161.80 396.55,157.69" fill="#0e4429"/>
<polygon points="396.55,171.69 396.55,157.69 407.83,161.80 407.83,175.80" fill="#0c3b24"/>
<polygon points="407.83,175.80 407.83,161.80 419.10,157.69 419.10,171.69" fill="#0a321e"/>
<polygon points="434.14,153.59 445.41,157.69 434.14,161.80 422.86,157.69" fill="#0e4429"/>
<polygon points="422.86,171.69 422.86,157.69 434.14,161.80 434.14,175.80" fill="#0c3b24"/>
<polygon points="434.14,175.80 434.14,161.80 445.41,157.69 445.41,171.69" fill="#0a321e"/>
<polygon points="315.74,172.38 327.01,176.48 315.74,180.59 304.46,176.48" fill="#161b22"/>
<polygon points="473.61,172.38 484.88,176.48 473.61,180.59 462.33,176.48" fill="#161b22"/>
<polygon points="342.05,164.38 353.32,168.48 342.05,172.59 330.77,168.48" fill="#0e4429"/>
<polygon points="330.77,176.48 330.77,168.48 342.05,172.59 342.05,180.59" fill="#0c3b24"/>
<polygon points="342.05,180.59 342.05,172.59 353.32,168.48 353.32,176.48" fill="#0a321e"/>
<polygon points="368.36,159.38 379.64,163.48 368.36,167.59 357.08,163.48" fill="#0e4429"/>
<polygon points="357.08,176.48 357.08,163.48 368.36,167.59 368.36,180.59" fill="#0c3b24"/>
<polygon points="368.36,180.59 368.36,167.59 379.64,163.48 379.64,176.48" fill="#0a321e"/>
<polygon points="394.67,164.38 405.95,168.48 394.67,172.59 383.39,168.48" fill="#0e4429"/>
<polygon points="383.39,176.48 383.39,168.48 394.67,172.59 394.67,180.59" fill="#0c3b24"/>
<polygon points="394.67,180.59 394.67,172.59 405.95,168.48 405.95,176.48" fill="#0a321e"/>
<polygon points="420.98,159.38 432.26,163.48 420.98,167.59 409.71,163.48" fill="#0e4429"/>
<polygon points="409.71,176.48 409.71,163.48 420.98,167.59 420.98,180.59" fill="#0c3b24"/>
<polygon points="420.98,180.59 420.98,167.59 432.26,163.48 432.26,176.48" fill="#0a321e"/>
<polygon points="447.29,157.38 458.57,161.48 447.29,165.59 436.02,161.48" fill="#0e4429"/>
<polygon points="436.02,176.48 436.02,161.48 447.29,165.59 447.29,180.59" fill="#0c3b24"/>
<polygon points="447.29,180.59 447.29,165.59 458.57,161.48 458.57,176.48" fill="#0a321e"/>
<polygon points="381.52,177.17 392.79,181.27 381.52,185.37 370.24,181.27" fill="#161b22"/>
<polygon points="460.45,177.17 471.73,181.27 460.45,185.37 449.17,181.27" fill="#161b22"/>
<polygon points="486.76,177.17 498.04,181.27 486.76,185.37 475.48,181.27" fill="#161b22"/>
<polygon points="328.89,164.17 340.17,168.27 328.89,172.37 317.62,168.27" fill="#0e4429"/>
<polygon points="317.62,181.27 317.62,168.27 328.89,172.37 328.89,185.37" fill="#0c3b24"/>
<polygon points="328.89,185.37 328.89,172.37 340.17,168.27 340.17,181.27" fill="#0a321e"/>
<polygon points="355.20,164.17 366.48,168.27 355.20,172.37 343.93,168.27" fill="#0e4429"/>
<polygon points="343.93,181.27 343.93,168.27 355.20,172.37 355.20,185.37" fill="#0c3b24"/>
<polygon points="355.20,185.37 355.20,172.37 366.48,168.27 366.48,181.27" fill="#0a321e"/>
<polygon points="407.83,163.17 419.10,167.27 407.83,171.37 396.55,167.27" fill="#0e4429"/>
<polygon points="396.55,181.27 396.55,167.27 407.83,171.37 407.83,185.37" fill="#0c3b24"/>
<polygon points="407.83,185.37 407.83,171.37 419.10,167.27 419.10,181.27" fill="#0a321e"/>
<polygon points="434.14,159.17 445.41,163.27 434.14,167.37 422.86,163.27" fill="#006d32"/>
<polygon points="422.86,181.27 422.86,163.27 434.14,167.37 434.14,185.37" fill="#005f2c"/>
<polygon points="434.14,185.37 434.14,167.37 445.41,163.27 445.41,181.27" fill="#005025"/>
<polygon points="342.05,181.95 353.32,186.06 342.05,190.16 330.77,186.06" fill="#161b22"/>
<polygon points="368.36,181.95 379.64,186.06 368.36,190.16 357.08,186.06" fill="#161b22"/>
<polygon points="394.67,181.95 405.95,186.06 394.67,190.16 383.39,186.06" fill="#161b22"/>
<polygon points="420.98,165.95 432.26,170.06 420.98,174.16 409.71,170.06" fill="#0e4429"/>
<polygon points="409.71,186.06 409.71,170.06 420.98,174.16 420.98,190.16" fill="#0c3b24"/>
<polygon points="420.98,190.16 420.98,174.16 432.26,170.06 432.26,186.06" fill="#0a321e"/>
<polygon points="447.29,168.95 458.57,173.06 447.29,177.16 436.02,173.06" fill="#0e4429"/>
<polygon points="436.02,186.06 436.02,173.06 447.29,177.16 447.29,190.16" fill="#0c3b24"/>
<polygon points="447.29,190.16 447.29,177.16 458.57,173.06 458.57,186.06" fill="#0a321e"/>
<polygon points="473.61,168.95 484.88,173.06 473.61,177.16 462.33,173.06" fill="#0e4429"/>
<polygon points="462.33,186.06 462.33,173.06 473.61,177.16 473.61,190.16" fill="#0c3b24"/>
<polygon points="473.61,190.16 473.61,177.16 484.88,173.06 484.88,186.06" fill="#0a321e"/>
<polygon points="499.92,165.95 511.19,170.06 499.92,174.16 488.64,170.06" fill="#0e4429"/>
<polygon points="488.64,186.06 488.64,170.06 499.92,174.16 499.92,190.16" fill="#0c3b24"/>
<polygon points="499.92,190.16 499.92,174.16 511.19,170.06 511.19,186.06" fill="#0a321e"/>
<polygon points="355.20,186.74 366.48,190.85 355.20,194.95 343.93,190.85" fill="#161b22"/>
<polygon points="513.07,186.74 524.35,190.85 513.07,194.95 501.80,190.85" fill="#161b22"/>
<polygon points="381.52,178.74 392.79,182.85 381.52,186.95 370.24,182.85" fill="#0e4429"/>
<polygon points="370.24,190.85 370.24,182.85 381.52,186.95 381.52,194.95" fill="#0c3b24"/>
<polygon points="381.52,194.95 381.52,186.95 392.79,182.85 392.79,190.85" fill="#0a321e"/>
<polygon points="407.83,172.74 419.10,176.85 407.83,180.95 396.55,176.85" fill="#0e4429"/>
<polygon points="396.55,190.85 396.55,176.85 407.83,180.95 407.83,194.95" fill="#0c3b24"/>
<polygon points="407.83,194.95 407.83,180.95 419.10,176.85 419.10,190.85" fill="#0a321e"/>
<polygon points="434.14,173.74 445.41,177.85 434.14,181.95 422.86,177.85" fill="#0e4429"/>
<polygon points="422.86,190.85 422.86,177.85 434.14,181.95 434.14,194.95" fill="#0c3b24"/>
<polygon points="434.14,194.95 434.14,181.95 445.41,177.85 445.41,190.85" fill="#0a321e"/>
<polygon points="460.45,175.74 471.73,179.85 460.45,183.95 449.17,179.85" fill="#0e4429"/>
<polygon points="449.17,190.85 449.17,179.85 460.45,183.95 460.45,194.95" fill="#0c3b24"/>
<polygon points="460.45,194.95 460.45,183.95 471.73,179.85 471.73,190.85" fill="#0a321e"/>
<polygon points="486.76,170.74 498.04,174.85 486.76,178.95 475.48,174.85" fill="#0e4429"/>
<polygon points="475.48,190.85 475.48,174.85 486.76,178.95 486.76,194.95" fill="#0c3b24"/>
<polygon points="486.76,194.95 486.76,178.95 498.04,174.85 498.04,190.85" fill="#0a321e"/>
<polygon points="368.36,191.53 379.64,195.64 368.36,199.74 357.08,195.64" fill="#161b22"/>
<polygon points="473.61,191.53 484.88,195.64 473.61,199.74 462.33,195.64" fill="#161b22"/>
<polygon points="499.92,191.53 511.19,195.64 499.92,199.74 488.64,195.64" fill="#161b22"/>
<polygon points="394.67,175.53 405.95,179.64 394.67,183.74 383.39,179.64" fill="#0e4429"/>
<polygon points="383.39,195.64 383.39,179.64 394.67,183.74 394.67,199.74" fill="#0c3b24"/>
<polygon points="394.67,199.74 394.67,183.74 405.95,179.64 405.95,195.64" fill="#0a321e"/>
<polygon points="420.98,175.53 432.26,179.64 420.98,183.74 409.71,179.64" fill="#0e4429"/>
<polygon points="409.71,195.64 409.71,179.64 420.98,183.74 420.98,199.74" fill="#0c3b24"/>
<polygon points="420.98,199.74 420.98,183.74 432.26,179.64 432.26,195.64" fill="#0a321e"/>
<polygon points="447.29,180.53 458.57,184.64 447.29,188.74 436.02,184.64" fill="#0e4429"/>
<polygon points="436.02,195.64 436.02,184.64 447.29,188.74 447.29,199.74" fill="#0c3b24"/>
<polygon points="447.29,199.74 447.29,188.74 458.57,184.64 458.57,195.64" fill="#0a321e"/>
<polygon points="526.23,183.53 537.50,187.64 526.23,191.74 514.95,187.64" fill="#0e4429"/>
<polygon points="514.95,195.64 514.95,187.64 526.23,191.74 526.23,199.74" fill="#0c3b24"/>
<polygon points="526.23,199.74 526.23,191.74 537.50,187.64 537.50,195.64" fill="#0a321e"/>
<polygon points="381.52,196.32 392.79,200.42 381.52,204.53 370.24,200.42" fill="#161b22"/>
<polygon points="539.38,196.32 550.66,200.42 539.38,204.53 528.11,200.42" fill="#161b22"/>
<polygon points="407.83,182.32 419.10,186.42 407.83,190.53 396.55,186.42" fill="#0e4429"/>
<polygon points="396.55,200.42 396.55,186.42 407.83,190.53 407.83,204.53" fill="#0c3b24"/>
<polygon points="407.83,204.53 407.83,190.53 419.10,186.42 419.10,200.42" fill="#0a321e"/>
<polygon points="460.45,188.32 471.73,192.42 460.45,196.53 449.17,192.42" fill="#0e4429"/>
<polygon points="449.17,200.42 449.17,192.42 460.45,196.53 460.45,204.53" fill="#0c3b24"/>
<polygon points="460.45,204.53 460.45,196.53 471.73,192.42 471.73,200.42" fill="#0a321e"/>
<polygon points="486.76,182.32 498.04,186.42 486.76,190.53 475.48,186.42" fill="#0e4429"/>
<polygon points="475.48,200.42 475.48,186.42 486.76,190.53 486.76,204.53" fill="#0c3b24"/>
<polygon points="486.76,204.53 486.76,190.53 498.04,186.42 498.04,200.42" fill="#0a321e"/>
<polygon points="513.07,188.32 524.35,192.42 513.07,196.53 501.80,192.42" fill="#0e4429"/>
<polygon points="501.80,200.42 501.80,192.42 513.07,196.53 513.07,204.53" fill="#0c3b24"/>
<polygon points="513.07,204.53 513.07,196.53 524.35,192.42 524.35,200.42" fill="#0a321e"/>
<polygon points="434.14,178.32 445.41,182.42 434.14,186.53 422.86,182.42" fill="#39d353"/>
<polygon points="422.86,200.42 422.86,182.42 434.14,186.53 434.14,204.53" fill="#32b949"/>
<polygon points="434.14,204.53 434.14,186.53 445.41,182.42 445.41,200.42" fill="#2a9c3d"/>
<polygon points="394.67,201.11 405.95,205.21 394.67,209.32 383.39,205.21" fill="#161b22"/>
<polygon points="447.29,201.11 458.57,205.21 447.29,209.32 436.02,205.21" fill="#161b22"/>
<polygon points="499.92,201.11 511.19,205.21 499.92,209.32 488.64,205.21" fill="#161b22"/>
<polygon points="552.54,193.11 563.82,197.21 552.54,201.32 541.26,197.21" fill="#0e4429"/>
<polygon points="541.26,205.21 541.26,197.21 552.54,201.32 552.54,209.32" fill="#0c3b24"/>
<polygon points="552.54,209.32 552.54,201.32 563.82,197.21 563.82,205.21" fill="#0a321e"/>
<polygon points="420.98,183.11 432.26,187.21 420.98,191.32 409.71,187.21" fill="#006d32"/>
<polygon points="409.71,205.21 409.71,187.21 420.98,191.32 420.98,209.32" fill="#005f2c"/>
<polygon points="420.98,209.32 420.98,191.32 432.26,187.21 432.26,205.21" fill="#005025"/>
<polygon points="473.61,183.11 484.88,187.21 473.61,191.32 462.33,187.21" fill="#006d32"/>
<polygon points="462.33,205.21 462.33,187.21 473.61,191.32 473.61,209.32" fill="#005f2c"/>
<polygon points="473.61,209.32 473.61,191.32 484.88,187.21 484.88,205.21" fill="#005025"/>
<polygon points="526.23,184.11 537.50,188.21 526.23,192.32 514.95,188.21" fill="#006d32"/>
<polygon points="514.95,205.21 514.95,188.21 526.23,192.32 526.23,209.32" fill="#005f2c"/>
<polygon points="526.23,209.32 526.23,192.32 537.50,188.21 537.50,205.21" fill="#005025"/>
<polygon points="434.14,205.90 445.41,210.00 434.14,214.10 422.86,210.00" fill="#161b22"/>
<polygon points="460.45,205.90 471.73,210.00 460.45,214.10 449.17,210.00" fill="#161b22"/>
<polygon points="565.69,205.90 576.97,210.00 565.69,214.10 554.42,210.00" fill="#161b22"/>
<polygon points="407.83,189.90 419.10,194.00 407.83,198.10 396.55,194.00" fill="#0e4429"/>
<polygon points="396.55,210.00 396.55,194.00 407.83,198.10 407.83,214.10" fill="#0c3b24"/>
<polygon points="407.83,214.10 407.83,198.10 419.10,194.00 419.10,210.00" fill="#0a321e"/>
<polygon points="486.76,194.90 498.04,199.00 486.76,203.10 475.48,199.00" fill="#0e4429"/>
<polygon points="475.48,210.00 475.48,199.00 486.76,203.10 486.76,214.10" fill="#0c3b24"/>
<polygon points="486.76,214.10 486.76,203.10 498.04,199.00 498.04,210.00" fill="#0a321e"/>
<polygon points="513.07,197.90 524.35,202.00 513.07,206.10 501.80,202.00" fill="#0e4429"/>
<polygon points="501.80,210.00 501.80,202.00 513.07,206.10 513.07,214.10" fill="#0c3b24"/>
<polygon points="513.07,214.10 513.07,206.10 524.35,202.00 524.35,210.00" fill="#0a321e"/>
<polygon points="539.38,197.90 550.66,202.00 539.38,206.10 528.11,202.00" fill="#0e4429"/>
<polygon points="528.11,210.00 528.11,202.00 539.38,206.10 539.38,214.10" fill="#0c3b24"/>
<polygon points="539.38,214.10 539.38,206.10 550.66,202.00 550.66,210.00" fill="#0a321e"/>
<polygon points="420.98,210.68 432.26,214.79 420.98,218.89 409.71,214.79" fill="#161b22"/>
<polygon points="526.23,210.68 537.50,214.79 526.23,218.89 514.95,214.79" fill="#161b22"/>
<polygon points="552.54,210.68 563.82,214.79 552.54,218.89 541.26,214.79" fill="#161b22"/>
<polygon points="447.29,202.68 458.57,206.79 447.29,210.89 436.02,206.79" fill="#0e4429"/>
<polygon points="436.02,214.79 436.02,206.79 447.29,210.89 447.29,218.89" fill="#0c3b24"/>
<polygon points="447.29,218.89 447.29,210.89 458.57,206.79 458.57,214.79" fill="#0a321e"/>
<polygon points="473.61,199.68 484.88,203.79 473.61,207.89 462.33,203.79" fill="#0e4429"/>
<polygon points="462.33,214.79 462.33,203.79 473.61,207.89 473.61,218.89" fill="#0c3b24"/>
<polygon points="473.61,218.89 473.61,207.89 484.88,203.79 484.88,214.79" fill="#0a321e"/>
<polygon points="499.92,199.68 511.19,203.79 499.92,207.89 488.64,203.79" fill="#0e4429"/>
<polygon points="488.64,214.79 488.64,203.79 499.92,207.89 499.92,218.89" fill="#0c3b24"/>
<polygon points="499.92,218.89 499.92,207.89 511.19,203.79 511.19,214.79" fill="#0a321e"/>
<polygon points="578.85,194.68 590.13,198.79 578.85,202.89 567.57,198.79" fill="#0e4429"/>
<polygon points="567.57,214.79 567.57,198.79 578.85,202.89 578.85,218.89" fill="#0c3b24"/>
<polygon points="578.85,218.89 578.85,202.89 590.13,198.79 590.13,214.79" fill="#0a321e"/>
<polygon points="434.14,215.47 445.41,219.58 434.14,223.68 422.86,219.58" fill="#161b22"/>
<polygon points="460.45,215.47 471.73,219.58 460.45,223.68 449.17,219.58" fill="#161b22"/>
<polygon points="486.76,215.47 498.04,219.58 486.76,223.68 475.48,219.58" fill="#161b22"/>
<polygon points="513.07,215.47 524.35,219.58 513.07,223.68 501.80,219.58" fill="#161b22"/>
<polygon points="539.38,215.47 550.66,219.58 539.38,223.68 528.11,219.58" fill="#161b22"/>
<polygon points="592.01,215.47 603.28,219.58 592.01,223.68 580.73,219.58" fill="#161b22"/>
<polygon points="565.69,199.47 576.97,203.58 565.69,207.68 554.42,203.58" fill="#0e4429"/>
<polygon points="554.42,219.58 554.42,203.58 565.69,207.68 565.69,223.68" fill="#0c3b24"/>
<polygon points="565.69,223.68 565.69,207.68 576.97,203.58 576.97,219.58" fill="#0a321e"/>
<polygon points="447.29,220.26 458.57,224.37 447.29,228.47 436.02,224.37" fill="#161b22"/>
<polygon points="473.61,220.26 484.88,224.37 473.61,228.47 462.33,224.37" fill="#161b22"/>
<polygon points="499.92,220.26 511.19,224.37 499.92,228.47 488.64,224.37" fill="#161b22"/>
<polygon points="526.23,220.26 537.50,224.37 526.23,228.47 514.95,224.37" fill="#161b22"/>
<polygon points="605.16,220.26 616.44,224.37 605.16,228.47 593.89,224.37" fill="#161b22"/>
<polygon points="552.54,209.26 563.82,213.37 552.54,217.47 541.26,213.37" fill="#0e4429"/>
<polygon points="541.26,224.37 541.26,213.37 552.54,217.47 552.54,228.47" fill="#0c3b24"/>
<polygon points="552.54,228.47 552.54,217.47 563.82,213.37 563.82,224.37" fill="#0a321e"/>
<polygon points="578.85,212.26 590.13,216.37 578.85,220.47 567.57,216.37" fill="#0e4429"/>
<polygon points="567.57,224.37 567.57,216.37 578.85,220.47 578.85,228.47" fill="#0c3b24"/>
<polygon points="578.85,228.47 578.85,220.47 590.13,216.37 590.13,224.37" fill="#0a321e"/>
<polygon points="460.45,225.05 471.73,229.15 460.45,233.26 449.17,229.15" fill="#161b22"/>
<polygon points="486.76,225.05 498.04,229.15 486.76,233.26 475.48,229.15" fill="#161b22"/>
<polygon points="513.07,225.05 524.35,229.15 513.07,233.26 501.80,229.15" fill="#161b22"/>
<polygon points="539.38,225.05 550.66,229.15 539.38,233.26 528.11,229.15" fill="#161b22"/>
<polygon points="565.69,217.05 576.97,221.15 565.69,225.26 554.42,221.15" fill="#0e4429"/>
<polygon points="554.42,229.15 554.42,221.15 565.69,225.26 565.69,233.26" fill="#0c3b24"/>
<polygon points="565.69,233.26 565.69,225.26 576.97,221.15 576.97,229.15" fill="#0a321e"/>
<polygon points="592.01,212.05 603.28,216.15 592.01,220.26 580.73,216.15" fill="#0e4429"/>
<polygon points="580.73,229.15 580.73,216.15 592.01,220.26 592.01,233.26" fill="#0c3b24"/>
<polygon points="592.01,233.26 592.01,220.26 603.28,216.15 603.28,229.15" fill="#0a321e"/>
<polygon points="618.32,208.05 629.59,212.15 618.32,216.26 607.04,212.15" fill="#006d32"/>
<polygon points="607.04,229.15 607.04,212.15 618.32,216.26 618.32,233.26" fill="#005f2c"/>
<polygon points="618.32,233.26 618.32,216.26 629.59,212.15 629.59,229.15" fill="#005025"/>
<polygon points="473.61,229.84 484.88,233.94 473.61,238.05 462.33,233.94" fill="#161b22"/>
<polygon points="499.92,229.84 511.19,233.94 499.92,238.05 488.64,233.94" fill="#161b22"/>
<polygon points="631.47,229.84 642.75,233.94 631.47,238.05 620.20,233.94" fill="#161b22"/>
<polygon points="526.23,213.84 537.50,217.94 526.23,222.05 514.95,217.94" fill="#0e4429"/>
<polygon points="514.95,233.94 514.95,217.94 526.23,222.05 526.23,238.05" fill="#0c3b24"/>
<polygon points="526.23,238.05 526.23,222.05 537.50,217.94 537.50,233.94" fill="#0a321e"/>
<polygon points="552.54,215.84 563.82,219.94 552.54,224.05 541.26,219.94" fill="#0e4429"/>
<polygon points="541.26,233.94 541.26,219.94 552.54,224.05 552.54,238.05" fill="#0c3b24"/>
<polygon points="552.54,238.05 552.54,224.05 563.82,219.94 563.82,233.94" fill="#0a321e"/>
<polygon points="605.16,221.84 616.44,225.94 605.16,230.05 593.89,225.94" fill="#0e4429"/>
<polygon points="593.89,233.94 593.89,225.94 605.16,230.05 605.16,238.05" fill="#0c3b24"/>
<polygon points="605.16,238.05 605.16,230.05 616.44,225.94 616.44,233.94" fill="#0a321e"/>
<polygon points="578.85,211.84 590.13,215.94 578.85,220.05 567.57,215.94" fill="#26a641"/>
<polygon points="567.57,233.94 567.57,215.94 578.85,220.05 578.85,238.05" fill="#219239"/>
<polygon points="578.85,238.05 578.85,220.05 590.13,215.94 590.13,233.94" fill="#1c7a30"/>
<polygon points="513.07,234.63 524.35,238.73 513.07,242.83 501.80,238.73" fill="#161b22"/>
<polygon points="539.38,234.63 550.66,238.73 539.38,242.83 528.11,238.73" fill="#161b22"/>
<polygon points="486.76,220.63 498.04,224.73 486.76,228.83 475.48,224.73" fill="#0e4429"/>
<polygon points="475.48,238.73 475.48,224.73 486.76,228.83 486.76,242.83" fill="#0c3b24"/>
<polygon points="486.76,242.83 486.76,228.83 498.04,224.73 498.04,238.73" fill="#0a321e"/>
<polygon points="592.01,221.63 603.28,225.73 592.01,229.83 580.73,225.73" fill="#0e4429"/>
<polygon points="580.73,238.73 580.73,225.73 592.01,229.83 592.01,242.83" fill="#0c3b24"/>
<polygon points="592.01,242.83 592.01,229.83 603.28,225.73 603.28,238.73" fill="#0a321e"/>
<polygon points="618.32,218.63 629.59,222.73 618.32,226.83 607.04,222.73" fill="#0e4429"/>
<polygon points="607.04,238.73 607.04,222.73 618.32,226.83 618.32,242.83" fill="#0c3b24"/>
<polygon points="618.32,242.83 618.32,226.83 629.59,222.73 629.59,238.73" fill="#0a321e"/>
<polygon points="644.63,226.63 655.91,230.73 644.63,234.83 633.35,230.73" fill="#0e4429"/>
<polygon points="633.35,238.73 633.35,230.73 644.63,234.83 644.63,242.83" fill="#0c3b24"/>
<polygon points="644.63,242.83 644.63,234.83 655.91,230.73 655.91,238.73" fill="#0a321e"/>
<polygon points="565.69,216.63 576.97,220.73 565.69,224.83 554.42,220.73" fill="#006d32"/>
<polygon points="554.42,238.73 554.42,220.73 565.69,224.83 565.69,242.83" fill="#005f2c"/>
<polygon points="565.69,242.83 565.69,224.83 576.97,220.73 576.97,238.73" fill="#005025"/>
<polygon points="499.92,239.41 511.19,243.52 499.92,247.62 488.64,243.52" fill="#161b22"/>
<polygon points="552.54,239.41 563.82,243.52 552.54,247.62 541.26,243.52" fill="#161b22"/>
<polygon points="657.78,239.41 669.06,243.52 657.78,247.62 646.51,243.52" fill="#161b22"/>
<polygon points="526.23,221.41 537.50,225.52 526.23,229.62 514.95,225.52" fill="#006d32"/>
<polygon points="514.95,243.52 514.95,225.52 526.23,229.62 526.23,247.62" fill="#005f2c"/>
<polygon points="526.23,247.62 526.23,229.62 537.50,225.52 537.50,243.52" fill="#005025"/>
<polygon points="578.85,221.41 590.13,225.52 578.85,229.62 567.57,225.52" fill="#006d32"/>
<polygon points="567.57,243.52 567.57,225.52 578.85,229.62 578.85,247.62" fill="#005f2c"/>
<polygon points="578.85,247.62 578.85,229.62 590.13,225.52 590.13,243.52" fill="#005025"/>
<polygon points="605.16,221.41 616.44,225.52 605.16,229.62 593.89,225.52" fill="#006d32"/>
<polygon points="593.89,243.52 593.89,225.52 605.16,229.62 605.16,247.62" fill="#005f2c"/>
<polygon points="605.16,247.62 605.16,229.62 616.44,225.52 616.44,243.52" fill="#005025"/>
<polygon points="631.47,221.41 642.75,225.52 631.47,229.62 620.20,225.52" fill="#006d32"/>
<polygon points="620.20,243.52 620.20,225.52 631.47,229.62 631.47,247.62" fill="#005f2c"/>
<polygon points="631.47,247.62 631.47,229.62 642.75,225.52 642.75,243.52" fill="#005025"/>
<polygon points="539.38,244.20 550.66,248.31 539.38,252.41 528.11,248.31" fill="#161b22"/>
<polygon points="513.07,236.20 524.35,240.31 513.07,244.41 501.80,240.31" fill="#0e4429"/>
<polygon points="501.80,248.31 501.80,240.31 513.07,244.41 513.07,252.41" fill="#0c3b24"/>
<polygon points="513.07,252.41 513.07,244.41 524.35,240.31 524.35,248.31" fill="#0a321e"/>
<polygon points="644.63,233.20 655.91,237.31 644.63,241.41 633.35,237.31" fill="#0e4429"/>
<polygon points="633.35,248.31 633.35,237.31 644.63,241.41 644.63,252.41" fill="#0c3b24"/>
<polygon points="644.63,252.41 644.63,241.41 655.91,237.31 655.91,248.31" fill="#0a321e"/>
<polygon points="670.94,231.20 682.22,235.31 670.94,239.41 659.66,235.31" fill="#0e4429"/>
<polygon points="659.66,248.31 659.66,235.31 670.94,239.41 670.94,252.41" fill="#0c3b24"/>
<polygon points="670.94,252.41 670.94,239.41 682.22,235.31 682.22,248.31" fill="#0a321e"/>
<polygon points="592.01,226.20 603.28,230.31 592.01,234.41 580.73,230.31" fill="#006d32"/>
<polygon points="580.73,248.31 580.73,230.31 592.01,234.41 592.01,252.41" fill="#005f2c"/>
<polygon points="592.01,252.41 592.01,234.41 603.28,230.31 603.28,248.31" fill="#005025"/>
<polygon points="565.69,226.20 576.97,230.31 565.69,234.41 554.42,230.31" fill="#26a641"/>
<polygon points="554.42,248.31 554.42,230.31 565.69,234.41 565.69,252.41" fill="#219239"/>
<polygon points="565.69,252.41 565.69,234.41 576.97,230.31 576.97,248.31" fill="#1c7a30"/>
<polygon points="618.32,226.20 629.59,230.31 618.32,234.41 607.04,230.31" fill="#26a641"/>
<polygon points="607.04,248.31 607.04,230.31 618.32,234.41 618.32,252.41" fill="#219239"/>
<polygon points="618.32,252.41 618.32,234.41 629.59,230.31 629.59,248.31" fill="#1c7a30"/>
<polygon points="552.54,248.99 563.82,253.09 552.54,257.20 541.26,253.09" fill="#161b22"/>
<polygon points="526.23,233.99 537.50,238.09 526.23,242.20 514.95,238.09" fill="#0e4429"/>
<polygon points="514.95,253.09 514.95,238.09 526.23,242.20 526.23,257.20" fill="#0c3b24"/>
<polygon points="526.23,257.20 526.23,242.20 537.50,238.09 537.50,253.09" fill="#0a321e"/>
<polygon points="578.85,233.99 590.13,238.09 578.85,242.20 567.57,238.09" fill="#0e4429"/>
<polygon points="567.57,253.09 567.57,238.09 578.85,242.20 578.85,257.20" fill="#0c3b24"/>
<polygon points="578.85,257.20 578.85,242.20 590.13,238.09 590.13,253.09" fill="#0a321e"/>
<polygon points="605.16,232.99 616.44,237.09 605.16,241.20 593.89,237.09" fill="#0e4429"/>
<polygon points="593.89,253.09 593.89,237.09 605.16,241.20 605.16,257.20" fill="#0c3b24"/>
<polygon points="605.16,257.20 605.16,241.20 616.44,237.09 616.44,253.09" fill="#0a321e"/>
<polygon points="684.10,237.99 695.37,242.09 684.10,246.20 672.82,242.09" fill="#0e4429"/>
<polygon points="672.82,253.09 672.82,242.09 684.10,246.20 684.10,257.20" fill="#0c3b24"/>
<polygon points="684.10,257.20 684.10,246.20 695.37,242.09 695.37,253.09" fill="#0a321e"/>
<polygon points="631.47,231.99 642.75,236.09 631.47,240.20 620.20,236.09" fill="#006d32"/>
<polygon points="620.20,253.09 620.20,236.09 631.47,240.20 631.47,257.20" fill="#005f2c"/>
<polygon points="631.47,257.20 631.47,240.20 642.75,236.09 642.75,253.09" fill="#005025"/>
<polygon points="657.78,230.99 669.06,235.09 657.78,239.20 646.51,235.09" fill="#006d32"/>
<polygon points="646.51,253.09 646.51,235.09 657.78,239.20 657.78,257.20" fill="#005f2c"/>
<polygon points="657.78,257.20 657.78,239.20 669.06,235.09 669.06,253.09" fill="#005025"/>
<polygon points="539.38,253.78 550.66,257.88 539.38,261.99 528.11,257.88" fill="#161b22"/>
<polygon points="565.69,253.78 576.97,257.88 565.69,261.99 554.42,257.88" fill="#161b22"/>
<polygon points="592.01,253.78 603.28,257.88 592.01,261.99 580.73,257.88" fill="#161b22"/>
<polygon points="644.63,253.78 655.91,257.88 644.63,261.99 633.35,257.88" fill="#161b22"/>
<polygon points="670.94,237.78 682.22,241.88 670.94,245.99 659.66,241.88" fill="#0e4429"/>
<polygon points="659.66,257.88 659.66,241.88 670.94,245.99 670.94,261.99" fill="#0c3b24"/>
<polygon points="670.94,261.99 670.94,245.99 682.22,241.88 682.22,257.88" fill="#0a321e"/>
<polygon points="618.32,235.78 629.59,239.88 618.32,243.99 607.04,239.88" fill="#006d32"/>
<polygon points="607.04,257.88 607.04,239.88 618.32,243.99 618.32,261.99" fill="#005f2c"/>
<polygon points="618.32,261.99 618.32,243.99 629.59,239.88 629.59,257.88" fill="#005025"/>
<polygon points="552.54,258.57 563.82,262.67 552.54,266.78 541.26,262.67" fill="#161b22"/>
<polygon points="578.85,244.57 590.13,248.67 578.85,252.78 567.57,248.67" fill="#0e4429"/>
<polygon points="567.57,262.67 567.57,248.67 578.85,252.78 578.85,266.78" fill="#0c3b24"/>
<polygon points="578.85,266.78 578.85,252.78 590.13,248.67 590.13,262.67" fill="#0a321e"/>
<polygon points="605.16,250.57 616.44,254.67 605.16,258.78 593.89,254.67" fill="#0e4429"/>
<polygon points="593.89,262.67 593.89,254.67 605.16,258.78 605.16,266.78" fill="#0c3b24"/>
<polygon points="605.16,266.78 605.16,258.78 616.44,254.67 616.44,262.67" fill="#0a321e"/>
<polygon points="631.47,243.57 642.75,247.67 631.47,251.78 620.20,247.67" fill="#0e4429"/>
<polygon points="620.20,262.67 620.20,247.67 631.47,251.78 631.47,266.78" fill="#0c3b24"/>
<polygon points="631.47,266.78 631.47,251.78 642.75,247.67 642.75,262.67" fill="#0a321e"/>
<polygon points="657.78,250.57 669.06,254.67 657.78,258.78 646.51,254.67" fill="#0e4429"/>
<polygon points="646.51,262.67 646.51,254.67 657.78,258.78 657.78,266.78" fill="#0c3b24"/>
<polygon points="657.78,266.78 657.78,258.78 669.06,254.67 669.06,262.67" fill="#0a321e"/>
<polygon points="618.32,263.36 629.59,267.46 618.32,271.56 607.04,267.46" fill="#161b22"/>
<polygon points="565.69,252.36 576.97,256.46 565.69,260.56 554.42,256.46" fill="#0e4429"/>
<polygon points="554.42,267.46 554.42,256.46 565.69,260.56 565.69,271.56" fill="#0c3b24"/>
<polygon points="565.69,271.56 565.69,260.56 576.97,256.46 576.97,267.46" fill="#0a321e"/>
<polygon points="592.01,252.36 603.28,256.46 592.01,260.56 580.73,256.46" fill="#0e4429"/>
<polygon points="580.73,267.46 580.73,256.46 592.01,260.56 592.01,271.56" fill="#0c3b24"/>
<polygon points="592.01,271.56 592.01,260.56 603.28,256.46 603.28,267.46" fill="#0a321e"/>
<polygon points="644.63,255.36 655.91,259.46 644.63,263.56 633.35,259.46" fill="#0e4429"/>
<polygon points="633.35,267.46 633.35,259.46 644.63,263.56 644.63,271.56" fill="#0c3b24"/>
<polygon points="644.63,271.56 644.63,263.56 655.91,259.46 655.91,267.46" fill="#0a321e"/>
<polygon points="578.85,252.14 590.13,256.25 578.85,260.35 567.57,256.25" fill="#0e4429"/>
<polygon points="567.57,272.25 567.57,256.25 578.85,260.35 578.85,276.35" fill="#0c3b24"/>
<polygon points="578.85,276.35 578.85,260.35 590.13,256.25 590.13,272.25" fill="#0a321e"/>
<polygon points="605.16,254.14 616.44,258.25 605.16,262.35 593.89,258.25" fill="#0e4429"/>
<polygon points="593.89,272.25 593.89,258.25 605.16,262.35 605.16,276.35" fill="#0c3b24"/>
<polygon points="605.16,276.35 605.16,262.35 616.44,258.25 616.44,272.25" fill="#0a321e"/>
<polygon points="631.47,253.14 642.75,257.25 631.47,261.35 620.20,257.25" fill="#0e4429"/>
<polygon points="620.20,272.25 620.20,257.25 631.47,261.35 631.47,276.35" fill="#0c3b24"/>
<polygon points="631.47,276.35 631.47,261.35 642.75,257.25 642.75,272.25" fill="#0a321e"/>
<polygon points="618.32,272.93 629.59,277.04 618.32,281.14 607.04,277.04" fill="#161b22"/>
<polygon points="592.01,254.93 603.28,259.04 592.01,263.14 580.73,259.04" fill="#006d32"/>
<polygon points="580.73,277.04 580.73,259.04 592.01,263.14 592.01,281.14" fill="#005f2c"/>
<polygon points="592.01,281.14 592.01,263.14 603.28,259.04 603.28,277.04" fill="#005025"/>
<text x="697.25" y="14.00" text-anchor="end" font-family='-apple-system, BlinkMacSystemFont, "Segoe UI", Helvetica, Arial, sans-serif' font-size="34" font-weight="700" fill="#39d353">909</text>
<text x="697.25" y="26.00" text-anchor="end" font-family='-apple-system, BlinkMacSystemFont, "Segoe UI", Helvetica, Arial, sans-serif' font-size="10" fill="#7d8590" letter-spacing="0.8">TOTAL CONTRIBUTIONS</text>
<rect x="-92.09" y="221.20" width="12" height="18.10" rx="1" fill="#006d32"/>
<text x="-86.09" y="257.30" text-anchor="middle" font-family='-apple-system, BlinkMacSystemFont, "Segoe UI", Helvetica, Arial, sans-serif' font-size="11" fill="#7d8590">S</text>
<rect x="-76.09" y="198.22" width="12" height="41.07" rx="1" fill="#006d32"/>
<text x="-70.09" y="257.30" text-anchor="middle" font-family='-apple-system, BlinkMacSystemFont, "Segoe UI", Helvetica, Arial, sans-serif' font-size="11" fill="#7d8590">M</text>
<rect x="-60.09" y="187.31" width="12" height="51.99" rx="1" fill="#006d32"/>
<text x="-54.09" y="257.30" text-anchor="middle" font-family='-apple-system, BlinkMacSystemFont, "Segoe UI", Helvetica, Arial, sans-serif' font-size="11" fill="#7d8590">T</text>
<rect x="-44.09" y="188.74" width="12" height="50.55" rx="1" fill="#006d32"/>
<text x="-38.09" y="257.30" text-anchor="middle" font-family='-apple-system, BlinkMacSystemFont, "Segoe UI", Helvetica, Arial, sans-serif' font-size="11" fill="#7d8590">W</text>
<rect x="-28.09" y="185.30" width="12" height="54.00" rx="1" fill="#39d353"/>
<text x="-22.09" y="257.30" text-anchor="middle" font-family='-apple-system, BlinkMacSystemFont, "Segoe UI", Helvetica, Arial, sans-serif' font-size="11" fill="#7d8590">T</text>
<rect x="-12.09" y="207.99" width="12" height="31.31" rx="1" fill="#006d32"/>
<text x="-6.09" y="257.30" text-anchor="middle" font-family='-apple-system, BlinkMacSystemFont, "Segoe UI", Helvetica, Arial, sans-serif' font-size="11" fill="#7d8590">F</text>
<rect x="3.91" y="225.22" width="12" height="14.07" rx="1" fill="#006d32"/>
<text x="9.91" y="257.30" text-anchor="middle" font-family='-apple-system, BlinkMacSystemFont, "Segoe UI", Helvetica, Arial, sans-serif' font-size="11" fill="#7d8590">S</text>
<text x="-92.09" y="277.30" font-family='-apple-system, BlinkMacSystemFont, "Segoe UI", Helvetica, Arial, sans-serif' font-size="12" fill="#7d8590" letter-spacing="0.3">Most active days</text>
<text x="-92.09" y="293.30" font-family='-apple-system, BlinkMacSystemFont, "Segoe UI", Helvetica, Arial, sans-serif' font-size="9" fill="#7d8590">Data pulled daily from GitHub.</text>
<text x="-92.09" y="303.30" font-family='-apple-system, BlinkMacSystemFont, "Segoe UI", Helvetica, Arial, sans-serif' font-size="9" fill="#7d8590">Rolling last-12-month activity.</text>
</svg>