<svg xmlns="http://www.w3.org/2000/svg" viewBox="-96.86 -19.00 790.83 339.67" width="791" height="340">
<polygon points="12.98,-1.76 24.11,2.74 12.98,7.24 1.85,2.74" fill="#40c463"/>
<polygon points="1.85,9.74 1.85,2.74 12.98,7.24 12.98,14.24" fill="#38ac57"/>
<polygon points="12.98,14.24 12.98,7.24 24.11,2.74 24.11,9.74" fill="#2f9149"/>
<polygon points="25.96,6.49 37.09,10.98 25.96,15.48 14.83,10.98" fill="#9be9a8"/>
<polygon points="14.83,14.98 14.83,10.98 25.96,15.48 25.96,19.48" fill="#88cd93"/>
<polygon points="25.96,19.48 25.96,15.48 37.09,10.98 37.09,14.98" fill="#72ac7c"/>
<polygon points="0.00,-2.51 11.13,1.98 0.00,6.48 -11.13,1.98" fill="#216e39"/>
<polygon points="-11.13,14.98 -11.13,1.98 0.00,6.48 0.00,19.48" fill="#1d6032"/>
<polygon points="0.00,19.48 0.00,6.48 11.13,1.98 11.13,14.98" fill="#18512a"/>
<polygon points="-12.98,14.73 -1.85,19.23 -12.98,23.72 -24.11,19.23" fill="#ebedf0"/>
<polygon points="-24.11,20.23 -24.11,19.23 -12.98,23.72 -12.98,24.72" fill="#ced0d3"/>
<polygon points="-12.98,24.72 -12.98,23.72 -1.85,19.23 -1.85,20.23" fill="#adafb1"/>
<polygon points="38.94,14.73 50.07,19.23 38.94,23.72 27.82,19.23" fill="#ebedf0"/>
<polygon points="27.82,20.23 27.82,19.23 38.94,23.72 38.94,24.72" fill="#ced0d3"/>
<polygon points="38.94,24.72 38.94,23.72 50.07,19.23 50.07,20.23" fill="#adafb1"/>
<polygon points="12.98,8.73 24.11,13.23 12.98,17.72 1.85,13.23" fill="#40c463"/>
<polygon points="1.85,20.23 1.85,13.23 12.98,17.72 12.98,24.72" fill="#38ac57"/>
<polygon points="12.98,24.72 12.98,17.72 24.11,13.23 24.11,20.23" fill="#2f9149"/>
<polygon points="-25.96,19.98 -14.83,24.47 -25.96,28.97 -37.09,24.47" fill="#ebedf0"/>
<polygon points="-37.09,25.47 -37.09,24.47 -25.96,28.97 -25.96,29.97" fill="#ced0d3"/>
<polygon points="-25.96,29.97 -25.96,28.97 -14.83,24.47 -14.83,25.47" fill="#adafb1"/>
<polygon points="51.92,19.98 63.05,24.47 51.92,28.97 40.80,24.47" fill="#ebedf0"/>
<polygon points="40.80,25.47 40.80,24.47 51.92,28.97 51.92,29.97" fill="#ced0d3"/>
<polygon points="51.92,29.97 51.92,28.97 63.05,24.47 63.05,25.47" fill="#adafb1"/>
<polygon points="0.00,16.98 11.13,21.47 0.00,25.97 -11.13,21.47" fill="#9be9a8"/>
<polygon points="-11.13,25.47 -11.13,21.47 0.00,25.97 0.00,29.97" fill="#88cd93"/>
<polygon points="0.00,29.97 0.00,25.97 11.13,21.47 11.13,25.47" fill="#72ac7c"/>
<polygon points="25.96,16.98 37.09,21.47 25.96,25.97 14.83,21.47" fill="#9be9a8"/>
<polygon points="14.83,25.47 14.83,21.47 25.96,25.97 25.96,29.97" fill="#88cd93"/>
<polygon points="25.96,29.97 25.96,25.97 37.09,21.47 37.09,25.47" fill="#72ac7c"/>
<polygon points="-38.94,25.22 -27.82,29.72 -38.94,34.21 -50.07,29.72" fill="#ebedf0"/>
<polygon points="-50.07,30.72 -50.07,29.72 -38.94,34.21 -38.94,35.21" fill="#ced0d3"/>
<polygon points="-38.94,35.21 -38.94,34.21 -27.82,29.72 -27.82,30.72" fill="#adafb1"/>
<polygon points="-12.98,25.22 -1.85,29.72 -12.98,34.21 -24.11,29.72" fill="#ebedf0"/>
<polygon points="-24.11,30.72 -24.11,29.72 -12.98,34.21 -12.98,35.21" fill="#ced0d3"/>
<polygon points="-12.98,35.21 -12.98,34.21 -1.85,29.72 -1.85,30.72" fill="#adafb1"/>
<polygon points="12.98,25.22 24.11,29.72 12.98,34.21 1.85,29.72" fill="#ebedf0"/>
<polygon points="1.85,30.72 1.85,29.72 12.98,34.21 12.98,35.21" fill="#ced0d3"/>
<polygon points="12.98,35.21 12.98,34.21 24.11,29.72 24.11,30.72" fill="#adafb1"/>
<polygon points="38.94,25.22 50.07,29.72 38.94,34.21 27.82,29.72" fill="#ebedf0"/>
<polygon points="27.82,30.72 27.82,29.72 38.94,34.21 38.94,35.21" fill="#ced0d3"/>
<polygon points="38.94,35.21 38.94,34.21 50.07,29.72 50.07,30.72" fill="#adafb1"/>
<polygon points="-64.90,22.22 -53.78,26.72 -64.90,31.21 -76.03,26.72" fill="#9be9a8"/>
<polygon points="-76.03,30.72 -76.03,26.72 -64.90,31.21 -64.90,35.21" fill="#88cd93"/>
<polygon points="-64.90,35.21 -64.90,31.21 -53.78,26.72 -53.78,30.72" fill="#72ac7c"/>
<polygon points="64.90,22.22 76.03,26.72 64.90,31.21 53.78,26.72" fill="#9be9a8"/>
<polygon points="53.78,30.72 53.78,26.72 64.90,31.21 64.90,35.21" fill="#88cd93"/>
<polygon points="64.90,35.21 64.90,31.21 76.03,26.72 76.03,30.72" fill="#72ac7c"/>
<polygon points="-25.96,30.47 -14.83,34.96 -25.96,39.46 -37.09,34.96" fill="#ebedf0"/>
<polygon points="-37.09,35.96 -37.09,34.96 -25.96,39.46 -25.96,40.46" fill="#ced0d3"/>
<polygon points="-25.96,40.46 -25.96,39.46 -14.83,34.96 -14.83,35.96" fill="#adafb1"/>
<polygon points="25.96,30.47 37.09,34.96 25.96,39.46 14.83,34.96" fill="#ebedf0"/>
<polygon points="14.83,35.96 14.83,34.96 25.96,39.46 25.96,40.46" fill="#ced0d3"/>
<polygon points="25.96,40.46 25.96,39.46 37.09,34.96 37.09,35.96" fill="#adafb1"/>
<polygon points="51.92,30.47 63.05,34.96 51.92,39.46 40.80,34.96" fill="#ebedf0"/>
<polygon points="40.80,35.96 40.80,34.96 51.92,39.46 51.92,40.46" fill="#ced0d3"/>
<polygon points="51.92,40.46 51.92,39.46 63.05,34.96 63.05,35.96" fill="#adafb1"/>
<polygon points="77.88,30.47 89.01,34.96 77.88,39.46 66.76,34.96" fill="#ebedf0"/>
<polygon points="66.76,35.96 66.76,34.96 77.88,39.46 77.88,40.46" fill="#ced0d3"/>
<polygon points="77.88,40.46 77.88,39.46 89.01,34.96 89.01,35.96" fill="#adafb1"/>
<polygon points="-77.88,27.47 -66.76,31.96 -77.88,36.46 -89.01,31.96" fill="#9be9a8"/>
<polygon points="-89.01,35.96 -89.01,31.96 -77.88,36.46 -77.88,40.46" fill="#88cd93"/>
<polygon points="-77.88,40.46 -77.88,36.46 -66.76,31.96 -66.76,35.96" fill="#72ac7c"/>
<polygon points="-51.92,27.47 -40.80,31.96 -51.92,36.46 -63.05,31.96" fill="#9be9a8"/>
<polygon points="-63.05,35.96 -63.05,31.96 -51.92,36.46 -51.92,40.46" fill="#88cd93"/>
<polygon points="-51.92,40.46 -51.92,36.46 -40.80,31.96 -40.80,35.96" fill="#72ac7c"/>
<polygon points="0.00,27.47 11.13,31.96 0.00,36.46 -11.13,31.96" fill="#9be9a8"/>
<polygon points="-11.13,35.96 -11.13,31.96 0.00,36.46 0.00,40.46" fill="#88cd93"/>
<polygon points="0.00,40.46 0.00,36.46 11.13,31.96 11.13,35.96" fill="#72ac7c"/>
<polygon points="-64.90,35.71 -53.78,40.21 -64.90,44.70 -76.03,40.21" fill="#ebedf0"/>
<polygon points="-76.03,41.21 -76.03,40.21 -64.90,44.70 -64.90,45.70" fill="#ced0d3"/>
<polygon points="-64.90,45.70 -64.90,44.70 -53.78,40.21 -53.78,41.21" fill="#adafb1"/>
<polygon points="-12.98,35.71 -1.85,40.21 -12.98,44.70 -24.11,40.21" fill="#ebedf0"/>
<polygon points="-24.11,41.21 -24.11,40.21 -12.98,44.70 -12.98,45.70" fill="#ced0d3"/>
<polygon points="-12.98,45.70 -12.98,44.70 -1.85,40.21 -1.85,41.21" fill="#adafb1"/>
<polygon points="38.94,35.71 50.07,40.21 38.94,44.70 27.82,40.21" fill="#ebedf0"/>
<polygon points="27.82,41.21 27.82,40.21 38.94,44.70 38.94,45.70" fill="#ced0d3"/>
<polygon points="38.94,45.70 38.94,44.70 50.07,40.21 50.07,41.21" fill="#adafb1"/>
<polygon points="64.90,35.71 76.03,40.21 64.90,44.70 53.78,40.21" fill="#ebedf0"/>
<polygon points="53.78,41.21 53.78,40.21 64.90,44.70 64.90,45.70" fill="#ced0d3"/>
<polygon points="64.90,45.70 64.90,44.70 76.03,40.21 76.03,41.21" fill="#adafb1"/>
<polygon points="90.86,35.71 101.99,40.21 90.86,44.70 79.74,40.21" fill="#ebedf0"/>
<polygon points="79.74,41.21 79.74,40.21 90.86,44.70 90.86,45.70" fill="#ced0d3"/>
<polygon points="90.86,45.70 90.86,44.70 101.99,40.21 101.99,41.21" fill="#adafb1"/>
<polygon points="-38.94,29.71 -27.82,34.21 -38.94,38.70 -50.07,34.21" fill="#40c463"/>
<polygon points="-50.07,41.21 -50.07,34.21 -38.94,38.70 -38.94,45.70" fill="#38ac57"/>
<polygon points="-38.94,45.70 -38.94,38.70 -27.82,34.21 -27.82,41.21" fill="#2f9149"/>
<polygon points="12.98,26.71 24.11,31.21 12.98,35.70 1.85,31.21" fill="#30a14e"/>
<polygon points="1.85,41.21 1.85,31.21 12.98,35.70 12.98,45.70" fill="#2a8d44"/>
<polygon points="12.98,45.70 12.98,35.70 24.11,31.21 24.11,41.21" fill="#237739"/>
<polygon points="-25.96,40.96 -14.83,45.45 -25.96,49.95 -37.09,45.45" fill="#ebedf0"/>
<polygon points="-37.09,46.45 -37.09,45.45 -25.96,49.95 -25.96,50.95" fill="#ced0d3"/>
<polygon points="-25.96,50.95 -25.96,49.95 -14.83,45.45 -14.83,46.45" fill="#adafb1"/>
<polygon points="0.00,40.96 11.13,45.45 0.00,49.95 -11.13,45.45" fill="#ebedf0"/>
<polygon points="-11.13,46.45 -11.13,45.45 0.00,49.95 0.00,50.95" fill="#ced0d3"/>
<polygon points="0.00,50.95 0.00,49.95 11.13,45.45 11.13,46.45" fill="#adafb1"/>
<polygon points="25.96,40.96 37.09,45.45 25.96,49.95 14.83,45.45" fill="#ebedf0"/>
<polygon points="14.83,46.45 14.83,45.45 25.96,49.95 25.96,50.95" fill="#ced0d3"/>
<polygon points="25.96,50.95 25.96,49.95 37.09,45.45 37.09,46.45" fill="#adafb1"/>
<polygon points="51.92,40.96 63.05,45.45 51.92,49.95 40.80,45.45" fill="#ebedf0"/>
<polygon points="40.80,46.45 40.80,45.45 51.92,49.95 51.92,50.95" fill="#ced0d3"/>
<polygon points="51.92,50.95 51.92,49.95 63.05,45.45 63.05,46.45" fill="#adafb1"/>
<polygon points="103.84,40.96 114.97,45.45 103.84,49.95 92.72,45.45" fill="#ebedf0"/>
<polygon points="92.72,46.45 92.72,45.45 103.84,49.95 103.84,50.95" fill="#ced0d3"/>
<polygon points="103.84,50.95 103.84,49.95 114.97,45.45 114.97,46.45" fill="#adafb1"/>
<polygon points="-51.92,37.96 -40.80,42.45 -51.92,46.95 -63.05,42.45" fill="#9be9a8"/>
<polygon points="-63.05,46.45 -63.05,42.45 -51.92,46.95 -51.92,50.95" fill="#88cd93"/>
<polygon points="-51.92,50.95 -51.92,46.95 -40.80,42.45 -40.80,46.45" fill="#72ac7c"/>
<polygon points="77.88,37.96 89.01,42.45 77.88,46.95 66.76,42.45" fill="#9be9a8"/>
<polygon points="66.76,46.45 66.76,42.45 77.88,46.95 77.88,50.95" fill="#88cd93"/>
<polygon points="77.88,50.95 77.88,46.95 89.01,42.45 89.01,46.45" fill="#72ac7c"/>
<polygon points="-38.94,46.20 -27.82,50.70 -38.94,55.19 -50.07,50.70" fill="#ebedf0"/>
<polygon points="-50.07,51.70 -50.07,50.70 -38.94,55.19 -38.94,56.19" fill="#ced0d3"/>
<polygon points="-38.94,56.19 -38.94,55.19 -27.82,50.70 -27.82,51.70" fill="#adafb1"/>
<polygon points="-12.98,46.20 -1.85,50.70 -12.98,55.19 -24.11,50.70" fill="#ebedf0"/>
<polygon points="-24.11,51.70 -24.11,50.70 -12.98,55.19 -12.98,56.19" fill="#ced0d3"/>
<polygon points="-12.98,56.19 -12.98,55.19 -1.85,50.70 -1.85,51.70" fill="#adafb1"/>
<polygon points="12.98,46.20 24.11,50.70 12.98,55.19 1.85,50.70" fill="#ebedf0"/>
<polygon points="1.85,51.70 1.85,50.70 12.98,55.19 12.98,56.19" fill="#ced0d3"/>
<polygon points="12.98,56.19 12.98,55.19 24.11,50.70 24.11,51.70" fill="#adafb1"/>
<polygon points="38.94,46.20 50.07,50.70 38.94,55.19 27.82,50.70" fill="#ebedf0"/>
<polygon points="27.82,51.70 27.82,50.70 38.94,55.19 38.94,56.19" fill="#ced0d3"/>
<polygon points="38.94,56.19 38.94,55.19 50.07,50.70 50.07,51.70" fill="#adafb1"/>
<polygon points="116.83,46.20 127.95,50.70 116.83,55.19 105.70,50.70" fill="#ebedf0"/>
<polygon points="105.70,51.70 105.70,50.70 116.83,55.19 116.83,56.19" fill="#ced0d3"/>
<polygon points="116.83,56.19 116.83,55.19 127.95,50.70 127.95,51.70" fill="#adafb1"/>
<polygon points="90.86,40.20 101.99,44.70 90.86,49.19 79.74,44.70" fill="#40c463"/>
<polygon points="79.74,51.70 79.74,44.70 90.86,49.19 90.86,56.19" fill="#38ac57"/>
<polygon points="90.86,56.19 90.86,49.19 101.99,44.70 101.99,51.70" fill="#2f9149"/>
<polygon points="64.90,37.20 76.03,41.70 64.90,46.19 53.78,41.70" fill="#30a14e"/>
<polygon points="53.78,51.70 53.78,41.70 64.90,46.19 64.90,56.19" fill="#2a8d44"/>
<polygon points="64.90,56.19 64.90,46.19 76.03,41.70 76.03,51.70" fill="#237739"/>
<polygon points="-25.96,51.44 -14.83,55.94 -25.96,60.44 -37.09,55.94" fill="#ebedf0"/>
<polygon points="-37.09,56.94 -37.09,55.94 -25.96,60.44 -25.96,61.44" fill="#ced0d3"/>
<polygon points="-25.96,61.44 -25.96,60.44 -14.83,55.94 -14.83,56.94" fill="#adafb1"/>
<polygon points="0.00,51.44 11.13,55.94 0.00,60.44 -11.13,55.94" fill="#ebedf0"/>
<polygon points="-11.13,56.94 -11.13,55.94 0.00,60.44 0.00,61.44" fill="#ced0d3"/>
<polygon points="0.00,61.44 0.00,60.44 11.13,55.94 11.13,56.94" fill="#adafb1"/>
<polygon points="25.96,51.44 37.09,55.94 25.96,60.44 14.83,55.94" fill="#ebedf0"/>
<polygon points="14.83,56.94 14.83,55.94 25.96,60.44 25.96,61.44" fill="#ced0d3"/>
<polygon points="25.96,61.44 25.96,60.44 37.09,55.94 37.09,56.94" fill="#adafb1"/>
<polygon points="129.81,51.44 140.93,55.94 129.81,60.44 118.68,55.94" fill="#ebedf0"/>
<polygon points="118.68,56.94 118.68,55.94 129.81,60.44 129.81,61.44" fill="#ced0d3"/>
<polygon points="129.81,61.44 129.81,60.44 140.93,55.94 140.93,56.94" fill="#adafb1"/>
<polygon points="77.88,48.44 89.01,52.94 77.88,57.44 66.76,52.94" fill="#9be9a8"/>
<polygon points="66.76,56.94 66.76,52.94 77.88,57.44 77.88,61.44" fill="#88cd93"/>
<polygon points="77.88,61.44 77.88,57.44 89.01,52.94 89.01,56.94" fill="#72ac7c"/>
<polygon points="103.84,42.44 114.97,46.94 103.84,51.44 92.72,46.94" fill="#30a14e"/>
<polygon points="92.72,56.94 92.72,46.94 103.84,51.44 103.84,61.44" fill="#2a8d44"/>
<polygon points="103.84,61.44 103.84,51.44 114.97,46.94 114.97,56.94" fill="#237739"/>
<polygon points="51.92,39.44 63.05,43.94 51.92,48.44 40.80,43.94" fill="#216e39"/>
<polygon points="40.80,56.94 40.80,43.94 51.92,48.44 51.92,61.44" fill="#1d6032"/>
<polygon points="51.92,61.44 51.92,48.44 63.05,43.94 63.05,56.94" fill="#18512a"/>
<polygon points="-12.98,56.69 -1.85,61.18 -12.98,65.68 -24.11,61.18" fill="#ebedf0"/>
<polygon points="-24.11,62.18 -24.11,61.18 -12.98,65.68 -12.98,66.68" fill="#ced0d3"/>
<polygon points="-12.98,66.68 -12.98,65.68 -1.85,61.18 -1.85,62.18" fill="#adafb1"/>
<polygon points="12.98,56.69 24.11,61.18 12.98,65.68 1.85,61.18" fill="#ebedf0"/>
<polygon points="1.85,62.18 1.85,61.18 12.98,65.68 12.98,66.68" fill="#ced0d3"/>
<polygon points="12.98,66.68 12.98,65.68 24.11,61.18 24.11,62.18" fill="#adafb1"/>
<polygon points="116.83,53.69 127.95,58.18 116.83,62.68 105.70,58.18" fill="#9be9a8"/>
<polygon points="105.70,62.18 105.70,58.18 116.83,62.68 116.83,66.68" fill="#88cd93"/>
<polygon points="116.83,66.68 116.83,62.68 127.95,58.18 127.95,62.18" fill="#72ac7c"/>
<polygon points="142.79,53.69 153.91,58.18 142.79,62.68 131.66,58.18" fill="#9be9a8"/>
<polygon points="131.66,62.18 131.66,58.18 142.79,62.68 142.79,66.68" fill="#88cd93"/>
<polygon points="142.79,66.68 142.79,62.68 153.91,58.18 153.91,62.18" fill="#72ac7c"/>
<polygon points="64.90,50.69 76.03,55.18 64.90,59.68 53.78,55.18" fill="#40c463"/>
<polygon points="53.78,62.18 53.78,55.18 64.90,59.68 64.90,66.68" fill="#38ac57"/>
<polygon points="64.90,66.68 64.90,59.68 76.03,55.18 76.03,62.18" fill="#2f9149"/>
<polygon points="90.86,47.69 101.99,52.18 90.86,56.68 79.74,52.18" fill="#30a14e"/>
<polygon points="79.74,62.18 79.74,52.18 90.86,56.68 90.86,66.68" fill="#2a8d44"/>
<polygon points="90.86,66.68 90.86,56.68 101.99,52.18 101.99,62.18" fill="#237739"/>
<polygon points="38.94,44.69 50.07,49.18 38.94,53.68 27.82,49.18" fill="#216e39"/>
<polygon points="27.82,62.18 27.82,49.18 38.94,53.68 38.94,66.68" fill="#1d6032"/>
<polygon points="38.94,66.68 38.94,53.68 50.07,49.18 50.07,62.18" fill="#18512a"/>
<polygon points="0.00,61.93 11.13,66.43 0.00,70.92 -11.13,66.43" fill="#ebedf0"/>
<polygon points="-11.13,67.43 -11.13,66.43 0.00,70.92 0.00,71.92" fill="#ced0d3"/>
<polygon points="0.00,71.92 0.00,70.92 11.13,66.43 11.13,67.43" fill="#adafb1"/>
<polygon points="51.92,61.93 63.05,66.43 51.92,70.92 40.80,66.43" fill="#ebedf0"/>
<polygon points="40.80,67.43 40.80,66.43 51.92,70.92 51.92,71.92" fill="#ced0d3"/>
<polygon points="51.92,71.92 51.92,70.92 63.05,66.43 63.05,67.43" fill="#adafb1"/>
<polygon points="103.84,61.93 114.97,66.43 103.84,70.92 92.72,66.43" fill="#ebedf0"/>
<polygon points="92.72,67.43 92.72,66.43 103.84,70.92 103.84,71.92" fill="#ced0d3"/>
<polygon points="103.84,71.92 103.84,70.92 114.97,66.43 114.97,67.43" fill="#adafb1"/>
<polygon points="129.81,61.93 140.93,66.43 129.81,70.92 118.68,66.43" fill="#ebedf0"/>
<polygon points="118.68,67.43 118.68,66.43 129.81,70.92 129.81,71.92" fill="#ced0d3"/>
<polygon points="129.81,71.92 129.81,70.92 140.93,66.43 140.93,67.43" fill="#adafb1"/>
<polygon points="155.77,61.93 166.89,66.43 155.77,70.92 144.64,66.43" fill="#ebedf0"/>
<polygon points="144.64,67.43 144.64,66.43 155.77,70.92 155.77,71.92" fill="#ced0d3"/>
<polygon points="155.77,71.92 155.77,70.92 166.89,66.43 166.89,67.43" fill="#adafb1"/>
<polygon points="25.96,58.93 37.09,63.43 25.96,67.92 14.83,63.43" fill="#9be9a8"/>
<polygon points="14.83,67.43 14.83,63.43 25.96,67.92 25.96,71.92" fill="#88cd93"/>
<polygon points="25.96,71.92 25.96,67.92 37.09,63.43 37.09,67.43" fill="#72ac7c"/>
<polygon points="77.88,52.93 89.01,57.43 77.88,61.92 66.76,57.43" fill="#30a14e"/>
<polygon points="66.76,67.43 66.76,57.43 77.88,61.92 77.88,71.92" fill="#2a8d44"/>
<polygon points="77.88,71.92 77.88,61.92 89.01,57.43 89.01,67.43" fill="#237739"/>
<polygon points="12.98,67.18 24.11,71.67 12.98,76.17 1.85,71.67" fill="#ebedf0"/>
<polygon points="1.85,72.67 1.85,71.67 12.98,76.17 12.98,77.17" fill="#ced0d3"/>
<polygon points="12.98,77.17 12.98,76.17 24.11,71.67 24.11,72.67" fill="#adafb1"/>
<polygon points="38.94,67.18 50.07,71.67 38.94,76.17 27.82,71.67" fill="#ebedf0"/>
<polygon points="27.82,72.67 27.82,71.67 38.94,76.17 38.94,77.17" fill="#ced0d3"/>
<polygon points="38.94,77.17 38.94,76.17 50.07,71.67 50.07,72.67" fill="#adafb1"/>
<polygon points="142.79,67.18 153.91,71.67 142.79,76.17 131.66,71.67" fill="#ebedf0"/>
<polygon points="131.66,72.67 131.66,71.67 142.79,76.17 142.79,77.17" fill="#ced0d3"/>
<polygon points="142.79,77.17 142.79,76.17 153.91,71.67 153.91,72.67" fill="#adafb1"/>
<polygon points="168.75,67.18 179.87,71.67 168.75,76.17 157.62,71.67" fill="#ebedf0"/>
<polygon points="157.62,72.67 157.62,71.67 168.75,76.17 168.75,77.17" fill="#ced0d3"/>
<polygon points="168.75,77.17 168.75,76.17 179.87,71.67 179.87,72.67" fill="#adafb1"/>
<polygon points="90.86,64.18 101.99,68.67 90.86,73.17 79.74,68.67" fill="#9be9a8"/>
<polygon points="79.74,72.67 79.74,68.67 90.86,73.17 90.86,77.17" fill="#88cd93"/>
<polygon points="90.86,77.17 90.86,73.17 101.99,68.67 101.99,72.67" fill="#72ac7c"/>
<polygon points="116.83,64.18 127.95,68.67 116.83,73.17 105.70,68.67" fill="#9be9a8"/>
<polygon points="105.70,72.67 105.70,68.67 116.83,73.17 116.83,77.17" fill="#88cd93"/>
<polygon points="116.83,77.17 116.83,73.17 127.95,68.67 127.95,72.67" fill="#72ac7c"/>
<polygon points="64.90,58.18 76.03,62.67 64.90,67.17 53.78,62.67" fill="#30a14e"/>
<polygon points="53.78,72.67 53.78,62.67 64.90,67.17 64.90,77.17" fill="#2a8d44"/>
<polygon points="64.90,77.17 64.90,67.17 76.03,62.67 76.03,72.67" fill="#237739"/>
<polygon points="25.96,72.42 37.09,76.92 25.96,81.41 14.83,76.92" fill="#ebedf0"/>
<polygon points="14.83,77.92 14.83,76.92 25.96,81.41 25.96,82.41" fill="#ced0d3"/>
<polygon points="25.96,82.41 25.96,81.41 37.09,76.92 37.09,77.92" fill="#adafb1"/>
<polygon points="77.88,72.42 89.01,76.92 77.88,81.41 66.76,76.92" fill="#ebedf0"/>
<polygon points="66.76,77.92 66.76,76.92 77.88,81.41 77.88,82.41" fill="#ced0d3"/>
<polygon points="77.88,82.41 77.88,81.41 89.01,76.92 89.01,77.92" fill="#adafb1"/>
<polygon points="129.81,72.42 140.93,76.92 129.81,81.41 118.68,76.92" fill="#ebedf0"/>
<polygon points="118.68,77.92 118.68,76.92 129.81,81.41 129.81,82.41" fill="#ced0d3"/>
<polygon points="129.81,82.41 129.81,81.41 140.93,76.92 140.93,77.92" fill="#adafb1"/>
<polygon points="181.73,72.42 192.85,76.92 181.73,81.41 170.60,76.92" fill="#ebedf0"/>
<polygon points="170.60,77.92 170.60,76.92 181.73,81.41 181.73,82.41" fill="#ced0d3"/>
<polygon points="181.73,82.41 181.73,81.41 192.85,76.92 192.85,77.92" fill="#adafb1"/>
<polygon points="51.92,69.42 63.05,73.92 51.92,78.41 40.80,73.92" fill="#9be9a8"/>
<polygon points="40.80,77.92 40.80,73.92 51.92,78.41 51.92,82.41" fill="#88cd93"/>
<polygon points="51.92,82.41 51.92,78.41 63.05,73.92 63.05,77.92" fill="#72ac7c"/>
<polygon points="155.77,69.42 166.89,73.92 155.77,78.41 144.64,73.92" fill="#9be9a8"/>
<polygon points="144.64,77.92 144.64,73.92 155.77,78.41 155.77,82.41" fill="#88cd93"/>
<polygon points="155.77,82.41 155.77,78.41 166.89,73.92 166.89,77.92" fill="#72ac7c"/>
<polygon points="103.84,66.42 114.97,70.92 103.84,75.41 92.72,70.92" fill="#40c463"/>
<polygon points="92.72,77.92 92.72,70.92 103.84,75.41 103.84,82.41" fill="#38ac57"/>
<polygon points="103.84,82.41 103.84,75.41 114.97,70.92 114.97,77.92" fill="#2f9149"/>
<polygon points="38.94,77.67 50.07,82.16 38.94,86.66 27.82,82.16" fill="#ebedf0"/>
<polygon points="27.82,83.16 27.82,82.16 38.94,86.66 38.94,87.66" fill="#ced0d3"/>
<polygon points="38.94,87.66 38.94,86.66 50.07,82.16 50.07,83.16" fill="#adafb1"/>
<polygon points="64.90,77.67 76.03,82.16 64.90,86.66 53.78,82.16" fill="#ebedf0"/>
<polygon points="53.78,83.16 53.78,82.16 64.90,86.66 64.90,87.66" fill="#ced0d3"/>
<polygon points="64.90,87.66 64.90,86.66 76.03,82.16 76.03,83.16" fill="#adafb1"/>
<polygon points="168.75,77.67 179.87,82.16 168.75,86.66 157.62,82.16" fill="#ebedf0"/>
<polygon points="157.62,83.16 157.62,82.16 168.75,86.66 168.75,87.66" fill="#ced0d3"/>
<polygon points="168.75,87.66 168.75,86.66 179.87,82.16 179.87,83.16" fill="#adafb1"/>
<polygon points="194.71,77.67 205.83,82.16 194.71,86.66 183.58,82.16" fill="#ebedf0"/>
<polygon points="183.58,83.16 183.58,82.16 194.71,86.66 194.71,87.66" fill="#ced0d3"/>
<polygon points="194.71,87.66 194.71,86.66 205.83,82.16 205.83,83.16" fill="#adafb1"/>
<polygon points="90.86,74.67 101.99,79.16 90.86,83.66 79.74,79.16" fill="#9be9a8"/>
<polygon points="79.74,83.16 79.74,79.16 90.86,83.66 90.86,87.66" fill="#88cd93"/>
<polygon points="90.86,87.66 90.86,83.66 101.99,79.16 101.99,83.16" fill="#72ac7c"/>
<polygon points="116.83,74.67 127.95,79.16 116.83,83.66 105.70,79.16" fill="#9be9a8"/>
<polygon points="105.70,83.16 105.70,79.16 116.83,83.66 116.83,87.66" fill="#88cd93"/>
<polygon points="116.83,87.66 116.83,83.66 127.95,79.16 127.95,83.16" fill="#72ac7c"/>
<polygon points="142.79,74.67 153.91,79.16 142.79,83.66 131.66,79.16" fill="#9be9a8"/>
<polygon points="131.66,83.16 131.66,79.16 142.79,83.66 142.79,87.66" fill="#88cd93"/>
<polygon points="142.79,87.66 142.79,83.66 153.91,79.16 153.91,83.16" fill="#72ac7c"/>
<polygon points="51.92,82.91 63.05,87.41 51.92,91.90 40.80,87.41" fill="#ebedf0"/>
<polygon points="40.80,88.41 40.80,87.41 51.92,91.90 51.92,92.90" fill="#ced0d3"/>
<polygon points="51.92,92.90 51.92,91.90 63.05,87.41 63.05,88.41" fill="#adafb1"/>
<polygon points="103.84,82.91 114.97,87.41 103.84,91.90 92.72,87.41" fill="#ebedf0"/>
<polygon points="92.72,88.41 92.72,87.41 103.84,91.90 103.84,92.90" fill="#ced0d3"/>
<polygon points="103.84,92.90 103.84,91.90 114.97,87.41 114.97,88.41" fill="#adafb1"/>
<polygon points="129.81,82.91 140.93,87.41 129.81,91.90 118.68,87.41" fill="#ebedf0"/>
<polygon points="118.68,88.41 118.68,87.41 129.81,91.90 129.81,92.90" fill="#ced0d3"/>
<polygon points="129.81,92.90 129.81,91.90 140.93,87.41 140.93,88.41" fill="#adafb1"/>
<polygon points="155.77,82.91 166.89,87.41 155.77,91.90 144.64,87.41" fill="#ebedf0"/>
<polygon points="144.64,88.41 144.64,87.41 155.77,91.90 155.77,92.90" fill="#ced0d3"/>
<polygon points="155.77,92.90 155.77,91.90 166.89,87.41 166.89,88.41" fill="#adafb1"/>
<polygon points="181.73,82.91 192.85,87.41 181.73,91.90 170.60,87.41" fill="#ebedf0"/>
<polygon points="170.60,88.41 170.60,87.41 181.73,91.90 181.73,92.90" fill="#ced0d3"/>
<polygon points="181.73,92.90 181.73,91.90 192.85,87.41 192.85,88.41" fill="#adafb1"/>
<polygon points="207.69,82.91 218.82,87.41 207.69,91.90 196.56,87.41" fill="#ebedf0"/>
<polygon points="196.56,88.41 196.56,87.41 207.69,91.90 207.69,92.90" fill="#ced0d3"/>
<polygon points="207.69,92.90 207.69,91.90 218.82,87.41 218.82,88.41" fill="#adafb1"/>
<polygon points="77.88,79.91 89.01,84.41 77.88,88.90 66.76,84.41" fill="#9be9a8"/>
<polygon points="66.76,88.41 66.76,84.41 77.88,88.90 77.88,92.90" fill="#88cd93"/>
<polygon points="77.88,92.90 77.88,88.90 89.01,84.41 89.01,88.41" fill="#72ac7c"/>
<polygon points="64.90,88.16 76.03,92.65 64.90,97.15 53.78,92.65" fill="#ebedf0"/>
<polygon points="53.78,93.65 53.78,92.65 64.90,97.15 64.90,98.15" fill="#ced0d3"/>
<polygon points="64.90,98.15 64.90,97.15 76.03,92.65 76.03,93.65" fill="#adafb1"/>
<polygon points="90.86,88.16 101.99,92.65 90.86,97.15 79.74,92.65" fill="#ebedf0"/>
<polygon points="79.74,93.65 79.74,92.65 90.86,97.15 90.86,98.15" fill="#ced0d3"/>
<polygon points="90.86,98.15 90.86,97.15 101.99,92.65 101.99,93.65" fill="#adafb1"/>
<polygon points="116.83,88.16 127.95,92.65 116.83,97.15 105.70,92.65" fill="#ebedf0"/>
<polygon points="105.70,93.65 105.70,92.65 116.83,97.15 116.83,98.15" fill="#ced0d3"/>
<polygon points="116.83,98.15 116.83,97.15 127.95,92.65 127.95,93.65" fill="#adafb1"/>
<polygon points="142.79,88.16 153.91,92.65 142.79,97.15 131.66,92.65" fill="#ebedf0"/>
<polygon points="131.66,93.65 131.66,92.65 142.79,97.15 142.79,98.15" fill="#ced0d3"/>
<polygon points="142.79,98.15 142.79,97.15 153.91,92.65 153.91,93.65" fill="#adafb1"/>
<polygon points="168.75,88.16 179.87,92.65 168.75,97.15 157.62,92.65" fill="#ebedf0"/>
<polygon points="157.62,93.65 157.62,92.65 168.75,97.15 168.75,98.15" fill="#ced0d3"/>
<polygon points="168.75,98.15 168.75,97.15 179.87,92.65 179.87,93.65" fill="#adafb1"/>
<polygon points="194.71,88.16 205.83,92.65 194.71,97.15 183.58,92.65" fill="#ebedf0"/>
<polygon points="183.58,93.65 183.58,92.65 194.71,97.15 194.71,98.15" fill="#ced0d3"/>
<polygon points="194.71,98.15 194.71,97.15 205.83,92.65 205.83,93.65" fill="#adafb1"/>
<polygon points="220.67,88.16 231.80,92.65 220.67,97.15 209.54,92.65" fill="#ebedf0"/>
<polygon points="209.54,93.65 209.54,92.65 220.67,97.15 220.67,98.15" fill="#ced0d3"/>
<polygon points="220.67,98.15 220.67,97.15 231.80,92.65 231.80,93.65" fill="#adafb1"/>
<polygon points="77.88,93.40 89.01,97.90 77.88,102.39 66.76,97.90" fill="#ebedf0"/>
<polygon points="66.76,98.90 66.76,97.90 77.88,102.39 77.88,103.39" fill="#ced0d3"/>
<polygon points="77.88,103.39 77.88,102.39 89.01,97.90 89.01,98.90" fill="#adafb1"/>
<polygon points="103.84,93.40 114.97,97.90 103.84,102.39 92.72,97.90" fill="#ebedf0"/>
<polygon points="92.72,98.90 92.72,97.90 103.84,102.39 103.84,103.39" fill="#ced0d3"/>
<polygon points="103.84,103.39 103.84,102.39 114.97,97.90 114.97,98.90" fill="#adafb1"/>
<polygon points="129.81,93.40 140.93,97.90 129.81,102.39 118.68,97.90" fill="#ebedf0"/>
<polygon points="118.68,98.90 118.68,97.90 129.81,102.39 129.81,103.39" fill="#ced0d3"/>
<polygon points="129.81,103.39 129.81,102.39 140.93,97.90 140.93,98.90" fill="#adafb1"/>
<polygon points="155.77,93.40 166.89,97.90 155.77,102.39 144.64,97.90" fill="#ebedf0"/>
<polygon points="144.64,98.90 144.64,97.90 155.77,102.39 155.77,103.39" fill="#ced0d3"/>
<polygon points="155.77,103.39 155.77,102.39 166.89,97.90 166.89,98.90" fill="#adafb1"/>
<polygon points="181.73,93.40 192.85,97.90 181.73,102.39 170.60,97.90" fill="#ebedf0"/>
<polygon points="170.60,98.90 170.60,97.90 181.73,102.39 181.73,103.39" fill="#ced0d3"/>
<polygon points="181.73,103.39 181.73,102.39 192.85,97.90 192.85,98.90" fill="#adafb1"/>
<polygon points="207.69,93.40 218.82,97.90 207.69,102.39 196.56,97.90" fill="#ebedf0"/>
<polygon points="196.56,98.90 196.56,97.90 207.69,102.39 207.69,103.39" fill="#ced0d3"/>
<polygon points="207.69,103.39 207.69,102.39 218.82,97.90 218.82,98.90" fill="#adafb1"/>
<polygon points="233.65,93.40 244.78,97.90 233.65,102.39 222.52,97.90" fill="#ebedf0"/>
<polygon points="222.52,98.90 222.52,97.90 233.65,102.39 233.65,103.39" fill="#ced0d3"/>
<polygon points="233.65,103.39 233.65,102.39 244.78,97.90 244.78,98.90" fill="#adafb1"/>
<polygon points="90.86,98.65 101.99,103.14 90.86,107.64 79.74,103.14" fill="#ebedf0"/>
<polygon points="79.74,104.14 79.74,103.14 90.86,107.64 90.86,108.64" fill="#ced0d3"/>
<polygon points="90.86,108.64 90.86,107.64 101.99,103.14 101.99,104.14" fill="#adafb1"/>
<polygon points="116.83,98.65 127.95,103.14 116.83,107.64 105.70,103.14" fill="#ebedf0"/>
<polygon points="105.70,104.14 105.70,103.14 116.83,107.64 116.83,108.64" fill="#ced0d3"/>
<polygon points="116.83,108.64 116.83,107.64 127.95,103.14 127.95,104.14" fill="#adafb1"/>
<polygon points="168.75,98.65 179.87,103.14 168.75,107.64 157.62,103.14" fill="#ebedf0"/>
<polygon points="157.62,104.14 157.62,103.14 168.75,107.64 168.75,108.64" fill="#ced0d3"/>
<polygon points="168.75,108.64 168.75,107.64 179.87,103.14 179.87,104.14" fill="#adafb1"/>
<polygon points="194.71,98.65 205.83,103.14 194.71,107.64 183.58,103.14" fill="#ebedf0"/>
<polygon points="183.58,104.14 183.58,103.14 194.71,107.64 194.71,108.64" fill="#ced0d3"/>
<polygon points="194.71,108.64 194.71,107.64 205.83,103.14 205.83,104.14" fill="#adafb1"/>
<polygon points="220.67,98.65 231.80,103.14 220.67,107.64 209.54,103.14" fill="#ebedf0"/>
<polygon points="209.54,104.14 209.54,103.14 220.67,107.64 220.67,108.64" fill="#ced0d3"/>
<polygon points="220.67,108.64 220.67,107.64 231.80,103.14 231.80,104.14" fill="#adafb1"/>
<polygon points="246.63,98.65 257.76,103.14 246.63,107.64 235.50,103.14" fill="#ebedf0"/>
<polygon points="235.50,104.14 235.50,103.14 246.63,107.64 246.63,108.64" fill="#ced0d3"/>
<polygon points="246.63,108.64 246.63,107.64 257.76,103.14 257.76,104.14" fill="#adafb1"/>
<polygon points="142.79,95.65 153.91,100.14 142.79,104.64 131.66,100.14" fill="#9be9a8"/>
<polygon points="131.66,104.14 131.66,100.14 142.79,104.64 142.79,108.64" fill="#88cd93"/>
<polygon points="142.79,108.64 142.79,104.64 153.91,100.14 153.91,104.14" fill="#72ac7c"/>
<polygon points="103.84,103.89 114.97,108.39 103.84,112.88 92.72,108.39" fill="#ebedf0"/>
<polygon points="92.72,109.39 92.72,108.39 103.84,112.88 103.84,113.88" fill="#ced0d3"/>
<polygon points="103.84,113.88 103.84,112.88 114.97,108.39 114.97,109.39" fill="#adafb1"/>
<polygon points="129.81,103.89 140.93,108.39 129.81,112.88 118.68,108.39" fill="#ebedf0"/>
<polygon points="118.68,109.39 118.68,108.39 129.81,112.88 129.81,113.88" fill="#ced0d3"/>
<polygon points="129.81,113.88 129.81,112.88 140.93,108.39 140.93,109.39" fill="#adafb1"/>
<polygon points="181.73,103.89 192.85,108.39 181.73,112.88 170.60,108.39" fill="#ebedf0"/>
<polygon points="170.60,109.39 170.60,108.39 181.73,112.88 181.73,113.88" fill="#ced0d3"/>
<polygon points="181.73,113.88 181.73,112.88 192.85,108.39 192.85,109.39" fill="#adafb1"/>
<polygon points="207.69,103.89 218.82,108.39 207.69,112.88 196.56,108.39" fill="#ebedf0"/>
<polygon points="196.56,109.39 196.56,108.39 207.69,112.88 207.69,113.88" fill="#ced0d3"/>
<polygon points="207.69,113.88 207.69,112.88 218.82,108.39 218.82,109.39" fill="#adafb1"/>
<polygon points="233.65,103.89 244.78,108.39 233.65,112.88 222.52,108.39" fill="#ebedf0"/>
<polygon points="222.52,109.39 222.52,108.39 233.65,112.88 233.65,113.88" fill="#ced0d3"/>
<polygon points="233.65,113.88 233.65,112.88 244.78,108.39 244.78,109.39" fill="#adafb1"/>
<polygon points="259.61,103.89 270.74,108.39 259.61,112.88 248.49,108.39" fill="#ebedf0"/>
<polygon points="248.49,109.39 248.49,108.39 259.61,112.88 259.61,113.88" fill="#ced0d3"/>
<polygon points="259.61,113.88 259.61,112.88 270.74,108.39 270.74,109.39" fill="#adafb1"/>
<polygon points="155.77,100.89 166.89,105.39 155.77,109.88 144.64,105.39" fill="#9be9a8"/>
<polygon points="144.64,109.39 144.64,105.39 155.77,109.88 155.77,113.88" fill="#88cd93"/>
<polygon points="155.77,113.88 155.77,109.88 166.89,105.39 166.89,109.39" fill="#72ac7c"/>
<polygon points="116.83,109.13 127.95,113.63 116.83,118.12 105.70,113.63" fill="#ebedf0"/>
<polygon points="105.70,114.63 105.70,113.63 116.83,118.12 116.83,119.12" fill="#ced0d3"/>
<polygon points="116.83,119.12 116.83,118.12 127.95,113.63 127.95,114.63" fill="#adafb1"/>
<polygon points="142.79,109.13 153.91,113.63 142.79,118.12 131.66,113.63" fill="#ebedf0"/>
<polygon points="131.66,114.63 131.66,113.63 142.79,118.12 142.79,119.12" fill="#ced0d3"/>
<polygon points="142.79,119.12 142.79,118.12 153.91,113.63 153.91,114.63" fill="#adafb1"/>
<polygon points="168.75,109.13 179.87,113.63 168.75,118.12 157.62,113.63" fill="#ebedf0"/>
<polygon points="157.62,114.63 157.62,113.63 168.75,118.12 168.75,119.12" fill="#ced0d3"/>
<polygon points="168.75,119.12 168.75,118.12 179.87,113.63 179.87,114.63" fill="#adafb1"/>
<polygon points="194.71,109.13 205.83,113.63 194.71,118.12 183.58,113.63" fill="#ebedf0"/>
<polygon points="183.58,114.63 183.58,113.63 194.71,118.12 194.71,119.12" fill="#ced0d3"/>
<polygon points="194.71,119.12 194.71,118.12 205.83,113.63 205.83,114.63" fill="#adafb1"/>
<polygon points="272.59,109.13 283.72,113.63 272.59,118.12 261.47,113.63" fill="#ebedf0"/>
<polygon points="261.47,114.63 261.47,113.63 272.59,118.12 272.59,119.12" fill="#ced0d3"/>
<polygon points="272.59,119.12 272.59,118.12 283.72,113.63 283.72,114.63" fill="#adafb1"/>
<polygon points="220.67,106.13 231.80,110.63 220.67,115.12 209.54,110.63" fill="#9be9a8"/>
<polygon points="209.54,114.63 209.54,110.63 220.67,115.12 220.67,119.12" fill="#88cd93"/>
<polygon points="220.67,119.12 220.67,115.12 231.80,110.63 231.80,114.63" fill="#72ac7c"/>
<polygon points="246.63,106.13 257.76,110.63 246.63,115.12 235.50,110.63" fill="#9be9a8"/>
<polygon points="235.50,114.63 235.50,110.63 246.63,115.12 246.63,119.12" fill="#88cd93"/>
<polygon points="246.63,119.12 246.63,115.12 257.76,110.63 257.76,114.63" fill="#72ac7c"/>
<polygon points="129.81,114.38 140.93,118.87 129.81,123.37 118.68,118.87" fill="#ebedf0"/>
<polygon points="118.68,119.87 118.68,118.87 129.81,123.37 129.81,124.37" fill="#ced0d3"/>
<polygon points="129.81,124.37 129.81,123.37 140.93,118.87 140.93,119.87" fill="#adafb1"/>
<polygon points="155.77,114.38 166.89,118.87 155.77,123.37 144.64,118.87" fill="#ebedf0"/>
<polygon points="144.64,119.87 144.64,118.87 155.77,123.37 155.77,124.37" fill="#ced0d3"/>
<polygon points="155.77,124.37 155.77,123.37 166.89,118.87 166.89,119.87" fill="#adafb1"/>
<polygon points="181.73,114.38 192.85,118.87 181.73,123.37 170.60,118.87" fill="#ebedf0"/>
<polygon points="170.60,119.87 170.60,118.87 181.73,123.37 181.73,124.37" fill="#ced0d3"/>
<polygon points="181.73,124.37 181.73,123.37 192.85,118.87 192.85,119.87" fill="#adafb1"/>
<polygon points="207.69,114.38 218.82,118.87 207.69,123.37 196.56,118.87" fill="#ebedf0"/>
<polygon points="196.56,119.87 196.56,118.87 207.69,123.37 207.69,124.37" fill="#ced0d3"/>
<polygon points="207.69,124.37 207.69,123.37 218.82,118.87 218.82,119.87" fill="#adafb1"/>
<polygon points="285.57,114.38 296.70,118.87 285.57,123.37 274.45,118.87" fill="#ebedf0"/>
<polygon points="274.45,119.87 274.45,118.87 285.57,123.37 285.57,124.37" fill="#ced0d3"/>
<polygon points="285.57,124.37 285.57,123.37 296.70,118.87 296.70,119.87" fill="#adafb1"/>
<polygon points="233.65,111.38 244.78,115.87 233.65,120.37 222.52,115.87" fill="#9be9a8"/>
<polygon points="222.52,119.87 222.52,115.87 233.65,120.37 233.65,124.37" fill="#88cd93"/>
<polygon points="233.65,124.37 233.65,120.37 244.78,115.87 244.78,119.87" fill="#72ac7c"/>
<polygon points="259.61,111.38 270.74,115.87 259.61,120.37 248.49,115.87" fill="#9be9a8"/>
<polygon points="248.49,119.87 248.49,115.87 259.61,120.37 259.61,124.37" fill="#88cd93"/>
<polygon points="259.61,124.37 259.61,120.37 270.74,115.87 270.74,119.87" fill="#72ac7c"/>
<polygon points="142.79,119.62 153.91,124.12 142.79,128.61 131.66,124.12" fill="#ebedf0"/>
<polygon points="131.66,125.12 131.66,124.12 142.79,128.61 142.79,129.61" fill="#ced0d3"/>
<polygon points="142.79,129.61 142.79,128.61 153.91,124.12 153.91,125.12" fill="#adafb1"/>
<polygon points="168.75,119.62 179.87,124.12 168.75,128.61 157.62,124.12" fill="#ebedf0"/>
<polygon points="157.62,125.12 157.62,124.12 168.75,128.61 168.75,129.61" fill="#ced0d3"/>
<polygon points="168.75,129.61 168.75,128.61 179.87,124.12 179.87,125.12" fill="#adafb1"/>
<polygon points="194.71,119.62 205.83,124.12 194.71,128.61 183.58,124.12" fill="#ebedf0"/>
<polygon points="183.58,125.12 183.58,124.12 194.71,128.61 194.71,129.61" fill="#ced0d3"/>
<polygon points="194.71,129.61 194.71,128.61 205.83,124.12 205.83,125.12" fill="#adafb1"/>
<polygon points="220.67,116.62 231.80,121.12 220.67,125.61 209.54,121.12" fill="#9be9a8"/>
<polygon points="209.54,125.12 209.54,121.12 220.67,125.61 220.67,129.61" fill="#88cd93"/>
<polygon points="220.67,129.61 220.67,125.61 231.80,121.12 231.80,125.12" fill="#72ac7c"/>
<polygon points="246.63,116.62 257.76,121.12 246.63,125.61 235.50,121.12" fill="#9be9a8"/>
<polygon points="235.50,125.12 235.50,121.12 246.63,125.61 246.63,129.61" fill="#88cd93"/>
<polygon points="246.63,129.61 246.63,125.61 257.76,121.12 257.76,125.12" fill="#72ac7c"/>
<polygon points="272.59,116.62 283.72,121.12 272.59,125.61 261.47,121.12" fill="#9be9a8"/>
<polygon points="261.47,125.12 261.47,121.12 272.59,125.61 272.59,129.61" fill="#88cd93"/>
<polygon points="272.59,129.61 272.59,125.61 283.72,121.12 283.72,125.12" fill="#72ac7c"/>
<polygon points="298.55,116.62 309.68,121.12 298.55,125.61 287.43,121.12" fill="#9be9a8"/>
<polygon points="287.43,125.12 287.43,121.12 298.55,125.61 298.55,129.61" fill="#88cd93"/>
<polygon points="298.55,129.61 298.55,125.61 309.68,121.12 309.68,125.12" fill="#72ac7c"/>
<polygon points="155.77,124.87 166.89,129.36 155.77,133.86 144.64,129.36" fill="#ebedf0"/>
<polygon points="144.64,130.36 144.64,129.36 155.77,133.86 155.77,134.86" fill="#ced0d3"/>
<polygon points="155.77,134.86 155.77,133.86 166.89,129.36 166.89,130.36" fill="#adafb1"/>
<polygon points="181.73,124.87 192.85,129.36 181.73,133.86 170.60,129.36" fill="#ebedf0"/>
<polygon points="170.60,130.36 170.60,129.36 181.73,133.86 181.73,134.86" fill="#ced0d3"/>
<polygon points="181.73,134.86 181.73,133.86 192.85,129.36 192.85,130.36" fill="#adafb1"/>
<polygon points="207.69,124.87 218.82,129.36 207.69,133.86 196.56,129.36" fill="#ebedf0"/>
<polygon points="196.56,130.36 196.56,129.36 207.69,133.86 207.69,134.86" fill="#ced0d3"/>
<polygon points="207.69,134.86 207.69,133.86 218.82,129.36 218.82,130.36" fill="#adafb1"/>
<polygon points="311.53,124.87 322.66,129.36 311.53,133.86 300.41,129.36" fill="#ebedf0"/>
<polygon points="300.41,130.36 300.41,129.36 311.53,133.86 311.53,134.86" fill="#ced0d3"/>
<polygon points="311.53,134.86 311.53,133.86 322.66,129.36 322.66,130.36" fill="#adafb1"/>
<polygon points="233.65,121.87 244.78,126.36 233.65,130.86 222.52,126.36" fill="#9be9a8"/>
<polygon points="222.52,130.36 222.52,126.36 233.65,130.86 233.65,134.86" fill="#88cd93"/>
<polygon points="233.65,134.86 233.65,130.86 244.78,126.36 244.78,130.36" fill="#72ac7c"/>
<polygon points="259.61,121.87 270.74,126.36 259.61,130.86 248.49,126.36" fill="#9be9a8"/>
<polygon points="248.49,130.36 248.49,126.36 259.61,130.86 259.61,134.86" fill="#88cd93"/>
<polygon points="259.61,134.86 259.61,130.86 270.74,126.36 270.74,130.36" fill="#72ac7c"/>
<polygon points="285.57,121.87 296.70,126.36 285.57,130.86 274.45,126.36" fill="#9be9a8"/>
<polygon points="274.45,130.36 274.45,126.36 285.57,130.86 285.57,134.86" fill="#88cd93"/>
<polygon points="285.57,134.86 285.57,130.86 296.70,126.36 296.70,130.36" fill="#72ac7c"/>
<polygon points="168.75,130.11 179.87,134.61 168.75,139.10 157.62,134.61" fill="#ebedf0"/>
<polygon points="157.62,135.61 157.62,134.61 168.75,139.10 168.75,140.10" fill="#ced0d3"/>
<polygon points="168.75,140.10 168.75,139.10 179.87,134.61 179.87,135.61" fill="#adafb1"/>
<polygon points="194.71,130.11 205.83,134.61 194.71,139.10 183.58,134.61" fill="#ebedf0"/>
<polygon points="183.58,135.61 183.58,134.61 194.71,139.10 194.71,140.10" fill="#ced0d3"/>
<polygon points="194.71,140.10 194.71,139.10 205.83,134.61 205.83,135.61" fill="#adafb1"/>
<polygon points="298.55,130.11 309.68,134.61 298.55,139.10 287.43,134.61" fill="#ebedf0"/>
<polygon points="287.43,135.61 287.43,134.61 298.55,139.10 298.55,140.10" fill="#ced0d3"/>
<polygon points="298.55,140.10 298.55,139.10 309.68,134.61 309.68,135.61" fill="#adafb1"/>
<polygon points="220.67,127.11 231.80,131.61 220.67,136.10 209.54,131.61" fill="#9be9a8"/>
<polygon points="209.54,135.61 209.54,131.61 220.67,136.10 220.67,140.10" fill="#88cd93"/>
<polygon points="220.67,140.10 220.67,136.10 231.80,131.61 231.80,135.61" fill="#72ac7c"/>
<polygon points="246.63,127.11 257.76,131.61 246.63,136.10 235.50,131.61" fill="#9be9a8"/>
<polygon points="235.50,135.61 235.50,131.61 246.63,136.10 246.63,140.10" fill="#88cd93"/>
<polygon points="246.63,140.10 246.63,136.10 257.76,131.61 257.76,135.61" fill="#72ac7c"/>
<polygon points="272.59,127.11 283.72,131.61 272.59,136.10 261.47,131.61" fill="#9be9a8"/>
<polygon points="261.47,135.61 261.47,131.61 272.59,136.10 272.59,140.10" fill="#88cd93"/>
<polygon points="272.59,140.10 272.59,136.10 283.72,131.61 283.72,135.61" fill="#72ac7c"/>
<polygon points="324.51,127.11 335.64,131.61 324.51,136.10 313.39,131.61" fill="#9be9a8"/>
<polygon points="313.39,135.61 313.39,131.61 324.51,136.10 324.51,140.10" fill="#88cd93"/>
<polygon points="324.51,140.10 324.51,136.10 335.64,131.61 335.64,135.61" fill="#72ac7c"/>
<polygon points="181.73,135.36 192.85,139.85 181.73,144.35 170.60,139.85" fill="#ebedf0"/>
<polygon points="170.60,140.85 170.60,139.85 181.73,144.35 181.73,145.35" fill="#ced0d3"/>
<polygon points="181.73,145.35 181.73,144.35 192.85,139.85 192.85,140.85" fill="#adafb1"/>
<polygon points="233.65,135.36 244.78,139.85 233.65,144.35 222.52,139.85" fill="#ebedf0"/>
<polygon points="222.52,140.85 222.52,139.85 233.65,144.35 233.65,145.35" fill="#ced0d3"/>
<polygon points="233.65,145.35 233.65,144.35 244.78,139.85 244.78,140.85" fill="#adafb1"/>
<polygon points="285.57,135.36 296.70,139.85 285.57,144.35 274.45,139.85" fill="#ebedf0"/>
<polygon points="274.45,140.85 274.45,139.85 285.57,144.35 285.57,145.35" fill="#ced0d3"/>
<polygon points="285.57,145.35 285.57,144.35 296.70,139.85 296.70,140.85" fill="#adafb1"/>
<polygon points="207.69,132.36 218.82,136.85 207.69,141.35 196.56,136.85" fill="#9be9a8"/>
<polygon points="196.56,140.85 196.56,136.85 207.69,141.35 207.69,145.35" fill="#88cd93"/>
<polygon points="207.69,145.35 207.69,141.35 218.82,136.85 218.82,140.85" fill="#72ac7c"/>
<polygon points="259.61,132.36 270.74,136.85 259.61,141.35 248.49,136.85" fill="#9be9a8"/>
<polygon points="248.49,140.85 248.49,136.85 259.61,141.35 259.61,145.35" fill="#88cd93"/>
<polygon points="259.61,145.35 259.61,141.35 270.74,136.85 270.74,140.85" fill="#72ac7c"/>
<polygon points="311.53,132.36 322.66,136.85 311.53,141.35 300.41,136.85" fill="#9be9a8"/>
<polygon points="300.41,140.85 300.41,136.85 311.53,141.35 311.53,145.35" fill="#88cd93"/>
<polygon points="311.53,145.35 311.53,141.35 322.66,136.85 322.66,140.85" fill="#72ac7c"/>
<polygon points="337.49,132.36 348.62,136.85 337.49,141.35 326.37,136.85" fill="#9be9a8"/>
<polygon points="326.37,140.85 326.37,136.85 337.49,141.35 337.49,145.35" fill="#88cd93"/>
<polygon points="337.49,145.35 337.49,141.35 348.62,136.85 348.62,140.85" fill="#72ac7c"/>
<polygon points="194.71,140.60 205.83,145.10 194.71,149.59 183.58,145.10" fill="#ebedf0"/>
<polygon points="183.58,146.10 183.58,145.10 194.71,149.59 194.71,150.59" fill="#ced0d3"/>
<polygon points="194.71,150.59 194.71,149.59 205.83,145.10 205.83,146.10" fill="#adafb1"/>
<polygon points="246.63,140.60 257.76,145.10 246.63,149.59 235.50,145.10" fill="#ebedf0"/>
<polygon points="235.50,146.10 235.50,145.10 246.63,149.59 246.63,150.59" fill="#ced0d3"/>
<polygon points="246.63,150.59 246.63,149.59 257.76,145.10 257.76,146.10" fill="#adafb1"/>
<polygon points="272.59,140.60 283.72,145.10 272.59,149.59 261.47,145.10" fill="#ebedf0"/>
<polygon points="261.47,146.10 261.47,145.10 272.59,149.59 272.59,150.59" fill="#ced0d3"/>
<polygon points="272.59,150.59 272.59,149.59 283.72,145.10 283.72,146.10" fill="#adafb1"/>
<polygon points="350.48,140.60 361.60,145.10 350.48,149.59 339.35,145.10" fill="#ebedf0"/>
<polygon points="339.35,146.10 339.35,145.10 350.48,149.59 350.48,150.59" fill="#ced0d3"/>
<polygon points="350.48,150.59 350.48,149.59 361.60,145.10 361.60,146.10" fill="#adafb1"/>
<polygon points="220.67,137.60 231.80,142.10 220.67,146.59 209.54,142.10" fill="#9be9a8"/>
<polygon points="209.54,146.10 209.54,142.10 220.67,146.59 220.67,150.59" fill="#88cd93"/>
<polygon points="220.67,150.59 220.67,146.59 231.80,142.10 231.80,146.10" fill="#72ac7c"/>
<polygon points="298.55,137.60 309.68,142.10 298.55,146.59 287.43,142.10" fill="#9be9a8"/>
<polygon points="287.43,146.10 287.43,142.10 298.55,146.59 298.55,150.59" fill="#88cd93"/>
<polygon points="298.55,150.59 298.55,146.59 309.68,142.10 309.68,146.10" fill="#72ac7c"/>
<polygon points="324.51,134.60 335.64,139.10 324.51,143.59 313.39,139.10" fill="#40c463"/>
<polygon points="313.39,146.10 313.39,139.10 324.51,143.59 324.51,150.59" fill="#38ac57"/>
<polygon points="324.51,150.59 324.51,143.59 335.64,139.10 335.64,146.10" fill="#2f9149"/>
<polygon points="233.65,145.85 244.78,150.34 233.65,154.84 222.52,150.34" fill="#ebedf0"/>
<polygon points="222.52,151.34 222.52,150.34 233.65,154.84 233.65,155.84" fill="#ced0d3"/>
<polygon points="233.65,155.84 233.65,154.84 244.78,150.34 244.78,151.34" fill="#adafb1"/>
<polygon points="259.61,145.85 270.74,150.34 259.61,154.84 248.49,150.34" fill="#ebedf0"/>
<polygon points="248.49,151.34 248.49,150.34 259.61,154.84 259.61,155.84" fill="#ced0d3"/>
<polygon points="259.61,155.84 259.61,154.84 270.74,150.34 270.74,151.34" fill="#adafb1"/>
<polygon points="363.46,145.85 374.58,150.34 363.46,154.84 352.33,150.34" fill="#ebedf0"/>
<polygon points="352.33,151.34 352.33,150.34 363.46,154.84 363.46,155.84" fill="#ced0d3"/>
<polygon points="363.46,155.84 363.46,154.84 374.58,150.34 374.58,151.34" fill="#adafb1"/>
<polygon points="207.69,142.85 218.82,147.34 207.69,151.84 196.56,147.34" fill="#9be9a8"/>
<polygon points="196.56,151.34 196.56,147.34 207.69,151.84 207.69,155.84" fill="#88cd93"/>
<polygon points="207.69,155.84 207.69,151.84 218.82,147.34 218.82,151.34" fill="#72ac7c"/>
<polygon points="285.57,142.85 296.70,147.34 285.57,151.84 274.45,147.34" fill="#9be9a8"/>
<polygon points="274.45,151.34 274.45,147.34 285.57,151.84 285.57,155.84" fill="#88cd93"/>
<polygon points="285.57,155.84 285.57,151.84 296.70,147.34 296.70,151.34" fill="#72ac7c"/>
<polygon points="337.49,142.85 348.62,147.34 337.49,151.84 326.37,147.34" fill="#9be9a8"/>
<polygon points="326.37,151.34 326.37,147.34 337.49,151.84 337.49,155.84" fill="#88cd93"/>
<polygon points="337.49,155.84 337.49,151.84 348.62,147.34 348.62,151.34" fill="#72ac7c"/>
<polygon points="311.53,139.85 322.66,144.34 311.53,148.84 300.41,144.34" fill="#40c463"/>
<polygon points="300.41,151.34 300.41,144.34 311.53,148.84 311.53,155.84" fill="#38ac57"/>
<polygon points="311.53,155.84 311.53,148.84 322.66,144.34 322.66,151.34" fill="#2f9149"/>
<polygon points="220.67,151.09 231.80,155.59 220.67,160.08 209.54,155.59" fill="#ebedf0"/>
<polygon points="209.54,156.59 209.54,155.59 220.67,160.08 220.67,161.08" fill="#ced0d3"/>
<polygon points="220.67,161.08 220.67,160.08 231.80,155.59 231.80,156.59" fill="#adafb1"/>
<polygon points="246.63,151.09 257.76,155.59 246.63,160.08 235.50,155.59" fill="#ebedf0"/>
<polygon points="235.50,156.59 235.50,155.59 246.63,160.08 246.63,161.08" fill="#ced0d3"/>
<polygon points="246.63,161.08 246.63,160.08 257.76,155.59 257.76,156.59" fill="#adafb1"/>
<polygon points="324.51,148.09 335.64,152.59 324.51,157.08 313.39,152.59" fill="#9be9a8"/>
<polygon points="313.39,156.59 313.39,152.59 324.51,157.08 324.51,161.08" fill="#88cd93"/>
<polygon points="324.51,161.08 324.51,157.08 335.64,152.59 335.64,156.59" fill="#72ac7c"/>
<polygon points="350.48,148.09 361.60,152.59 350.48,157.08 339.35,152.59" fill="#9be9a8"/>
<polygon points="339.35,156.59 339.35,152.59 350.48,157.08 350.48,161.08" fill="#88cd93"/>
<polygon points="350.48,161.08 350.48,157.08 361.60,152.59 361.60,156.59" fill="#72ac7c"/>
<polygon points="376.44,148.09 387.56,152.59 376.44,157.08 365.31,152.59" fill="#9be9a8"/>
<polygon points="365.31,156.59 365.31,152.59 376.44,157.08 376.44,161.08" fill="#88cd93"/>
<polygon points="376.44,161.08 376.44,157.08 387.56,152.59 387.56,156.59" fill="#72ac7c"/>
<polygon points="298.55,145.09 309.68,149.59 298.55,154.08 287.43,149.59" fill="#40c463"/>
<polygon points="287.43,156.59 287.43,149.59 298.55,154.08 298.55,161.08" fill="#38ac57"/>
<polygon points="298.55,161.08 298.55,154.08 309.68,149.59 309.68,156.59" fill="#2f9149"/>
<polygon points="272.59,139.09 283.72,143.59 272.59,148.08 261.47,143.59" fill="#216e39"/>
<polygon points="261.47,156.59 261.47,143.59 272.59,148.08 272.59,161.08" fill="#1d6032"/>
<polygon points="272.59,161.08 272.59,148.08 283.72,143.59 283.72,156.59" fill="#18512a"/>
<polygon points="233.65,156.33 244.78,160.83 233.65,165.33 222.52,160.83" fill="#ebedf0"/>
<polygon points="222.52,161.83 222.52,160.83 233.65,165.33 233.65,166.33" fill="#ced0d3"/>
<polygon points="233.65,166.33 233.65,165.33 244.78,160.83 244.78,161.83" fill="#adafb1"/>
<polygon points="389.42,156.33 400.54,160.83 389.42,165.33 378.29,160.83" fill="#ebedf0"/>
<polygon points="378.29,161.83 378.29,160.83 389.42,165.33 389.42,166.33" fill="#ced0d3"/>
<polygon points="389.42,166.33 389.42,165.33 400.54,160.83 400.54,161.83" fill="#adafb1"/>
<polygon points="259.61,153.33 270.74,157.83 259.61,162.33 248.49,157.83" fill="#9be9a8"/>
<polygon points="248.49,161.83 248.49,157.83 259.61,162.33 259.61,166.33" fill="#88cd93"/>
<polygon points="259.61,166.33 259.61,162.33 270.74,157.83 270.74,161.83" fill="#72ac7c"/>
<polygon points="285.57,153.33 296.70,157.83 285.57,162.33 274.45,157.83" fill="#9be9a8"/>
<polygon points="274.45,161.83 274.45,157.83 285.57,162.33 285.57,166.33" fill="#88cd93"/>
<polygon points="285.57,166.33 285.57,162.33 296.70,157.83 296.70,161.83" fill="#72ac7c"/>
<polygon points="311.53,153.33 322.66,157.83 311.53,162.33 300.41,157.83" fill="#9be9a8"/>
<polygon points="300.41,161.83 300.41,157.83 311.53,162.33 311.53,166.33" fill="#88cd93"/>
<polygon points="311.53,166.33 311.53,162.33 322.66,157.83 322.66,161.83" fill="#72ac7c"/>
<polygon points="337.49,153.33 348.62,157.83 337.49,162.33 326.37,157.83" fill="#9be9a8"/>
<polygon points="326.37,161.83 326.37,157.83 337.49,162.33 337.49,166.33" fill="#88cd93"/>
<polygon points="337.49,166.33 337.49,162.33 348.62,157.83 348.62,161.83" fill="#72ac7c"/>
<polygon points="363.46,153.33 374.58,157.83 363.46,162.33 352.33,157.83" fill="#9be9a8"/>
<polygon points="352.33,161.83 352.33,157.83 363.46,162.33 363.46,166.33" fill="#88cd93"/>
<polygon points="363.46,166.33 363.46,162.33 374.58,157.83 374.58,161.83" fill="#72ac7c"/>
<polygon points="272.59,161.58 283.72,166.07 272.59,170.57 261.47,166.07" fill="#ebedf0"/>
<polygon points="261.47,167.07 261.47,166.07 272.59,170.57 272.59,171.57" fill="#ced0d3"/>
<polygon points="272.59,171.57 272.59,170.57 283.72,166.07 283.72,167.07" fill="#adafb1"/>
<polygon points="402.40,161.58 413.52,166.07 402.40,170.57 391.27,166.07" fill="#ebedf0"/>
<polygon points="391.27,167.07 391.27,166.07 402.40,170.57 402.40,171.57" fill="#ced0d3"/>
<polygon points="402.40,171.57 402.40,170.57 413.52,166.07 413.52,167.07" fill="#adafb1"/>
<polygon points="246.63,158.58 257.76,163.07 246.63,167.57 235.50,163.07" fill="#9be9a8"/>
<polygon points="235.50,167.07 235.50,163.07 246.63,167.57 246.63,171.57" fill="#88cd93"/>
<polygon points="246.63,171.57 246.63,167.57 257.76,163.07 257.76,167.07" fill="#72ac7c"/>
<polygon points="324.51,158.58 335.64,163.07 324.51,167.57 313.39,163.07" fill="#9be9a8"/>
<polygon points="313.39,167.07 313.39,163.07 324.51,167.57 324.51,171.57" fill="#88cd93"/>
<polygon points="324.51,171.57 324.51,167.57 335.64,163.07 335.64,167.07" fill="#72ac7c"/>
<polygon points="350.48,158.58 361.60,163.07 350.48,167.57 339.35,163.07" fill="#9be9a8"/>
<polygon points="339.35,167.07 339.35,163.07 350.48,167.57 350.48,171.57" fill="#88cd93"/>
<polygon points="350.48,171.57 350.48,167.57 361.60,163.07 361.60,167.07" fill="#72ac7c"/>
<polygon points="376.44,158.58 387.56,163.07 376.44,167.57 365.31,163.07" fill="#9be9a8"/>
<polygon points="365.31,167.07 365.31,163.07 376.44,167.57 376.44,171.57" fill="#88cd93"/>
<polygon points="376.44,171.57 376.44,167.57 387.56,163.07 387.56,167.07" fill="#72ac7c"/>
<polygon points="298.55,149.58 309.68,154.07 298.55,158.57 287.43,154.07" fill="#216e39"/>
<polygon points="287.43,167.07 287.43,154.07 298.55,158.57 298.55,171.57" fill="#1d6032"/>
<polygon points="298.55,171.57 298.55,158.57 309.68,154.07 309.68,167.07" fill="#18512a"/>
<polygon points="259.61,166.82 270.74,171.32 259.61,175.81 248.49,171.32" fill="#ebedf0"/>
<polygon points="248.49,172.32 248.49,171.32 259.61,175.81 259.61,176.81" fill="#ced0d3"/>
<polygon points="259.61,176.81 259.61,175.81 270.74,171.32 270.74,172.32" fill="#adafb1"/>
<polygon points="285.57,166.82 296.70,171.32 285.57,175.81 274.45,171.32" fill="#ebedf0"/>
<polygon points="274.45,172.32 274.45,171.32 285.57,175.81 285.57,176.81" fill="#ced0d3"/>
<polygon points="285.57,176.81 285.57,175.81 296.70,171.32 296.70,172.32" fill="#adafb1"/>
<polygon points="415.38,166.82 426.50,171.32 415.38,175.81 404.25,171.32" fill="#ebedf0"/>
<polygon points="404.25,172.32 404.25,171.32 415.38,175.81 415.38,176.81" fill="#ced0d3"/>
<polygon points="415.38,176.81 415.38,175.81 426.50,171.32 426.50,172.32" fill="#adafb1"/>
<polygon points="311.53,163.82 322.66,168.32 311.53,172.81 300.41,168.32" fill="#9be9a8"/>
<polygon points="300.41,172.32 300.41,168.32 311.53,172.81 311.53,176.81" fill="#88cd93"/>
<polygon points="311.53,176.81 311.53,172.81 322.66,168.32 322.66,172.32" fill="#72ac7c"/>
<polygon points="337.49,163.82 348.62,168.32 337.49,172.81 326.37,168.32" fill="#9be9a8"/>
<polygon points="326.37,172.32 326.37,168.32 337.49,172.81 337.49,176.81" fill="#88cd93"/>
<polygon points="337.49,176.81 337.49,172.81 348.62,168.32 348.62,172.32" fill="#72ac7c"/>
<polygon points="389.42,163.82 400.54,168.32 389.42,172.81 378.29,168.32" fill="#9be9a8"/>
<polygon points="378.29,172.32 378.29,168.32 389.42,172.81 389.42,176.81" fill="#88cd93"/>
<polygon points="389.42,176.81 389.42,172.81 400.54,168.32 400.54,172.32" fill="#72ac7c"/>
<polygon points="363.46,160.82 374.58,165.32 363.46,169.81 352.33,165.32" fill="#40c463"/>
<polygon points="352.33,172.32 352.33,165.32 363.46,169.81 363.46,176.81" fill="#38ac57"/>
<polygon points="363.46,176.81 363.46,169.81 374.58,165.32 374.58,172.32" fill="#2f9149"/>
<polygon points="272.59,172.07 283.72,176.56 272.59,181.06 261.47,176.56" fill="#ebedf0"/>
<polygon points="261.47,177.56 261.47,176.56 272.59,181.06 272.59,182.06" fill="#ced0d3"/>
<polygon points="272.59,182.06 272.59,181.06 283.72,176.56 283.72,177.56" fill="#adafb1"/>
<polygon points="376.44,172.07 387.56,176.56 376.44,181.06 365.31,176.56" fill="#ebedf0"/>
<polygon points="365.31,177.56 365.31,176.56 376.44,181.06 376.44,182.06" fill="#ced0d3"/>
<polygon points="376.44,182.06 376.44,181.06 387.56,176.56 387.56,177.56" fill="#adafb1"/>
<polygon points="402.40,172.07 413.52,176.56 402.40,181.06 391.27,176.56" fill="#ebedf0"/>
<polygon points="391.27,177.56 391.27,176.56 402.40,181.06 402.40,182.06" fill="#ced0d3"/>
<polygon points="402.40,182.06 402.40,181.06 413.52,176.56 413.52,177.56" fill="#adafb1"/>
<polygon points="428.36,172.07 439.49,176.56 428.36,181.06 417.23,176.56" fill="#ebedf0"/>
<polygon points="417.23,177.56 417.23,176.56 428.36,181.06 428.36,182.06" fill="#ced0d3"/>
<polygon points="428.36,182.06 428.36,181.06 439.49,176.56 439.49,177.56" fill="#adafb1"/>
<polygon points="298.55,169.07 309.68,173.56 298.55,178.06 287.43,173.56" fill="#9be9a8"/>
<polygon points="287.43,177.56 287.43,173.56 298.55,178.06 298.55,182.06" fill="#88cd93"/>
<polygon points="298.55,182.06 298.55,178.06 309.68,173.56 309.68,177.56" fill="#72ac7c"/>
<polygon points="324.51,169.07 335.64,173.56 324.51,178.06 313.39,173.56" fill="#9be9a8"/>
<polygon points="313.39,177.56 313.39,173.56 324.51,178.06 324.51,182.06" fill="#88cd93"/>
<polygon points="324.51,182.06 324.51,178.06 335.64,173.56 335.64,177.56" fill="#72ac7c"/>
<polygon points="350.48,169.07 361.60,173.56 350.48,178.06 339.35,173.56" fill="#9be9a8"/>
<polygon points="339.35,177.56 339.35,173.56 350.48,178.06 350.48,182.06" fill="#88cd93"/>
<polygon points="350.48,182.06 350.48,178.06 361.60,173.56 361.60,177.56" fill="#72ac7c"/>
<polygon points="285.57,177.31 296.70,181.81 285.57,186.30 274.45,181.81" fill="#ebedf0"/>
<polygon points="274.45,182.81 274.45,181.81 285.57,186.30 285.57,187.30" fill="#ced0d3"/>
<polygon points="285.57,187.30 285.57,186.30 296.70,181.81 296.70,182.81" fill="#adafb1"/>
<polygon points="363.46,177.31 374.58,181.81 363.46,186.30 352.33,181.81" fill="#ebedf0"/>
<polygon points="352.33,182.81 352.33,181.81 363.46,186.30 363.46,187.30" fill="#ced0d3"/>
<polygon points="363.46,187.30 363.46,186.30 374.58,181.81 374.58,182.81" fill="#adafb1"/>
<polygon points="415.38,177.31 426.50,181.81 415.38,186.30 404.25,181.81" fill="#ebedf0"/>
<polygon points="404.25,182.81 404.25,181.81 415.38,186.30 415.38,187.30" fill="#ced0d3"/>
<polygon points="415.38,187.30 415.38,186.30 426.50,181.81 426.50,182.81" fill="#adafb1"/>
<polygon points="311.53,174.31 322.66,178.81 311.53,183.30 300.41,178.81" fill="#9be9a8"/>
<polygon points="300.41,182.81 300.41,178.81 311.53,183.30 311.53,187.30" fill="#88cd93"/>
<polygon points="311.53,187.30 311.53,183.30 322.66,178.81 322.66,182.81" fill="#72ac7c"/>
<polygon points="337.49,174.31 348.62,178.81 337.49,183.30 326.37,178.81" fill="#9be9a8"/>
<polygon points="326.37,182.81 326.37,178.81 337.49,183.30 337.49,187.30" fill="#88cd93"/>
<polygon points="337.49,187.30 337.49,183.30 348.62,178.81 348.62,182.81" fill="#72ac7c"/>
<polygon points="389.42,174.31 400.54,178.81 389.42,183.30 378.29,178.81" fill="#9be9a8"/>
<polygon points="378.29,182.81 378.29,178.81 389.42,183.30 389.42,187.30" fill="#88cd93"/>
<polygon points="389.42,187.30 389.42,183.30 400.54,178.81 400.54,182.81" fill="#72ac7c"/>
<polygon points="441.34,174.31 452.47,178.81 441.34,183.30 430.21,178.81" fill="#9be9a8"/>
<polygon points="430.21,182.81 430.21,178.81 441.34,183.30 441.34,187.30" fill="#88cd93"/>
<polygon points="441.34,187.30 441.34,183.30 452.47,178.81 452.47,182.81" fill="#72ac7c"/>
<polygon points="298.55,182.56 309.68,187.05 298.55,191.55 287.43,187.05" fill="#ebedf0"/>
<polygon points="287.43,188.05 287.43,187.05 298.55,191.55 298.55,192.55" fill="#ced0d3"/>
<polygon points="298.55,192.55 298.55,191.55 309.68,187.05 309.68,188.05" fill="#adafb1"/>
<polygon points="350.48,182.56 361.60,187.05 350.48,191.55 339.35,187.05" fill="#ebedf0"/>
<polygon points="339.35,188.05 339.35,187.05 350.48,191.55 350.48,192.55" fill="#ced0d3"/>
<polygon points="350.48,192.55 350.48,191.55 361.60,187.05 361.60,188.05" fill="#adafb1"/>
<polygon points="454.32,182.56 465.45,187.05 454.32,191.55 443.19,187.05" fill="#ebedf0"/>
<polygon points="443.19,188.05 443.19,187.05 454.32,191.55 454.32,192.55" fill="#ced0d3"/>
<polygon points="454.32,192.55 454.32,191.55 465.45,187.05 465.45,188.05" fill="#adafb1"/>
<polygon points="324.51,179.56 335.64,184.05 324.51,188.55 313.39,184.05" fill="#9be9a8"/>
<polygon points="313.39,188.05 313.39,184.05 324.51,188.55 324.51,192.55" fill="#88cd93"/>
<polygon points="324.51,192.55 324.51,188.55 335.64,184.05 335.64,188.05" fill="#72ac7c"/>
<polygon points="376.44,179.56 387.56,184.05 376.44,188.55 365.31,184.05" fill="#9be9a8"/>
<polygon points="365.31,188.05 365.31,184.05 376.44,188.55 376.44,192.55" fill="#88cd93"/>
<polygon points="376.44,192.55 376.44,188.55 387.56,184.05 387.56,188.05" fill="#72ac7c"/>
<polygon points="402.40,179.56 413.52,184.05 402.40,188.55 391.27,184.05" fill="#9be9a8"/>
<polygon points="391.27,188.05 391.27,184.05 402.40,188.55 402.40,192.55" fill="#88cd93"/>
<polygon points="402.40,192.55 402.40,188.55 413.52,184.05 413.52,188.05" fill="#72ac7c"/>
<polygon points="428.36,179.56 439.49,184.05 428.36,188.55 417.23,184.05" fill="#9be9a8"/>
<polygon points="417.23,188.05 417.23,184.05 428.36,188.55 428.36,192.55" fill="#88cd93"/>
<polygon points="428.36,192.55 428.36,188.55 439.49,184.05 439.49,188.05" fill="#72ac7c"/>
<polygon points="311.53,187.80 322.66,192.30 311.53,196.79 300.41,192.30" fill="#ebedf0"/>
<polygon points="300.41,193.30 300.41,192.30 311.53,196.79 311.53,197.79" fill="#ced0d3"/>
<polygon points="311.53,197.79 311.53,196.79 322.66,192.30 322.66,193.30" fill="#adafb1"/>
<polygon points="337.49,187.80 348.62,192.30 337.49,196.79 326.37,192.30" fill="#ebedf0"/>
<polygon points="326.37,193.30 326.37,192.30 337.49,196.79 337.49,197.79" fill="#ced0d3"/>
<polygon points="337.49,197.79 337.49,196.79 348.62,192.30 348.62,193.30" fill="#adafb1"/>
<polygon points="363.46,187.80 374.58,192.30 363.46,196.79 352.33,192.30" fill="#ebedf0"/>
<polygon points="352.33,193.30 352.33,192.30 363.46,196.79 363.46,197.79" fill="#ced0d3"/>
<polygon points="363.46,197.79 363.46,196.79 374.58,192.30 374.58,193.30" fill="#adafb1"/>
<polygon points="389.42,187.80 400.54,192.30 389.42,196.79 378.29,192.30" fill="#ebedf0"/>
<polygon points="378.29,193.30 378.29,192.30 389.42,196.79 389.42,197.79" fill="#ced0d3"/>
<polygon points="389.42,197.79 389.42,196.79 400.54,192.30 400.54,193.30" fill="#adafb1"/>
<polygon points="467.30,187.80 478.43,192.30 467.30,196.79 456.17,192.30" fill="#ebedf0"/>
<polygon points="456.17,193.30 456.17,192.30 467.30,196.79 467.30,197.79" fill="#ced0d3"/>
<polygon points="467.30,197.79 467.30,196.79 478.43,192.30 478.43,193.30" fill="#adafb1"/>
<polygon points="415.38,184.80 426.50,189.30 415.38,193.79 404.25,189.30" fill="#9be9a8"/>
<polygon points="404.25,193.30 404.25,189.30 415.38,193.79 415.38,197.79" fill="#88cd93"/>
<polygon points="415.38,197.79 415.38,193.79 426.50,189.30 426.50,193.30" fill="#72ac7c"/>
<polygon points="441.34,184.80 452.47,189.30 441.34,193.79 430.21,189.30" fill="#9be9a8"/>
<polygon points="430.21,193.30 430.21,189.30 441.34,193.79 441.34,197.79" fill="#88cd93"/>
<polygon points="441.34,197.79 441.34,193.79 452.47,189.30 452.47,193.30" fill="#72ac7c"/>
<polygon points="324.51,193.05 335.64,197.54 324.51,202.04 313.39,197.54" fill="#ebedf0"/>
<polygon points="313.39,198.54 313.39,197.54 324.51,202.04 324.51,203.04" fill="#ced0d3"/>
<polygon points="324.51,203.04 324.51,202.04 335.64,197.54 335.64,198.54" fill="#adafb1"/>
<polygon points="428.36,193.05 439.49,197.54 428.36,202.04 417.23,197.54" fill="#ebedf0"/>
<polygon points="417.23,198.54 417.23,197.54 428.36,202.04 428.36,203.04" fill="#ced0d3"/>
<polygon points="428.36,203.04 428.36,202.04 439.49,197.54 439.49,198.54" fill="#adafb1"/>
<polygon points="350.48,190.05 361.60,194.54 350.48,199.04 339.35,194.54" fill="#9be9a8"/>
<polygon points="339.35,198.54 339.35,194.54 350.48,199.04 350.48,203.04" fill="#88cd93"/>
<polygon points="350.48,203.04 350.48,199.04 361.60,194.54 361.60,198.54" fill="#72ac7c"/>
<polygon points="376.44,190.05 387.56,194.54 376.44,199.04 365.31,194.54" fill="#9be9a8"/>
<polygon points="365.31,198.54 365.31,194.54 376.44,199.04 376.44,203.04" fill="#88cd93"/>
<polygon points="376.44,203.04 376.44,199.04 387.56,194.54 387.56,198.54" fill="#72ac7c"/>
<polygon points="402.40,190.05 413.52,194.54 402.40,199.04 391.27,194.54" fill="#9be9a8"/>
<polygon points="391.27,198.54 391.27,194.54 402.40,199.04 402.40,203.04" fill="#88cd93"/>
<polygon points="402.40,203.04 402.40,199.04 413.52,194.54 413.52,198.54" fill="#72ac7c"/>
<polygon points="454.32,190.05 465.45,194.54 454.32,199.04 443.19,194.54" fill="#9be9a8"/>
<polygon points="443.19,198.54 443.19,194.54 454.32,199.04 454.32,203.04" fill="#88cd93"/>
<polygon points="454.32,203.04 454.32,199.04 465.45,194.54 465.45,198.54" fill="#72ac7c"/>
<polygon points="480.28,190.05 491.41,194.54 480.28,199.04 469.16,194.54" fill="#9be9a8"/>
<polygon points="469.16,198.54 469.16,194.54 480.28,199.04 480.28,203.04" fill="#88cd93"/>
<polygon points="480.28,203.04 480.28,199.04 491.41,194.54 491.41,198.54" fill="#72ac7c"/>
<polygon points="337.49,198.29 348.62,202.79 337.49,207.28 326.37,202.79" fill="#ebedf0"/>
<polygon points="326.37,203.79 326.37,202.79 337.49,207.28 337.49,208.28" fill="#ced0d3"/>
<polygon points="337.49,208.28 337.49,207.28 348.62,202.79 348.62,203.79" fill="#adafb1"/>
<polygon points="415.38,198.29 426.50,202.79 415.38,207.28 404.25,202.79" fill="#ebedf0"/>
<polygon points="404.25,203.79 404.25,202.79 415.38,207.28 415.38,208.28" fill="#ced0d3"/>
<polygon points="415.38,208.28 415.38,207.28 426.50,202.79 426.50,203.79" fill="#adafb1"/>
<polygon points="441.34,198.29 452.47,202.79 441.34,207.28 430.21,202.79" fill="#ebedf0"/>
<polygon points="430.21,203.79 430.21,202.79 441.34,207.28 441.34,208.28" fill="#ced0d3"/>
<polygon points="441.34,208.28 441.34,207.28 452.47,202.79 452.47,203.79" fill="#adafb1"/>
<polygon points="467.30,198.29 478.43,202.79 467.30,207.28 456.17,202.79" fill="#ebedf0"/>
<polygon points="456.17,203.79 456.17,202.79 467.30,207.28 467.30,208.28" fill="#ced0d3"/>
<polygon points="467.30,208.28 467.30,207.28 478.43,202.79 478.43,203.79" fill="#adafb1"/>
<polygon points="493.26,198.29 504.39,202.79 493.26,207.28 482.14,202.79" fill="#ebedf0"/>
<polygon points="482.14,203.79 482.14,202.79 493.26,207.28 493.26,208.28" fill="#ced0d3"/>
<polygon points="493.26,208.28 493.26,207.28 504.39,202.79 504.39,203.79" fill="#adafb1"/>
<polygon points="363.46,195.29 374.58,199.79 363.46,204.28 352.33,199.79" fill="#9be9a8"/>
<polygon points="352.33,203.79 352.33,199.79 363.46,204.28 363.46,208.28" fill="#88cd93"/>
<polygon points="363.46,208.28 363.46,204.28 374.58,199.79 374.58,203.79" fill="#72ac7c"/>
<polygon points="389.42,195.29 400.54,199.79 389.42,204.28 378.29,199.79" fill="#9be9a8"/>
<polygon points="378.29,203.79 378.29,199.79 389.42,204.28 389.42,208.28" fill="#88cd93"/>
<polygon points="389.42,208.28 389.42,204.28 400.54,199.79 400.54,203.79" fill="#72ac7c"/>
<polygon points="350.48,203.54 361.60,208.03 350.48,212.53 339.35,208.03" fill="#ebedf0"/>
<polygon points="339.35,209.03 339.35,208.03 350.48,212.53 350.48,213.53" fill="#ced0d3"/>
<polygon points="350.48,213.53 350.48,212.53 361.60,208.03 361.60,209.03" fill="#adafb1"/>
<polygon points="376.44,203.54 387.56,208.03 376.44,212.53 365.31,208.03" fill="#ebedf0"/>
<polygon points="365.31,209.03 365.31,208.03 376.44,212.53 376.44,213.53" fill="#ced0d3"/>
<polygon points="376.44,213.53 376.44,212.53 387.56,208.03 387.56,209.03" fill="#adafb1"/>
<polygon points="402.40,203.54 413.52,208.03 402.40,212.53 391.27,208.03" fill="#ebedf0"/>
<polygon points="391.27,209.03 391.27,208.03 402.40,212.53 402.40,213.53" fill="#ced0d3"/>
<polygon points="402.40,213.53 402.40,212.53 413.52,208.03 413.52,209.03" fill="#adafb1"/>
<polygon points="428.36,203.54 439.49,208.03 428.36,212.53 417.23,208.03" fill="#ebedf0"/>
<polygon points="417.23,209.03 417.23,208.03 428.36,212.53 428.36,213.53" fill="#ced0d3"/>
<polygon points="428.36,213.53 428.36,212.53 439.49,208.03 439.49,209.03" fill="#adafb1"/>
<polygon points="506.24,203.54 517.37,208.03 506.24,212.53 495.12,208.03" fill="#ebedf0"/>
<polygon points="495.12,209.03 495.12,208.03 506.24,212.53 506.24,213.53" fill="#ced0d3"/>
<polygon points="506.24,213.53 506.24,212.53 517.37,208.03 517.37,209.03" fill="#adafb1"/>
<polygon points="454.32,200.54 465.45,205.03 454.32,209.53 443.19,205.03" fill="#9be9a8"/>
<polygon points="443.19,209.03 443.19,205.03 454.32,209.53 454.32,213.53" fill="#88cd93"/>
<polygon points="454.32,213.53 454.32,209.53 465.45,205.03 465.45,209.03" fill="#72ac7c"/>
<polygon points="480.28,200.54 491.41,205.03 480.28,209.53 469.16,205.03" fill="#9be9a8"/>
<polygon points="469.16,209.03 469.16,205.03 480.28,209.53 480.28,213.53" fill="#88cd93"/>
<polygon points="480.28,213.53 480.28,209.53 491.41,205.03 491.41,209.03" fill="#72ac7c"/>
<polygon points="363.46,208.78 374.58,213.27 363.46,217.77 352.33,213.27" fill="#ebedf0"/>
<polygon points="352.33,214.27 352.33,213.27 363.46,217.77 363.46,218.77" fill="#ced0d3"/>
<polygon points="363.46,218.77 363.46,217.77 374.58,213.27 374.58,214.27" fill="#adafb1"/>
<polygon points="389.42,208.78 400.54,213.27 389.42,217.77 378.29,213.27" fill="#ebedf0"/>
<polygon points="378.29,214.27 378.29,213.27 389.42,217.77 389.42,218.77" fill="#ced0d3"/>
<polygon points="389.42,218.77 389.42,217.77 400.54,213.27 400.54,214.27" fill="#adafb1"/>
<polygon points="415.38,208.78 426.50,213.27 415.38,217.77 404.25,213.27" fill="#ebedf0"/>
<polygon points="404.25,214.27 404.25,213.27 415.38,217.77 415.38,218.77" fill="#ced0d3"/>
<polygon points="415.38,218.77 415.38,217.77 426.50,213.27 426.50,214.27" fill="#adafb1"/>
<polygon points="467.30,208.78 478.43,213.27 467.30,217.77 456.17,213.27" fill="#ebedf0"/>
<polygon points="456.17,214.27 456.17,213.27 467.30,217.77 467.30,218.77" fill="#ced0d3"/>
<polygon points="467.30,218.77 467.30,217.77 478.43,213.27 478.43,214.27" fill="#adafb1"/>
<polygon points="519.22,208.78 530.35,213.27 519.22,217.77 508.10,213.27" fill="#ebedf0"/>
<polygon points="508.10,214.27 508.10,213.27 519.22,217.77 519.22,218.77" fill="#ced0d3"/>
<polygon points="519.22,218.77 519.22,217.77 530.35,213.27 530.35,214.27" fill="#adafb1"/>
<polygon points="441.34,205.78 452.47,210.27 441.34,214.77 430.21,210.27" fill="#9be9a8"/>
<polygon points="430.21,214.27 430.21,210.27 441.34,214.77 441.34,218.77" fill="#88cd93"/>
<polygon points="441.34,218.77 441.34,214.77 452.47,210.27 452.47,214.27" fill="#72ac7c"/>
<polygon points="493.26,205.78 504.39,210.27 493.26,214.77 482.14,210.27" fill="#9be9a8"/>
<polygon points="482.14,214.27 482.14,210.27 493.26,214.77 493.26,218.77" fill="#88cd93"/>
<polygon points="493.26,218.77 493.26,214.77 504.39,210.27 504.39,214.27" fill="#72ac7c"/>
<polygon points="376.44,214.02 387.56,218.52 376.44,223.01 365.31,218.52" fill="#ebedf0"/>
<polygon points="365.31,219.52 365.31,218.52 376.44,223.01 376.44,224.01" fill="#ced0d3"/>
<polygon points="376.44,224.01 376.44,223.01 387.56,218.52 387.56,219.52" fill="#adafb1"/>
<polygon points="480.28,214.02 491.41,218.52 480.28,223.01 469.16,218.52" fill="#ebedf0"/>
<polygon points="469.16,219.52 469.16,218.52 480.28,223.01 480.28,224.01" fill="#ced0d3"/>
<polygon points="480.28,224.01 480.28,223.01 491.41,218.52 491.41,219.52" fill="#adafb1"/>
<polygon points="428.36,211.02 439.49,215.52 428.36,220.01 417.23,215.52" fill="#9be9a8"/>
<polygon points="417.23,219.52 417.23,215.52 428.36,220.01 428.36,224.01" fill="#88cd93"/>
<polygon points="428.36,224.01 428.36,220.01 439.49,215.52 439.49,219.52" fill="#72ac7c"/>
<polygon points="454.32,211.02 465.45,215.52 454.32,220.01 443.19,215.52" fill="#9be9a8"/>
<polygon points="443.19,219.52 443.19,215.52 454.32,220.01 454.32,224.01" fill="#88cd93"/>
<polygon points="454.32,224.01 454.32,220.01 465.45,215.52 465.45,219.52" fill="#72ac7c"/>
<polygon points="506.24,211.02 517.37,215.52 506.24,220.01 495.12,215.52" fill="#9be9a8"/>
<polygon points="495.12,219.52 495.12,215.52 506.24,220.01 506.24,224.01" fill="#88cd93"/>
<polygon points="506.24,224.01 506.24,220.01 517.37,215.52 517.37,219.52" fill="#72ac7c"/>
<polygon points="532.20,211.02 543.33,215.52 532.20,220.01 521.08,215.52" fill="#9be9a8"/>
<polygon points="521.08,219.52 521.08,215.52 532.20,220.01 532.20,224.01" fill="#88cd93"/>
<polygon points="532.20,224.01 532.20,220.01 543.33,215.52 543.33,219.52" fill="#72ac7c"/>
<polygon points="402.40,205.02 413.52,209.52 402.40,214.01 391.27,209.52" fill="#30a14e"/>
<polygon points="391.27,219.52 391.27,209.52 402.40,214.01 402.40,224.01" fill="#2a8d44"/>
<polygon points="402.40,224.01 402.40,214.01 413.52,209.52 413.52,219.52" fill="#237739"/>
<polygon points="415.38,219.27 426.50,223.76 415.38,228.26 404.25,223.76" fill="#ebedf0"/>
<polygon points="404.25,224.76 404.25,223.76 415.38,228.26 415.38,229.26" fill="#ced0d3"/>
<polygon points="415.38,229.26 415.38,228.26 426.50,223.76 426.50,224.76" fill="#adafb1"/>
<polygon points="519.22,219.27 530.35,223.76 519.22,228.26 508.10,223.76" fill="#ebedf0"/>
<polygon points="508.10,224.76 508.10,223.76 519.22,228.26 519.22,229.26" fill="#ced0d3"/>
<polygon points="519.22,229.26 519.22,228.26 530.35,223.76 530.35,224.76" fill="#adafb1"/>
<polygon points="545.18,219.27 556.31,223.76 545.18,228.26 534.06,223.76" fill="#ebedf0"/>
<polygon points="534.06,224.76 534.06,223.76 545.18,228.26 545.18,229.26" fill="#ced0d3"/>
<polygon points="545.18,229.26 545.18,228.26 556.31,223.76 556.31,224.76" fill="#adafb1"/>
<polygon points="389.42,216.27 400.54,220.76 389.42,225.26 378.29,220.76" fill="#9be9a8"/>
<polygon points="378.29,224.76 378.29,220.76 389.42,225.26 389.42,229.26" fill="#88cd93"/>
<polygon points="389.42,229.26 389.42,225.26 400.54,220.76 400.54,224.76" fill="#72ac7c"/>
<polygon points="441.34,216.27 452.47,220.76 441.34,225.26 430.21,220.76" fill="#9be9a8"/>
<polygon points="430.21,224.76 430.21,220.76 441.34,225.26 441.34,229.26" fill="#88cd93"/>
<polygon points="441.34,229.26 441.34,225.26 452.47,220.76 452.47,224.76" fill="#72ac7c"/>
<polygon points="467.30,216.27 478.43,220.76 467.30,225.26 456.17,220.76" fill="#9be9a8"/>
<polygon points="456.17,224.76 456.17,220.76 467.30,225.26 467.30,229.26" fill="#88cd93"/>
<polygon points="467.30,229.26 467.30,225.26 478.43,220.76 478.43,224.76" fill="#72ac7c"/>
<polygon points="493.26,216.27 504.39,220.76 493.26,225.26 482.14,220.76" fill="#9be9a8"/>
<polygon points="482.14,224.76 482.14,220.76 493.26,225.26 493.26,229.26" fill="#88cd93"/>
<polygon points="493.26,229.26 493.26,225.26 504.39,220.76 504.39,224.76" fill="#72ac7c"/>
<polygon points="428.36,224.51 439.49,229.01 428.36,233.50 417.23,229.01" fill="#ebedf0"/>
<polygon points="417.23,230.01 417.23,229.01 428.36,233.50 428.36,234.50" fill="#ced0d3"/>
<polygon points="428.36,234.50 428.36,233.50 439.49,229.01 439.49,230.01" fill="#adafb1"/>
<polygon points="532.20,224.51 543.33,229.01 532.20,233.50 521.08,229.01" fill="#ebedf0"/>
<polygon points="521.08,230.01 521.08,229.01 532.20,233.50 532.20,234.50" fill="#ced0d3"/>
<polygon points="532.20,234.50 532.20,233.50 543.33,229.01 543.33,230.01" fill="#adafb1"/>
<polygon points="402.40,221.51 413.52,226.01 402.40,230.50 391.27,226.01" fill="#9be9a8"/>
<polygon points="391.27,230.01 391.27,226.01 402.40,230.50 402.40,234.50" fill="#88cd93"/>
<polygon points="402.40,234.50 402.40,230.50 413.52,226.01 413.52,230.01" fill="#72ac7c"/>
<polygon points="480.28,221.51 491.41,226.01 480.28,230.50 469.16,226.01" fill="#9be9a8"/>
<polygon points="469.16,230.01 469.16,226.01 480.28,230.50 480.28,234.50" fill="#88cd93"/>
<polygon points="480.28,234.50 480.28,230.50 491.41,226.01 491.41,230.01" fill="#72ac7c"/>
<polygon points="506.24,221.51 517.37,226.01 506.24,230.50 495.12,226.01" fill="#9be9a8"/>
<polygon points="495.12,230.01 495.12,226.01 506.24,230.50 506.24,234.50" fill="#88cd93"/>
<polygon points="506.24,234.50 506.24,230.50 517.37,226.01 517.37,230.01" fill="#72ac7c"/>
<polygon points="558.16,218.51 569.29,223.01 558.16,227.50 547.04,223.01" fill="#40c463"/>
<polygon points="547.04,230.01 547.04,223.01 558.16,227.50 558.16,234.50" fill="#38ac57"/>
<polygon points="558.16,234.50 558.16,227.50 569.29,223.01 569.29,230.01" fill="#2f9149"/>
<polygon points="454.32,212.51 465.45,217.01 454.32,221.50 443.19,217.01" fill="#216e39"/>
<polygon points="443.19,230.01 443.19,217.01 454.32,221.50 454.32,234.50" fill="#1d6032"/>
<polygon points="454.32,234.50 454.32,221.50 465.45,217.01 465.45,230.01" fill="#18512a"/>
<polygon points="415.38,229.76 426.50,234.25 415.38,238.75 404.25,234.25" fill="#ebedf0"/>
<polygon points="404.25,235.25 404.25,234.25 415.38,238.75 415.38,239.75" fill="#ced0d3"/>
<polygon points="415.38,239.75 415.38,238.75 426.50,234.25 426.50,235.25" fill="#adafb1"/>
<polygon points="467.30,229.76 478.43,234.25 467.30,238.75 456.17,234.25" fill="#ebedf0"/>
<polygon points="456.17,235.25 456.17,234.25 467.30,238.75 467.30,239.75" fill="#ced0d3"/>
<polygon points="467.30,239.75 467.30,238.75 478.43,234.25 478.43,235.25" fill="#adafb1"/>
<polygon points="493.26,229.76 504.39,234.25 493.26,238.75 482.14,234.25" fill="#ebedf0"/>
<polygon points="482.14,235.25 482.14,234.25 493.26,238.75 493.26,239.75" fill="#ced0d3"/>
<polygon points="493.26,239.75 493.26,238.75 504.39,234.25 504.39,235.25" fill="#adafb1"/>
<polygon points="441.34,226.76 452.47,231.25 441.34,235.75 430.21,231.25" fill="#9be9a8"/>
<polygon points="430.21,235.25 430.21,231.25 441.34,235.75 441.34,239.75" fill="#88cd93"/>
<polygon points="441.34,239.75 441.34,235.75 452.47,231.25 452.47,235.25" fill="#72ac7c"/>
<polygon points="519.22,226.76 530.35,231.25 519.22,235.75 508.10,231.25" fill="#9be9a8"/>
<polygon points="508.10,235.25 508.10,231.25 519.22,235.75 519.22,239.75" fill="#88cd93"/>
<polygon points="519.22,239.75 519.22,235.75 530.35,231.25 530.35,235.25" fill="#72ac7c"/>
<polygon points="545.18,226.76 556.31,231.25 545.18,235.75 534.06,231.25" fill="#9be9a8"/>
<polygon points="534.06,235.25 534.06,231.25 545.18,235.75 545.18,239.75" fill="#88cd93"/>
<polygon points="545.18,239.75 545.18,235.75 556.31,231.25 556.31,235.25" fill="#72ac7c"/>
<polygon points="571.15,226.76 582.27,231.25 571.15,235.75 560.02,231.25" fill="#9be9a8"/>
<polygon points="560.02,235.25 560.02,231.25 571.15,235.75 571.15,239.75" fill="#88cd93"/>
<polygon points="571.15,239.75 571.15,235.75 582.27,231.25 582.27,235.25" fill="#72ac7c"/>
<polygon points="584.13,235.00 595.25,239.50 584.13,243.99 573.00,239.50" fill="#ebedf0"/>
<polygon points="573.00,240.50 573.00,239.50 584.13,243.99 584.13,244.99" fill="#ced0d3"/>
<polygon points="584.13,244.99 584.13,243.99 595.25,239.50 595.25,240.50" fill="#adafb1"/>
<polygon points="428.36,232.00 439.49,236.50 428.36,240.99 417.23,236.50" fill="#9be9a8"/>
<polygon points="417.23,240.50 417.23,236.50 428.36,240.99 428.36,244.99" fill="#88cd93"/>
<polygon points="428.36,244.99 428.36,240.99 439.49,236.50 439.49,240.50" fill="#72ac7c"/>
<polygon points="454.32,232.00 465.45,236.50 454.32,240.99 443.19,236.50" fill="#9be9a8"/>
<polygon points="443.19,240.50 443.19,236.50 454.32,240.99 454.32,244.99" fill="#88cd93"/>
<polygon points="454.32,244.99 454.32,240.99 465.45,236.50 465.45,240.50" fill="#72ac7c"/>
<polygon points="480.28,232.00 491.41,236.50 480.28,240.99 469.16,236.50" fill="#9be9a8"/>
<polygon points="469.16,240.50 469.16,236.50 480.28,240.99 480.28,244.99" fill="#88cd93"/>
<polygon points="480.28,244.99 480.28,240.99 491.41,236.50 491.41,240.50" fill="#72ac7c"/>
<polygon points="506.24,232.00 517.37,236.50 506.24,240.99 495.12,236.50" fill="#9be9a8"/>
<polygon points="495.12,240.50 495.12,236.50 506.24,240.99 506.24,244.99" fill="#88cd93"/>
<polygon points="506.24,244.99 506.24,240.99 517.37,236.50 517.37,240.50" fill="#72ac7c"/>
<polygon points="532.20,232.00 543.33,236.50 532.20,240.99 521.08,236.50" fill="#9be9a8"/>
<polygon points="521.08,240.50 521.08,236.50 532.20,240.99 532.20,244.99" fill="#88cd93"/>
<polygon points="532.20,244.99 532.20,240.99 543.33,236.50 543.33,240.50" fill="#72ac7c"/>
<polygon points="558.16,229.00 569.29,233.50 558.16,237.99 547.04,233.50" fill="#40c463"/>
<polygon points="547.04,240.50 547.04,233.50 558.16,237.99 558.16,244.99" fill="#38ac57"/>
<polygon points="558.16,244.99 558.16,237.99 569.29,233.50 569.29,240.50" fill="#2f9149"/>
<polygon points="441.34,240.25 452.47,244.74 441.34,249.24 430.21,244.74" fill="#ebedf0"/>
<polygon points="430.21,245.74 430.21,244.74 441.34,249.24 441.34,250.24" fill="#ced0d3"/>
<polygon points="441.34,250.24 441.34,249.24 452.47,244.74 452.47,245.74" fill="#adafb1"/>
<polygon points="467.30,240.25 478.43,244.74 467.30,249.24 456.17,244.74" fill="#ebedf0"/>
<polygon points="456.17,245.74 456.17,244.74 467.30,249.24 467.30,250.24" fill="#ced0d3"/>
<polygon points="467.30,250.24 467.30,249.24 478.43,244.74 478.43,245.74" fill="#adafb1"/>
<polygon points="493.26,237.25 504.39,241.74 493.26,246.24 482.14,241.74" fill="#9be9a8"/>
<polygon points="482.14,245.74 482.14,241.74 493.26,246.24 493.26,250.24" fill="#88cd93"/>
<polygon points="493.26,250.24 493.26,246.24 504.39,241.74 504.39,245.74" fill="#72ac7c"/>
<polygon points="571.15,237.25 582.27,241.74 571.15,246.24 560.02,241.74" fill="#9be9a8"/>
<polygon points="560.02,245.74 560.02,241.74 571.15,246.24 571.15,250.24" fill="#88cd93"/>
<polygon points="571.15,250.24 571.15,246.24 582.27,241.74 582.27,245.74" fill="#72ac7c"/>
<polygon points="597.11,237.25 608.23,241.74 597.11,246.24 585.98,241.74" fill="#9be9a8"/>
<polygon points="585.98,245.74 585.98,241.74 597.11,246.24 597.11,250.24" fill="#88cd93"/>
<polygon points="597.11,250.24 597.11,246.24 608.23,241.74 608.23,245.74" fill="#72ac7c"/>
<polygon points="519.22,234.25 530.35,238.74 519.22,243.24 508.10,238.74" fill="#40c463"/>
<polygon points="508.10,245.74 508.10,238.74 519.22,243.24 519.22,250.24" fill="#38ac57"/>
<polygon points="519.22,250.24 519.22,243.24 530.35,238.74 530.35,245.74" fill="#2f9149"/>
<polygon points="545.18,231.25 556.31,235.74 545.18,240.24 534.06,235.74" fill="#30a14e"/>
<polygon points="534.06,245.74 534.06,235.74 545.18,240.24 545.18,250.24" fill="#2a8d44"/>
<polygon points="545.18,250.24 545.18,240.24 556.31,235.74 556.31,245.74" fill="#237739"/>
<polygon points="454.32,245.49 465.45,249.99 454.32,254.48 443.19,249.99" fill="#ebedf0"/>
<polygon points="443.19,250.99 443.19,249.99 454.32,254.48 454.32,255.48" fill="#ced0d3"/>
<polygon points="454.32,255.48 454.32,254.48 465.45,249.99 465.45,250.99" fill="#adafb1"/>
<polygon points="506.24,242.49 517.37,246.99 506.24,251.48 495.12,246.99" fill="#9be9a8"/>
<polygon points="495.12,250.99 495.12,246.99 506.24,251.48 506.24,255.48" fill="#88cd93"/>
<polygon points="506.24,255.48 506.24,251.48 517.37,246.99 517.37,250.99" fill="#72ac7c"/>
<polygon points="558.16,242.49 569.29,246.99 558.16,251.48 547.04,246.99" fill="#9be9a8"/>
<polygon points="547.04,250.99 547.04,246.99 558.16,251.48 558.16,255.48" fill="#88cd93"/>
<polygon points="558.16,255.48 558.16,251.48 569.29,246.99 569.29,250.99" fill="#72ac7c"/>
<polygon points="610.09,242.49 621.21,246.99 610.09,251.48 598.96,246.99" fill="#9be9a8"/>
<polygon points="598.96,250.99 598.96,246.99 610.09,251.48 610.09,255.48" fill="#88cd93"/>
<polygon points="610.09,255.48 610.09,251.48 621.21,246.99 621.21,250.99" fill="#72ac7c"/>
<polygon points="532.20,239.49 543.33,243.99 532.20,248.48 521.08,243.99" fill="#40c463"/>
<polygon points="521.08,250.99 521.08,243.99 532.20,248.48 532.20,255.48" fill="#38ac57"/>
<polygon points="532.20,255.48 532.20,248.48 543.33,243.99 543.33,250.99" fill="#2f9149"/>
<polygon points="584.13,239.49 595.25,243.99 584.13,248.48 573.00,243.99" fill="#40c463"/>
<polygon points="573.00,250.99 573.00,243.99 584.13,248.48 584.13,255.48" fill="#38ac57"/>
<polygon points="584.13,255.48 584.13,248.48 595.25,243.99 595.25,250.99" fill="#2f9149"/>
<polygon points="480.28,236.49 491.41,240.99 480.28,245.48 469.16,240.99" fill="#30a14e"/>
<polygon points="469.16,250.99 469.16,240.99 480.28,245.48 480.28,255.48" fill="#2a8d44"/>
<polygon points="480.28,255.48 480.28,245.48 491.41,240.99 491.41,250.99" fill="#237739"/>
<polygon points="493.26,250.74 504.39,255.23 493.26,259.73 482.14,255.23" fill="#ebedf0"/>
<polygon points="482.14,256.23 482.14,255.23 493.26,259.73 493.26,260.73" fill="#ced0d3"/>
<polygon points="493.26,260.73 493.26,259.73 504.39,255.23 504.39,256.23" fill="#adafb1"/>
<polygon points="467.30,247.74 478.43,252.23 467.30,256.73 456.17,252.23" fill="#9be9a8"/>
<polygon points="456.17,256.23 456.17,252.23 467.30,256.73 467.30,260.73" fill="#88cd93"/>
<polygon points="467.30,260.73 467.30,256.73 478.43,252.23 478.43,256.23" fill="#72ac7c"/>
<polygon points="519.22,247.74 530.35,252.23 519.22,256.73 508.10,252.23" fill="#9be9a8"/>
<polygon points="508.10,256.23 508.10,252.23 519.22,256.73 519.22,260.73" fill="#88cd93"/>
<polygon points="519.22,260.73 519.22,256.73 530.35,252.23 530.35,256.23" fill="#72ac7c"/>
<polygon points="545.18,247.74 556.31,252.23 545.18,256.73 534.06,252.23" fill="#9be9a8"/>
<polygon points="534.06,256.23 534.06,252.23 545.18,256.73 545.18,260.73" fill="#88cd93"/>
<polygon points="545.18,260.73 545.18,256.73 556.31,252.23 556.31,256.23" fill="#72ac7c"/>
<polygon points="571.15,247.74 582.27,252.23 571.15,256.73 560.02,252.23" fill="#9be9a8"/>
<polygon points="560.02,256.23 560.02,252.23 571.15,256.73 571.15,260.73" fill="#88cd93"/>
<polygon points="571.15,260.73 571.15,256.73 582.27,252.23 582.27,256.23" fill="#72ac7c"/>
<polygon points="597.11,247.74 608.23,252.23 597.11,256.73 585.98,252.23" fill="#9be9a8"/>
<polygon points="585.98,256.23 585.98,252.23 597.11,256.73 597.11,260.73" fill="#88cd93"/>
<polygon points="597.11,260.73 597.11,256.73 608.23,252.23 608.23,256.23" fill="#72ac7c"/>
<polygon points="623.07,244.74 634.19,249.23 623.07,253.73 611.94,249.23" fill="#40c463"/>
<polygon points="611.94,256.23 611.94,249.23 623.07,253.73 623.07,260.73" fill="#38ac57"/>
<polygon points="623.07,260.73 623.07,253.73 634.19,249.23 634.19,256.23" fill="#2f9149"/>
<polygon points="636.05,255.98 647.17,260.48 636.05,264.97 624.92,260.48" fill="#ebedf0"/>
<polygon points="624.92,261.48 624.92,260.48 636.05,264.97 636.05,265.97" fill="#ced0d3"/>
<polygon points="636.05,265.97 636.05,264.97 647.17,260.48 647.17,261.48" fill="#adafb1"/>
<polygon points="480.28,252.98 491.41,257.48 480.28,261.97 469.16,257.48" fill="#9be9a8"/>
<polygon points="469.16,261.48 469.16,257.48 480.28,261.97 480.28,265.97" fill="#88cd93"/>
<polygon points="480.28,265.97 480.28,261.97 491.41,257.48 491.41,261.48" fill="#72ac7c"/>
<polygon points="506.24,252.98 517.37,257.48 506.24,261.97 495.12,257.48" fill="#9be9a8"/>
<polygon points="495.12,261.48 495.12,257.48 506.24,261.97 506.24,265.97" fill="#88cd93"/>
<polygon points="506.24,265.97 506.24,261.97 517.37,257.48 517.37,261.48" fill="#72ac7c"/>
<polygon points="532.20,252.98 543.33,257.48 532.20,261.97 521.08,257.48" fill="#9be9a8"/>
<polygon points="521.08,261.48 521.08,257.48 532.20,261.97 532.20,265.97" fill="#88cd93"/>
<polygon points="532.20,265.97 532.20,261.97 543.33,257.48 543.33,261.48" fill="#72ac7c"/>
<polygon points="558.16,252.98 569.29,257.48 558.16,261.97 547.04,257.48" fill="#9be9a8"/>
<polygon points="547.04,261.48 547.04,257.48 558.16,261.97 558.16,265.97" fill="#88cd93"/>
<polygon points="558.16,265.97 558.16,261.97 569.29,257.48 569.29,261.48" fill="#72ac7c"/>
<polygon points="584.13,252.98 595.25,257.48 584.13,261.97 573.00,257.48" fill="#9be9a8"/>
<polygon points="573.00,261.48 573.00,257.48 584.13,261.97 584.13,265.97" fill="#88cd93"/>
<polygon points="584.13,265.97 584.13,261.97 595.25,257.48 595.25,261.48" fill="#72ac7c"/>
<polygon points="610.09,252.98 621.21,257.48 610.09,261.97 598.96,257.48" fill="#9be9a8"/>
<polygon points="598.96,261.48 598.96,257.48 610.09,261.97 610.09,265.97" fill="#88cd93"/>
<polygon points="610.09,265.97 610.09,261.97 621.21,257.48 621.21,261.48" fill="#72ac7c"/>
<polygon points="493.26,261.22 504.39,265.72 493.26,270.22 482.14,265.72" fill="#ebedf0"/>
<polygon points="482.14,266.72 482.14,265.72 493.26,270.22 493.26,271.22" fill="#ced0d3"/>
<polygon points="493.26,271.22 493.26,270.22 504.39,265.72 504.39,266.72" fill="#adafb1"/>
<polygon points="545.18,261.22 556.31,265.72 545.18,270.22 534.06,265.72" fill="#ebedf0"/>
<polygon points="534.06,266.72 534.06,265.72 545.18,270.22 545.18,271.22" fill="#ced0d3"/>
<polygon points="545.18,271.22 545.18,270.22 556.31,265.72 556.31,266.72" fill="#adafb1"/>
<polygon points="649.03,261.22 660.15,265.72 649.03,270.22 637.90,265.72" fill="#ebedf0"/>
<polygon points="637.90,266.72 637.90,265.72 649.03,270.22 649.03,271.22" fill="#ced0d3"/>
<polygon points="649.03,271.22 649.03,270.22 660.15,265.72 660.15,266.72" fill="#adafb1"/>
<polygon points="519.22,258.22 530.35,262.72 519.22,267.22 508.10,262.72" fill="#9be9a8"/>
<polygon points="508.10,266.72 508.10,262.72 519.22,267.22 519.22,271.22" fill="#88cd93"/>
<polygon points="519.22,271.22 519.22,267.22 530.35,262.72 530.35,266.72" fill="#72ac7c"/>
<polygon points="571.15,258.22 582.27,262.72 571.15,267.22 560.02,262.72" fill="#9be9a8"/>
<polygon points="560.02,266.72 560.02,262.72 571.15,267.22 571.15,271.22" fill="#88cd93"/>
<polygon points="571.15,271.22 571.15,267.22 582.27,262.72 582.27,266.72" fill="#72ac7c"/>
<polygon points="597.11,258.22 608.23,262.72 597.11,267.22 585.98,262.72" fill="#9be9a8"/>
<polygon points="585.98,266.72 585.98,262.72 597.11,267.22 597.11,271.22" fill="#88cd93"/>
<polygon points="597.11,271.22 597.11,267.22 608.23,262.72 608.23,266.72" fill="#72ac7c"/>
<polygon points="623.07,258.22 634.19,262.72 623.07,267.22 611.94,262.72" fill="#9be9a8"/>
<polygon points="611.94,266.72 611.94,262.72 623.07,267.22 623.07,271.22" fill="#88cd93"/>
<polygon points="623.07,271.22 623.07,267.22 634.19,262.72 634.19,266.72" fill="#72ac7c"/>
<polygon points="506.24,266.47 517.37,270.96 506.24,275.46 495.12,270.96" fill="#ebedf0"/>
<polygon points="495.12,271.96 495.12,270.96 506.24,275.46 506.24,276.46" fill="#ced0d3"/>
<polygon points="506.24,276.46 506.24,275.46 517.37,270.96 517.37,271.96" fill="#adafb1"/>
<polygon points="662.01,266.47 673.14,270.96 662.01,275.46 650.88,270.96" fill="#ebedf0"/>
<polygon points="650.88,271.96 650.88,270.96 662.01,275.46 662.01,276.46" fill="#ced0d3"/>
<polygon points="662.01,276.46 662.01,275.46 673.14,270.96 673.14,271.96" fill="#adafb1"/>
<polygon points="532.20,263.47 543.33,267.96 532.20,272.46 521.08,267.96" fill="#9be9a8"/>
<polygon points="521.08,271.96 521.08,267.96 532.20,272.46 532.20,276.46" fill="#88cd93"/>
<polygon points="532.20,276.46 532.20,272.46 543.33,267.96 543.33,271.96" fill="#72ac7c"/>
<polygon points="558.16,263.47 569.29,267.96 558.16,272.46 547.04,267.96" fill="#9be9a8"/>
<polygon points="547.04,271.96 547.04,267.96 558.16,272.46 558.16,276.46" fill="#88cd93"/>
<polygon points="558.16,276.46 558.16,272.46 569.29,267.96 569.29,271.96" fill="#72ac7c"/>
<polygon points="584.13,263.47 595.25,267.96 584.13,272.46 573.00,267.96" fill="#9be9a8"/>
<polygon points="573.00,271.96 573.00,267.96 584.13,272.46 584.13,276.46" fill="#88cd93"/>
<polygon points="584.13,276.46 584.13,272.46 595.25,267.96 595.25,271.96" fill="#72ac7c"/>
<polygon points="610.09,263.47 621.21,267.96 610.09,272.46 598.96,267.96" fill="#9be9a8"/>
<polygon points="598.96,271.96 598.96,267.96 610.09,272.46 610.09,276.46" fill="#88cd93"/>
<polygon points="610.09,276.46 610.09,272.46 621.21,267.96 621.21,271.96" fill="#72ac7c"/>
<polygon points="636.05,263.47 647.17,267.96 636.05,272.46 624.92,267.96" fill="#9be9a8"/>
<polygon points="624.92,271.96 624.92,267.96 636.05,272.46 636.05,276.46" fill="#88cd93"/>
<polygon points="636.05,276.46 636.05,272.46 647.17,267.96 647.17,271.96" fill="#72ac7c"/>
<polygon points="571.15,271.71 582.27,276.21 571.15,280.70 560.02,276.21" fill="#ebedf0"/>
<polygon points="560.02,277.21 560.02,276.21 571.15,280.70 571.15,281.70" fill="#ced0d3"/>
<polygon points="571.15,281.70 571.15,280.70 582.27,276.21 582.27,277.21" fill="#adafb1"/>
<polygon points="649.03,271.71 660.15,276.21 649.03,280.70 637.90,276.21" fill="#ebedf0"/>
<polygon points="637.90,277.21 637.90,276.21 649.03,280.70 649.03,281.70" fill="#ced0d3"/>
<polygon points="649.03,281.70 649.03,280.70 660.15,276.21 660.15,277.21" fill="#adafb1"/>
<polygon points="674.99,271.71 686.12,276.21 674.99,280.70 663.86,276.21" fill="#ebedf0"/>
<polygon points="663.86,277.21 663.86,276.21 674.99,280.70 674.99,281.70" fill="#ced0d3"/>
<polygon points="674.99,281.70 674.99,280.70 686.12,276.21 686.12,277.21" fill="#adafb1"/>
<polygon points="519.22,268.71 530.35,273.21 519.22,277.70 508.10,273.21" fill="#9be9a8"/>
<polygon points="508.10,277.21 508.10,273.21 519.22,277.70 519.22,281.70" fill="#88cd93"/>
<polygon points="519.22,281.70 519.22,277.70 530.35,273.21 530.35,277.21" fill="#72ac7c"/>
<polygon points="545.18,268.71 556.31,273.21 545.18,277.70 534.06,273.21" fill="#9be9a8"/>
<polygon points="534.06,277.21 534.06,273.21 545.18,277.70 545.18,281.70" fill="#88cd93"/>
<polygon points="545.18,281.70 545.18,277.70 556.31,273.21 556.31,277.21" fill="#72ac7c"/>
<polygon points="597.11,268.71 608.23,273.21 597.11,277.70 585.98,273.21" fill="#9be9a8"/>
<polygon points="585.98,277.21 585.98,273.21 597.11,277.70 597.11,281.70" fill="#88cd93"/>
<polygon points="597.11,281.70 597.11,277.70 608.23,273.21 608.23,277.21" fill="#72ac7c"/>
<polygon points="623.07,265.71 634.19,270.21 623.07,274.70 611.94,270.21" fill="#40c463"/>
<polygon points="611.94,277.21 611.94,270.21 623.07,274.70 623.07,281.70" fill="#38ac57"/>
<polygon points="623.07,281.70 623.07,274.70 634.19,270.21 634.19,277.21" fill="#2f9149"/>
<polygon points="532.20,276.96 543.33,281.45 532.20,285.95 521.08,281.45" fill="#ebedf0"/>
<polygon points="521.08,282.45 521.08,281.45 532.20,285.95 532.20,286.95" fill="#ced0d3"/>
<polygon points="532.20,286.95 532.20,285.95 543.33,281.45 543.33,282.45" fill="#adafb1"/>
<polygon points="558.16,276.96 569.29,281.45 558.16,285.95 547.04,281.45" fill="#ebedf0"/>
<polygon points="547.04,282.45 547.04,281.45 558.16,285.95 558.16,286.95" fill="#ced0d3"/>
<polygon points="558.16,286.95 558.16,285.95 569.29,281.45 569.29,282.45" fill="#adafb1"/>
<polygon points="584.13,276.96 595.25,281.45 584.13,285.95 573.00,281.45" fill="#ebedf0"/>
<polygon points="573.00,282.45 573.00,281.45 584.13,285.95 584.13,286.95" fill="#ced0d3"/>
<polygon points="584.13,286.95 584.13,285.95 595.25,281.45 595.25,282.45" fill="#adafb1"/>
<polygon points="636.05,273.96 647.17,278.45 636.05,282.95 624.92,278.45" fill="#9be9a8"/>
<polygon points="624.92,282.45 624.92,278.45 636.05,282.95 636.05,286.95" fill="#88cd93"/>
<polygon points="636.05,286.95 636.05,282.95 647.17,278.45 647.17,282.45" fill="#72ac7c"/>
<polygon points="662.01,273.96 673.14,278.45 662.01,282.95 650.88,278.45" fill="#9be9a8"/>
<polygon points="650.88,282.45 650.88,278.45 662.01,282.95 662.01,286.95" fill="#88cd93"/>
<polygon points="662.01,286.95 662.01,282.95 673.14,278.45 673.14,282.45" fill="#72ac7c"/>
<polygon points="610.09,270.96 621.21,275.45 610.09,279.95 598.96,275.45" fill="#40c463"/>
<polygon points="598.96,282.45 598.96,275.45 610.09,279.95 610.09,286.95" fill="#38ac57"/>
<polygon points="610.09,286.95 610.09,279.95 621.21,275.45 621.21,282.45" fill="#2f9149"/>
<polygon points="545.18,282.20 556.31,286.70 545.18,291.19 534.06,286.70" fill="#ebedf0"/>
<polygon points="534.06,287.70 534.06,286.70 545.18,291.19 545.18,292.19" fill="#ced0d3"/>
<polygon points="545.18,292.19 545.18,291.19 556.31,286.70 556.31,287.70" fill="#adafb1"/>
<polygon points="571.15,279.20 582.27,283.70 571.15,288.19 560.02,283.70" fill="#9be9a8"/>
<polygon points="560.02,287.70 560.02,283.70 571.15,288.19 571.15,292.19" fill="#88cd93"/>
<polygon points="571.15,292.19 571.15,288.19 582.27,283.70 582.27,287.70" fill="#72ac7c"/>
<polygon points="597.11,279.20 608.23,283.70 597.11,288.19 585.98,283.70" fill="#9be9a8"/>
<polygon points="585.98,287.70 585.98,283.70 597.11,288.19 597.11,292.19" fill="#88cd93"/>
<polygon points="597.11,292.19 597.11,288.19 608.23,283.70 608.23,287.70" fill="#72ac7c"/>
<polygon points="623.07,279.20 634.19,283.70 623.07,288.19 611.94,283.70" fill="#9be9a8"/>
<polygon points="611.94,287.70 611.94,283.70 623.07,288.19 623.07,292.19" fill="#88cd93"/>
<polygon points="623.07,292.19 623.07,288.19 634.19,283.70 634.19,287.70" fill="#72ac7c"/>
<polygon points="649.03,279.20 660.15,283.70 649.03,288.19 637.90,283.70" fill="#9be9a8"/>
<polygon points="637.90,287.70 637.90,283.70 649.03,288.19 649.03,292.19" fill="#88cd93"/>
<polygon points="649.03,292.19 649.03,288.19 660.15,283.70 660.15,287.70" fill="#72ac7c"/>
<polygon points="558.16,287.45 569.29,291.94 558.16,296.44 547.04,291.94" fill="#ebedf0"/>
<polygon points="547.04,292.94 547.04,291.94 558.16,296.44 558.16,297.44" fill="#ced0d3"/>
<polygon points="558.16,297.44 558.16,296.44 569.29,291.94 569.29,292.94" fill="#adafb1"/>
<polygon points="584.13,284.45 595.25,288.94 584.13,293.44 573.00,288.94" fill="#9be9a8"/>
<polygon points="573.00,292.94 573.00,288.94 584.13,293.44 584.13,297.44" fill="#88cd93"/>
<polygon points="584.13,297.44 584.13,293.44 595.25,288.94 595.25,292.94" fill="#72ac7c"/>
<polygon points="610.09,284.45 621.21,288.94 610.09,293.44 598.96,288.94" fill="#9be9a8"/>
<polygon points="598.96,292.94 598.96,288.94 610.09,293.44 610.09,297.44" fill="#88cd93"/>
<polygon points="610.09,297.44 610.09,293.44 621.21,288.94 621.21,292.94" fill="#72ac7c"/>
<polygon points="636.05,284.45 647.17,288.94 636.05,293.44 624.92,288.94" fill="#9be9a8"/>
<polygon points="624.92,292.94 624.92,288.94 636.05,293.44 636.05,297.44" fill="#88cd93"/>
<polygon points="636.05,297.44 636.05,293.44 647.17,288.94 647.17,292.94" fill="#72ac7c"/>
<polygon points="571.15,292.69 582.27,297.19 571.15,301.68 560.02,297.19" fill="#ebedf0"/>
<polygon points="560.02,298.19 560.02,297.19 571.15,301.68 571.15,302.68" fill="#ced0d3"/>
<polygon points="571.15,302.68 571.15,301.68 582.27,297.19 582.27,298.19" fill="#adafb1"/>
<polygon points="597.11,289.69 608.23,294.19 597.11,298.68 585.98,294.19" fill="#9be9a8"/>
<polygon points="585.98,298.19 585.98,294.19 597.11,298.68 597.11,302.68" fill="#88cd93"/>
<polygon points="597.11,302.68 597.11,298.68 608.23,294.19 608.23,298.19" fill="#72ac7c"/>
<polygon points="623.07,283.69 634.19,288.19 623.07,292.68 611.94,288.19" fill="#30a14e"/>
<polygon points="611.94,298.19 611.94,288.19 623.07,292.68 623.07,302.68" fill="#2a8d44"/>
<polygon points="623.07,302.68 623.07,292.68 634.19,288.19 634.19,298.19" fill="#237739"/>
<polygon points="584.13,297.94 595.25,302.43 584.13,306.93 573.00,302.43" fill="#ebedf0"/>
<polygon points="573.00,303.43 573.00,302.43 584.13,306.93 584.13,307.93" fill="#ced0d3"/>
<polygon points="584.13,307.93 584.13,306.93 595.25,302.43 595.25,303.43" fill="#adafb1"/>
<text x="687.97" y="19.00" text-anchor="end" font-family='-apple-system, BlinkMacSystemFont, "Segoe UI", Helvetica, Arial, sans-serif' font-size="34" font-weight="700" fill="#216e39">271</text>
<text x="687.97" y="31.00" text-anchor="end" font-family='-apple-system, BlinkMacSystemFont, "Segoe UI", Helvetica, Arial, sans-serif' font-size="10" fill="#59636e" letter-spacing="0.8">TOTAL COMMITS</text>
<text x="-90.86" y="261.67" font-family='-apple-system, BlinkMacSystemFont, "Segoe UI", Helvetica, Arial, sans-serif' font-size="10" fill="#59636e" letter-spacing="0.8">MOST ACTIVE DAYS</text>
<rect x="-90.86" y="291.33" width="9" height="9.34" rx="1" fill="#40c463"/>
<text x="-86.36" y="314.67" text-anchor="middle" font-family='-apple-system, BlinkMacSystemFont, "Segoe UI", Helvetica, Arial, sans-serif' font-size="10" fill="#59636e">S</text>
<rect x="-78.86" y="272.65" width="9" height="28.02" rx="1" fill="#40c463"/>
<text x="-74.36" y="314.67" text-anchor="middle" font-family='-apple-system, BlinkMacSystemFont, "Segoe UI", Helvetica, Arial, sans-serif' font-size="10" fill="#59636e">M</text>
<rect x="-66.86" y="272.27" width="9" height="28.40" rx="1" fill="#40c463"/>
<text x="-62.36" y="314.67" text-anchor="middle" font-family='-apple-system, BlinkMacSystemFont, "Segoe UI", Helvetica, Arial, sans-serif' font-size="10" fill="#59636e">T</text>
<rect x="-54.86" y="267.60" width="9" height="33.07" rx="1" fill="#40c463"/>
<text x="-50.36" y="314.67" text-anchor="middle" font-family='-apple-system, BlinkMacSystemFont, "Segoe UI", Helvetica, Arial, sans-serif' font-size="10" fill="#59636e">W</text>
<rect x="-42.86" y="266.67" width="9" height="34.00" rx="1" fill="#216e39"/>
<text x="-38.36" y="314.67" text-anchor="middle" font-family='-apple-system, BlinkMacSystemFont, "Segoe UI", Helvetica, Arial, sans-serif' font-size="10" fill="#59636e">T</text>
<rect x="-30.86" y="282.18" width="9" height="18.49" rx="1" fill="#40c463"/>
<text x="-26.36" y="314.67" text-anchor="middle" font-family='-apple-system, BlinkMacSystemFont, "Segoe UI", Helvetica, Arial, sans-serif' font-size="10" fill="#59636e">F</text>
<rect x="-18.86" y="297.31" width="9" height="3.36" rx="1" fill="#40c463"/>
<text x="-14.36" y="314.67" text-anchor="middle" font-family='-apple-system, BlinkMacSystemFont, "Segoe UI", Helvetica, Arial, sans-serif' font-size="10" fill="#59636e">S</text>
</svg>